<?xml version="1.0" encoding="UTF-8" standalone="no"?>
<!-- Created with Inkscape (http://www.inkscape.org/) -->

<svg
   width="1335.5668"
   height="1110.071"
   viewBox="0 0 353.36859 293.70722"
   version="1.1"
   id="svg5"
   inkscape:version="1.1.2 (0a00cf5339, 2022-02-04, custom)"
   sodipodi:docname="Berlin_silhouette.svg"
   xmlns:inkscape="http://www.inkscape.org/namespaces/inkscape"
   xmlns:sodipodi="http://sodipodi.sourceforge.net/DTD/sodipodi-0.dtd"
   xmlns="http://www.w3.org/2000/svg"
   xmlns:svg="http://www.w3.org/2000/svg">
  <sodipodi:namedview
     id="namedview7"
     pagecolor="#ffffff"
     bordercolor="#666666"
     borderopacity="1.0"
     inkscape:pageshadow="2"
     inkscape:pageopacity="1"
     inkscape:pagecheckerboard="0"
     inkscape:document-units="cm"
     showgrid="false"
     inkscape:zoom="0.12960772"
     inkscape:cx="150.454"
     inkscape:cy="61.724716"
     inkscape:window-width="1920"
     inkscape:window-height="1009"
     inkscape:window-x="-8"
     inkscape:window-y="-8"
     inkscape:window-maximized="1"
     inkscape:current-layer="layer1"
     units="px"
     fit-margin-left="10"
     fit-margin-top="10"
     fit-margin-right="10"
     fit-margin-bottom="10" />
  <defs
     id="defs2" />
  <g
     inkscape:label="Ebene 1"
     inkscape:groupmode="layer"
     id="layer1"
     transform="translate(-493.14522,-176.57604)">
    <path
       d="m 517.38088,254.81368 -0.19932,0.46662 -0.1543,0.28374 0.083,0.31943 0.092,0.17325 -0.19762,0.92337 -0.3551,0.33017 -0.20889,0.33875 0.0111,0.40193 0.17442,0.20947 0.50228,-0.0201 0.31052,-0.0285 0.32009,0.0902 0.21101,0.26416 0.1665,0.54751 0.01,0.23749 0.047,0.44744 0.083,0.33771 0.1387,0.48366 0.24852,0.48327 0.28379,0.18169 0.38381,0.0443 0.39259,-0.0654 0.3284,-0.1291 0.3011,-0.0924 0.32872,-0.0469 0.39238,-0.12932 0.35581,-0.12917 0.32869,-0.0378 0.33811,0.0262 0.41101,-0.0472 0.60158,-0.34933 0.3556,-0.19312 0.42882,-0.14772 0.39251,-0.0745 0.493,-0.11142 0.33739,-0.15653 0.46461,-0.33967 0.6472,-0.38603 0.30128,-0.0651 0.34642,-0.21135 0.7116,-0.24011 0.36561,0.0443 0.21058,0.13629 0.30231,0.22728 0.1469,0.20045 0.084,0.41076 0.065,0.35606 0.17489,0.36478 0.15589,0.16385 0.2757,0.44662 0.065,0.31039 0.10139,0.2554 0.16571,0.36481 0.34999,0.7661 0.028,0.28308 v 0.23752 l -0.01,0.36544 -0.0259,0.3107 0.019,0.3288 0.056,0.38349 -0.035,0.26503 -0.033,0.96846 0.0201,0.44757 -0.072,0.4022 -0.054,0.30167 -0.14499,0.302 -0.19101,0.24733 -0.1,0.25615 0.056,0.31041 0.065,0.23728 0.0101,0.35623 -0.099,0.38405 -0.15449,0.21979 -0.3828,0.22979 -0.23701,0.147 -0.1364,0.17407 -0.0259,0.33811 0.1015,0.27369 -0.10798,0.44802 -0.15401,0.35684 -0.1361,0.25628 -0.063,0.31996 -0.061,0.73105 -0.47253,0.69599 -0.32758,0.33919 -0.27252,0.4486 -0.2726,0.39381 -0.08,0.58497 0.038,0.30131 -0.0259,0.48427 0.0201,0.36533 -0.3166,0.869 -0.3365,0.43059 -0.12689,0.28366 v 0.28318 l 0.12038,0.4472 0.15732,0.53841 0.1015,0.29197 0.047,0.50226 -0.0169,0.46595 0.019,0.3836 0.047,0.43834 0.094,0.61171 0.074,0.33775 -0.21532,1.08786 -0.11748,0.35671 -0.1992,0.47575 -0.2177,0.43929 -0.53721,0.47699 -0.429,0.10205 -0.5389,0.0293 -0.4934,-0.0439 -0.37492,-0.0991 -0.2926,-0.072 -0.7679,-0.12509 -0.9324,-0.17021 -0.64889,-0.089 -0.3751,-0.16309 -0.36632,-0.24532 -0.36658,-0.30927 -0.3034,-0.53788 -0.3121,-0.40994 -0.32091,-0.33684 -0.2933,-0.26387 -0.27429,-0.063 -0.20992,0.0464 -0.17309,0.14679 -0.15449,0.20153 -0.14521,0.27459 -0.09,0.31091 -0.072,0.32914 -0.1448,0.37508 -0.09,0.40227 -0.09,0.44797 -0.17151,0.58526 -0.1896,0.61275 -0.08,0.60322 -0.099,0.42972 -0.1079,0.48456 -0.32512,1.04262 -0.4436,1.11609 -0.14459,0.4299 -0.18061,0.57618 -0.11649,0.63074 -0.081,0.39312 -0.1083,0.36579 0.056,0.23733 0.12121,0.68469 -0.1438,0.63088 -0.13499,0.576 -0.23361,1.06969 -0.081,0.46617 -0.071,0.63061 -0.089,0.61238 -0.17121,0.64921 -0.17089,0.72231 -0.2998,0.47612 -0.15431,0.25636 -0.39748,1.22558 -0.22622,0.61288 -0.11679,0.53025 -0.31771,0.56756 -0.1533,0.53951 -0.10758,0.5668 -0.044,0.42952 -0.0259,0.35637 -0.096,1.20619 -0.12513,0.76782 -0.13398,0.85008 -0.08,0.7311 -0.13049,1.80013 -0.033,0.97758 -0.11632,0.69472 -0.06,1.16039 -0.15189,0.95062 -0.052,0.70361 -0.24472,0.53986 -0.15348,0.49387 0.16629,0.51097 0.366,0.16311 0.6395,0.0159 0.66611,-0.20341 0.67551,-0.14862 0.5845,-0.0478 0.8949,-0.0855 1.05929,-0.12261 0.977,-0.10403 1.13242,-0.12287 0.9765,-0.27761 1.1587,-0.38788 0.7575,-0.19457 0.82162,-0.16743 1.12268,-0.25985 0.49271,-0.16624 0.62981,-0.15758 0.39288,0.0259 0.41172,0.17208 0.32078,0.29118 0.17542,0.51093 0.102,0.41072 0.1564,0.31917 0.2473,0.18179 0.37471,0.0443 0.34729,0.0169 0.4295,0.0624 1.0531,0.69961 0.46709,0.31803 0.43972,0.34555 0.4854,0.33623 0.3755,0.27271 0.51279,0.33615 0.5216,0.24474 1.04392,0.67223 0.65,0.38132 0.53081,0.28128 0.46699,0.2998 0.4122,0.29993 1.36451,0.91771 0.56759,0.33594 0.71411,0.44506 1.025,0.50784 0.074,0.31033 -0.40021,0.47649 -0.4363,0.58627 -0.4726,0.66858 -0.42749,0.53141 -1.4102,1.59463 -1.37381,1.53974 -1.5381,1.57682 -1.32851,1.44818 -1.1734,1.41113 -1.23791,1.22862 -0.5365,0.6962 -0.39081,0.54041 -1.59158,1.95158 -1.53681,1.9331 -1.34631,1.59444 -0.99071,1.38301 -1.26379,1.65807 -1.3639,1.7498 -1.40981,1.71339 -1.4559,1.57655 -3.46772,1.02659 -1.21492,0.0135 -0.12078,1.96454 -0.1777,1.36179 -0.26212,0.78658 -0.27128,0.76835 -0.44532,0.64109 -0.89178,0.94417 0.05,1.09607 -0.51851,0.60478 -0.31869,0.26609 -0.2273,0.31142 -0.136,0.29282 -0.19029,0.40264 -0.2907,0.44868 -0.1728,0.2199 0.5719,1.50524 0.075,0.54782 -0.0259,0.49343 -0.16021,1.1516 -0.20769,0.66765 -0.19032,0.43003 0.36682,0.39151 0.47599,0.26318 0.24759,0.23662 0.038,0.42008 v 0.57552 l -0.089,0.63979 -0.1166,0.57595 0.029,0.41098 -0.071,0.66714 -0.32409,1.32578 -0.71631,1.47339 -0.4818,0.65948 -0.17219,0.36602 0.31239,0.50131 0.48612,0.52809 0.29379,0.41915 0.40389,0.53753 0.37621,0.46453 0.39439,0.40965 0.24832,0.45588 0.25749,0.47409 0.9802,0.76382 0.86112,0.66374 0.38449,0.22699 0.13859,0.41973 0.029,0.49319 0.0201,0.52977 0.21201,0.51994 0.43141,0.58309 0.43079,0.39127 0.5682,0.50038 0.41262,0.41873 0.038,0.44746 -0.081,0.4662 -0.12658,0.37502 -0.34552,0.458 -0.6382,0.34946 -0.6472,0.36777 -0.4467,0.25739 -0.26429,0.18367 -0.2548,0.27499 -0.20881,0.3479 -0.2816,0.44865 -0.52691,0.79667 -0.527,0.78756 -0.40969,0.37602 -0.4741,0.26665 -0.20072,0.0738 -0.0249,0.57561 -0.01,0.45678 0.0201,0.53893 0.076,0.67572 0.038,0.49316 -0.054,0.34734 -0.34578,0.36666 -0.41902,0.32126 -1.25649,1.14647 -0.6373,0.61437 -0.32761,0.32094 -0.30091,0.18378 -0.43781,0.18431 -0.28218,0.27508 -0.1815,0.32952 -0.2734,0.1837 -0.5117,-0.0438 -0.5215,-0.20822 -0.357,-0.20881 -0.83291,-0.42636 -0.32851,0.0834 -0.2004,0.16515 -0.2273,0.30229 -0.099,0.39317 -0.062,0.45699 -0.19,0.52142 -0.37269,0.51292 -0.4372,0.3396 -1.11252,0.57041 -0.6294,0.23067 -0.82111,0.30446 -0.92059,0.56057 -0.37309,0.42159 0.067,0.96808 0.1212,0.66644 0.2041,0.85797 0.17569,0.61142 0.048,0.63932 0.0209,0.61198 0.066,0.58442 0.13988,0.77599 0.20421,0.91279 0.3301,0.33679 0.58581,0.29935 0.3941,0.36399 0.33909,0.2911 0.3756,0.30009 0.4761,0.29975 0.61291,0.21701 0.54821,0.0254 0.51888,-0.4952 0.15322,-0.58521 -0.57841,-0.80179 -0.73509,-1.16666 0.19108,-0.19254 0.90332,-0.31387 0.65688,-0.2399 0.54801,-0.0294 0.1026,0.60257 0.048,0.73977 0.057,0.52965 0.048,0.69411 0.1749,0.35563 0.9507,0.18838 0.52081,0.007 0.73959,-0.10316 0.327,-0.49448 0.042,-1.07816 0.052,-0.82235 0.20849,-0.45749 0.347,-0.0287 0.5116,-0.003 0.36643,0.28186 0.35848,0.61074 0.49602,0.75647 0.38629,0.71113 -0.1352,0.51207 -0.21609,0.43133 -0.48191,0.61383 -0.32639,0.67715 v 0.5573 l -0.14463,0.42074 0.066,0.47477 0.36701,0.41889 0.5401,0.29953 0.2395,0.54724 -0.053,0.63966 0.29329,0.28213 0.8233,0.31676 0.41191,0.22688 1.10821,0.76335 0.38378,0.0443 0.63161,0.35399 0.15711,0.48361 0.35809,0.51033 0.3668,0.39147 0.19312,0.34642 0.38539,0.47369 0.39471,0.50102 0.32988,0.29109 0.45802,0.3546 0.43148,0.5648 0.56772,0.37251 0.68549,0.10719 0.90321,-0.32301 0.6105,-0.43159 0.83831,-0.606 0.7747,-0.47781 0.52959,-0.084 0.58521,0.15319 0.45781,0.2907 2.40671,1.14232 1.11459,0.033 0.60491,0.52761 0.6422,0.76509 1.2077,0.4889 1.73631,0.1764 0.8043,0.10671 1.26181,0.3243 2.8882,0.40968 1.82722,0.03 3.34101,-0.6881 0.9289,-0.78899 0.1238,-1.13321 -0.18442,-0.4744 -2.6297,0.35671 -1.99002,0.3909 -1.64338,0.2617 -0.78643,-0.1981 0.14251,-1.02362 0.19751,-0.95078 0.25199,-1.04231 -0.096,-1.37004 0.23479,-0.74994 0.60122,-0.47723 1.13041,-0.64357 1.64119,-0.86466 1.7144,-0.82839 1.69561,-0.99277 4.21252,-2.18944 3.5548,-2.18713 2.44301,-1.45222 2.2252,-1.0495 1.42421,-0.26096 1.6441,-0.0608 1.75292,-0.29869 1.56941,-0.51726 2.11569,-1.01257 1.87781,-1.10305 1.55131,-0.48064 2.5172,-1.12364 1.11422,-0.0954 1.0791,0.30668 1.06069,0.2885 1.2422,-0.0411 0.93062,-0.35053 0.54708,-0.27601 1.33351,-0.0596 1.24262,0.0503 2.90529,0.0808 0.20341,0.67527 0.31491,1.16817 0.1157,1.68048 0.54049,2.95786 0.3342,1.46043 0.042,1.53456 -0.15952,1.37089 -0.2708,0.89623 -0.1797,0.82283 0.18542,0.73014 0.62238,0.32663 0.8024,-0.40486 1.25892,-0.49787 1.16851,-0.20524 1.40708,0.068 1.51821,0.48778 1.04331,0.50779 0.787,0.38085 1.60882,0.26821 1.09659,0.10564 1.31501,-0.13266 1.186,-0.42452 1.07522,-0.77127 0.9112,-0.64278 4.86232,-4.38429 3.2778,-2.98998 1.1367,1.05555 0.88221,1.45844 1.2496,1.98695 2.16721,3.09815 3.58382,5.79699 0.89358,-0.4417 0.69162,-0.73332 5.15899,-3.17954 5.77862,-3.6385 3.57242,-2.36988 0.2741,0.0172 -0.0101,3.45317 2.4754,2.43928 3.11611,2.80234 3.11583,2.71096 4.6145,2.83351 1.44651,0.8717 0.16568,0.34661 -0.77068,4.11359 0.2386,0.29152 2.52199,0.1918 5.73552,-0.38622 0.29282,0.12682 0.40008,4.52971 -0.11348,3.9468 0.16629,0.51102 4.29391,0.11229 3.25391,0.4632 1.9194,0.28541 3.96572,0.27789 3.30763,0.17071 0.47309,-0.53152 1.61162,-3.98879 1.43139,-3.29392 0.088,-1.0418 -1.61071,-5.84072 -1.4454,-5.58553 -1.29672,-4.89176 -0.24199,-1.24154 0.047,-2.24743 3.92322,-1.348 1.5511,-0.53547 1.35121,-0.22415 2.3884,-1.37894 1.11332,-0.33292 2.08,-0.79317 2.07849,-1.19513 1.2582,-0.66231 1.00323,-0.47866 0.92948,-0.62457 0.65591,-0.51396 1.1307,-0.55221 1.6247,-0.38958 1.13232,-0.11374 0.60211,-0.25797 2.78009,0.83037 1.62511,4.7627 1.64362,4.83575 1.6773,4.06825 0.46279,1.64267 0.46191,1.42338 0.1383,2.8863 0.64061,0.30821 2.15459,-0.37319 3.61461,-0.81701 4.12582,-0.9102 4.07121,-0.85521 3.17631,-0.7606 1.2215,-0.73528 1.0798,0.48937 0.77711,0.18899 0.77721,0.18902 1.40989,0.8354 1.55621,0.88961 0.62241,0.34478 0.18528,0.71192 0.36611,0.1814 1.186,-0.44281 3.11643,-2.1489 0.45699,0.071 0.16521,0.20039 -0.14402,0.58511 -0.45159,1.42682 -0.6698,1.7198 -0.50331,2.2674 -0.10488,1.31581 0.18719,1.2418 0.36769,0.63809 0.5493,0.30861 5.55482,0.16262 5.24482,0.32808 2.6315,0.15492 1.55203,-0.29801 3.83279,-1.09191 3.46822,-0.87119 3.63142,-1.2191 2.8641,-1.21622 0.5675,0.30851 0.29401,0.45569 0.057,0.5297 -0.2164,0.7864 -0.071,0.4205 0.0201,0.49321 0.2023,0.3646 0.42169,0.4005 0.2204,0.32811 0.075,0.5478 -0.035,0.36549 0.096,1.18732 0.8061,0.6182 0.73139,0.14349 0.5483,0.053 0.47691,0.50981 1.5425,2.16861 1.52562,2.51582 -0.071,0.63969 -0.054,0.14639 -0.21839,0.22 -0.072,0.38402 0.18439,0.4926 0.2567,0.2548 0.2753,0.3279 -0.071,0.5484 -0.2173,0.54891 -0.21731,0.51239 -0.0161,0.54811 0.32941,0.12669 0.6018,-0.29449 0.85701,-0.45982 1.5683,-0.84619 1.5312,-0.9556 1.64061,-1.0291 1.33101,-0.77221 1.3855,-0.84551 1.71361,-1.02928 0.7303,-0.14881 0.47699,0.52809 2.07842,3.81101 4.80101,-1.13189 0.112,5.68171 2.1208,0.3942 0.04,0.8403 v 0.60301 l 0.22101,0.4925 0.076,0.73051 -0.089,0.76769 -0.36309,0.64081 -0.5099,0.4586 -0.6925,0.4958 -0.92969,0.58802 -0.5102,0.36729 -0.38143,0.6226 -0.7629,1.2269 -0.2903,0.5674 -0.15909,1.46222 -0.30089,2.68691 -0.031,1.6079 0.13729,2.59391 -0.087,1.07831 -0.1981,0.78629 -0.2368,0.2018 -0.30879,0.49451 -0.0161,0.62119 0.16981,1.47931 0.6069,1.09411 0.88069,1.01989 0.78841,0.76449 0.4412,0.74751 0.5144,0.7838 0.73099,0.052 0.36621,0.21788 0.404,0.54671 0.51289,0.36352 0.76822,0.23479 0.89538,0.033 0.63863,-0.22159 0.23649,-0.2749 -0.04,-0.84032 -0.113,-0.9497 0.033,-0.87709 0.25278,-0.82299 0.34391,-0.89663 0.32599,-0.80499 0.41751,-0.75071 0.50991,-0.44029 0.36388,-0.43979 0.34431,-0.76862 0.14221,-1.09681 0.1056,-1.09659 0.14351,-0.73131 0.38179,-0.53121 0.29221,-0.038 0.39979,-0.58611 0.1262,-0.47549 0.5284,-0.3856 0.47422,-0.23932 0.4005,-0.3851 0.071,-0.67628 0.0161,-0.52991 0.34409,-0.82341 0.38179,-0.5312 0.61942,-0.47729 0.2912,-0.32991 0.32801,-0.2387 -0.057,-0.74891 -0.0209,-0.80389 0.14287,-0.89569 0.25292,-0.78661 0.36258,-0.7869 0.36373,-0.47641 0.58309,-0.4223 0.34631,-0.22051 0.2363,-0.34801 0.199,-0.5488 0.25339,-0.6404 0.4372,-0.36701 0.6024,-0.14838 0.62061,-0.1484 0.9841,-0.69781 0.54599,-0.58669 0.7107,-0.49591 0.63871,-0.22151 0.73041,-0.11229 0.7126,0.0161 0.54941,0.3452 0.4217,0.40039 0.54991,0.49131 0.38539,0.47361 0.71271,0.052 0.56568,-0.2031 0.71203,-0.14869 0.54898,0.25379 0.18331,0.16369 0.54819,0.035 0.25442,-0.3846 v -0.018 l -0.0209,-0.63942 0.1075,-0.585 0.4363,-0.60449 0.49091,-0.67782 0.7089,-0.9892 1.18078,-1.86791 0.38111,-0.7139 0.3442,-0.8051 0.19841,-0.7316 -0.22111,-0.51081 -0.25591,-0.036 -0.38326,0.1293 -0.53053,-0.19902 -0.059,-1.02299 0.36271,-0.75041 0.2711,-0.78661 0.14398,-0.6217 -0.47537,-0.09 -0.43802,0.1478 -0.34629,0.2205 -0.56571,0.18479 -0.7684,-0.28959 -0.58611,-0.38151 -1.5393,-1.2551 -0.36531,0.0201 -0.47469,0.093 -0.64021,-0.21691 -0.2575,-0.4558 -0.1661,-0.45619 0.12599,-0.53031 0.2549,-0.2567 0.40151,-0.1293 0.4028,0.23601 0.4571,0.09 0.52871,-0.29419 0.4735,-0.42201 0.56442,-0.56841 0.54589,-0.60489 1.34649,-1.5031 0.3442,-0.82341 0.69202,-0.62371 0.6205,-0.185 0.7284,-0.6786 0.4716,-0.95179 0.38219,-0.385 0.62082,-0.1302 0.45609,-0.1661 0.52821,-0.47692 0.3628,-0.7139 0.62061,-0.1484 0.8032,-0.20389 0.7288,-0.55081 0.6359,-0.98889 0.601,-0.53202 0.43731,-0.33049 0.34499,-0.5859 0.58311,-0.44061 0.58428,-0.075 0.32991,0.27289 0.4031,0.32739 0.56621,-0.057 0.4563,-0.12951 0.5487,0.1624 0.56779,0.39992 0.65802,0.071 0.7474,-0.47771 0.5279,-0.53179 0.87551,-0.4051 0.74898,-0.039 0.54841,0.089 0.82132,-0.2405 0.30858,-0.5492 0.40061,-0.38521 0.32779,-0.27522 0.19881,-0.6219 0.10761,-0.54851 0.12499,-0.78608 0.1796,-0.85937 0.19762,-0.93253 0.40097,-0.27551 0.76669,-0.16722 0.52898,-0.23942 0.053,-0.56658 -0.22199,-0.7483 -0.22209,-0.78483 -0.53142,-0.41828 -1.02566,-0.70885 -0.24119,-1.02228 -0.12952,-0.43801 -0.698,-1.02061 -0.8079,-1.11157 -0.51621,-1.27707 0.032,-1.11464 0.1244,-0.95052 0.63249,-1.93895 0.65382,-1.06207 0.63569,-1.04373 0.76311,-1.19036 0.43545,-0.80548 0.51009,-0.42206 0.96791,-0.11314 0.475,-0.0201 0.45522,-0.42185 0.12589,-0.54859 0.0169,-0.38375 -0.0201,-0.47493 -0.65792,-0.0524 -0.3847,-0.29091 -0.13029,-0.65728 0.32139,-2.04745 0.071,-0.58492 0.38272,-0.27546 0.6032,0.0709 0.45649,-0.0565 0.3252,-1.02432 0.10472,-1.35242 0.32478,-1.11567 0.28832,-1.11554 1.11091,-0.99066 1.2029,-0.80822 0.56439,-0.56846 0.91271,-0.20429 1.8819,-0.007 0.5842,-0.13002 0.053,-0.6214 -0.22151,-0.6204 -0.5869,-0.61907 0.19831,-0.73153 0.25349,-0.6404 -0.2586,-0.7847 -0.4227,-0.67448 -0.53168,-0.50964 -1.04291,-0.39817 -0.6952,-0.27152 -0.8046,-0.17981 -0.98692,-0.0878 -0.932,-0.0514 -0.8223,-0.0518 -0.93189,-0.0148 -0.87721,-0.0699 -1.02431,-0.30689 -0.73181,-0.27141 -0.25728,-0.41929 -0.31176,-0.32774 -0.43892,-0.10803 -0.38338,0.0562 -0.58381,0.23963 -0.32922,-0.0901 -1.53649,-0.46948 -0.843,-0.70948 -0.93551,-1.01976 -0.89901,-1.03815 -0.7157,-0.85612 -0.6427,-0.89294 -0.9742,-1.62254 -0.7358,-1.36763 -0.57161,-1.4413 -0.47879,-1.03968 -0.73182,-0.28967 -1.51649,0.006 -0.82471,-0.70956 -1.20899,-0.8726 -1.40952,-0.72573 -0.6786,-0.71007 -0.66019,-0.69188 -0.40421,-0.61974 -0.69501,-0.18018 -0.4935,-0.053 -0.3275,0.36658 0.13052,0.71208 0.36708,0.47371 1.06501,1.47606 0.3126,0.5287 0.18489,0.6205 0.094,0.71226 0.0209,0.63939 0.0209,0.76724 0.20289,0.52915 0.3483,0.32758 0.32969,0.23635 0.18453,0.49263 0.14829,0.58412 v 1.16931 l -0.17769,1.37094 -0.25352,0.62212 -1.11459,-0.0143 -0.84072,-0.0883 -1.11541,-0.2335 -0.4445,-1.66101 -0.058,-0.85849 -0.0101,-1.49816 -0.20489,-1.07722 -0.42421,-1.11298 -0.51578,-1.14917 -0.36682,-0.40063 -2.21269,-0.54007 -1.22492,-0.21481 -1.49911,-0.25035 -0.9334,-0.43511 -0.84331,-0.78256 -0.7334,-0.72817 -0.5692,-0.78356 -0.60518,-0.61902 -0.8609,-0.59982 -1.15391,-0.78142 -1.1725,-0.87276 -0.6962,-0.54557 -1.08033,-0.63556 -0.76869,-0.38089 -0.7674,0.003 -0.6757,0.0938 -0.9134,0.0217 -0.8228,-0.17971 -0.64122,-0.4727 -1.1539,-0.79974 -0.73319,-0.65508 -0.678,-0.54565 -0.69562,-0.34462 -0.8236,-0.39897 -1.51871,-0.63394 -0.6767,-0.18026 -0.67609,-0.0159 -1.44442,-0.30536 -0.60238,0.14836 -0.41942,0.23902 -0.61989,0.34938 -0.67411,0.5323 -0.49138,0.51337 -0.78431,0.36825 -0.67482,0.34959 -0.82109,0.29533 -0.38301,0.18407 -0.49279,0.1297 -0.5103,0.36724 -0.85622,0.67914 -0.69289,0.38618 -0.47469,0.0931 -0.3837,-0.0169 -0.31092,-0.072 -0.2727,0.36642 -0.23149,1.66345 -0.034,0.7675 0.077,1.1873 -0.69372,0.18521 -1.44489,-0.43323 -0.16809,-1.02254 -0.5679,-0.3999 -0.42072,-0.14464 -0.6032,-0.0709 -0.5837,0.2762 -0.601,0.51374 -0.8949,0.0946 -0.78712,-0.38082 -0.093,-0.38336 0.6182,-0.82441 0.5819,-0.75119 0.54563,-0.69628 0.27189,-0.60391 -0.093,-0.52951 -0.62209,-0.25353 -0.29339,-0.30953 0.052,-0.71274 0.0159,-0.76743 0.16158,-0.78621 0.14172,-1.22463 0.035,-0.49344 0.87231,-1.2821 0.92649,-1.465 1.473,-1.88723 1.45521,-1.79578 1.85449,-2.49151 0.96283,-1.53824 v -0.20095 l -0.53031,-0.12597 -0.512,-0.0895 -0.42039,-0.0716 -0.018,-0.0365 -0.80499,-0.30769 -0.40381,-0.49184 0.053,-0.6214 0.39913,-0.78706 0.54399,-1.13474 0.26979,-1.18857 0.234,-0.95091 0.23342,-1.13364 0.269,-1.38955 0.1424,-1.04193 0.28739,-1.35305 0.34351,-1.00614 0.34398,-0.85995 0.65271,-1.4092 0.77952,-1.68374 0.7987,-1.42798 1.70979,-2.10734 1.6382,-1.70508 1.05593,-1.04527 1.3116,-1.06445 1.65838,-1.15705 1.47633,-0.99198 2.22341,-1.54279 0.83838,-0.55116 0.673,-0.84288 -0.3524,-1.46035 -0.42598,-1.588 -0.42161,-0.38214 -2.33861,0.0267 -1.6989,0.061 -1.79062,-0.03 -1.9937,-0.61397 -1.2065,-0.16007 -1.73591,-0.0668 -1.60711,0.18855 -1.91728,0.31755 -1.31581,-0.10485 -0.44172,-0.87538 0.1597,-1.29779 -0.097,-1.57091 -0.2422,-1.29633 -0.022,-1.00481 0.10848,-0.311 1.00452,-0.095 1.22429,0.0321 1.49792,-0.0602 0.71231,-0.0757 0.9838,-0.78921 0.81648,-1.55596 0.25212,-1.00579 -1.0069,-0.56275 -1.1888,-0.32454 -1.44431,-0.26881 -3.29042,-0.48139 -2.8333,-0.35512 -3.49363,-1.08355 -6.63841,-1.71162 -6.8038,-1.9851 -0.094,-0.80357 0.38079,-0.787 0.30631,-1.1887 0.087,-1.15137 -0.29811,-1.60671 -0.82868,-1.80579 -0.33081,-0.51038 -0.22281,-1.00407 -0.06,-1.33353 -0.24458,-1.95406 -0.26221,-1.77128 0.0159,-0.73089 -0.0209,-0.74901 -0.33251,-0.98542 -0.33351,-1.29599 -0.459,-0.61955 -0.71321,-0.16184 -1.35409,-0.57973 -0.2577,-0.54719 -0.27559,-0.41923 -0.51311,-0.40008 -0.65771,0.003 -1.68021,0.18881 -0.80399,-0.0336 -0.6222,-0.27181 -0.24021,-0.74822 -0.99381,-1.98787 -0.9189,-1.47659 -0.77229,-1.34922 -1.156,-1.3661 -1.57642,-1.43765 -1.484,-1.10914 -1.61211,-1.19999 -1.81341,-1.2541 -1.62841,-0.65183 -1.81139,-0.70599 -2.7626,-1.04966 -2.70741,-0.94025 -3.60293,-0.99182 -2.06428,0.0806 -5.84483,0.47794 -1.95331,-4.57881 -1.566,-3.57536 -1.25291,-2.90047 -1.11451,-0.0143 0.10232,-1.99187 0.23169,-1.60865 0.5238,-1.66452 1.0858,-2.89069 0.92261,-2.54295 0.48961,-1.00666 0.98399,-0.71612 0.1207,-1.97367 0.1547,-2.7046 0.2526,-0.85964 0.85651,-0.62428 1.51369,-0.7546 1.42283,-0.62635 1.67878,-0.59076 0.49171,-0.44027 0.32411,-1.29839 0.288,-1.2069 1.5312,-6.01657 0.45141,-1.46328 0.171,-3.23452 -1.62603,0.0241 -0.16518,-0.20037 -0.076,-0.93152 -0.056,-0.3652 -0.47551,-0.14447 -0.87609,0.24072 -1.38692,0.46178 -0.91218,0.3687 -2.14472,-1.94715 -1.77711,-1.32729 -2.47129,-1.3248 -3.27892,-2.34501 -1.61131,-0.96248 -2.7729,-3.88158 0.69718,-4.20474 0.85791,-5.26504 -0.34761,-0.14492 -0.6754,0.18516 -1.7317,1.08427 -2.6264,1.27018 -0.39949,0.65916 -0.61971,0.42246 -0.42281,-0.71099 -0.332,-0.85749 0.069,-0.98687 0.6534,-1.20822 0.7444,-1.29993 0.6173,-1.06191 0.52592,-1.07987 -0.20222,-0.34642 -0.7116,0.25836 -0.38209,0.4399 -0.34721,-0.0169 -0.3845,-0.21786 -0.5293,0.1298 -0.5099,0.45863 -0.8362,1.19061 -0.81761,1.24537 -1.43701,1.77745 -0.96309,1.42859 -1.0051,-0.0511 -0.8064,-0.70964 -0.80561,-0.45384 -0.89471,0.16769 -0.7284,0.6421 -0.7261,1.31813 -0.8554,0.91662 -1.5484,1.26628 -0.30779,0.75023 1.2255,0.39748 0.87998,0.83728 1.06302,0.89138 0.9538,1.03796 1.06339,1.01929 0.60391,0.27188 1.0237,0.16071 2.08392,0.28478 1.60859,0.21341 1.11602,0.41616 0.4237,0.94854 0.039,0.7307 -0.50921,0.65958 -0.78421,0.40479 -0.6015,0.38587 -0.52808,0.47694 -1.73303,0.75539 -0.71128,0.34972 -0.78362,0.55095 -0.80061,0.89815 -0.6001,0.78783 -0.91279,0.20429 -0.93221,-0.10624 -2.2487,-0.3938 -0.45792,-0.32721 -0.14779,-0.45623 -0.34809,-0.25453 -1.1335,-0.19685 -0.51142,0.0384 -1.89831,0.51846 -0.84008,0.0944 -1.02151,0.46045 -0.19841,0.71329 -0.052,0.74928 v 0.65773 l -0.1619,0.69488 -0.51041,0.3307 -0.45619,0.16611 -0.76651,0.22201 -0.82161,0.14915 -0.51059,0.27591 -0.3732,2.88812 0.1134,1.05926 0.24009,0.69342 0.038,0.47488 -0.21731,0.51236 -0.51101,0.18458 -1.04159,-0.051 -0.6395,-0.0159 -0.9865,0.0401 -0.52872,0.29427 -0.34571,0.4032 -0.61918,0.55036 -1.31662,-0.30583 -0.66059,-0.80151 -0.8431,-0.70948 -1.74072,-1.40052 -0.60659,-1.0027 -0.0209,-0.73073 -0.27641,-0.63846 -0.56838,-0.56434 -0.62191,-0.19873 -1.0958,0.11362 -0.52922,0.20288 -0.9498,0.0583 -0.76989,-0.69149 -1.17391,-1.27466 -1.02711,-1.07424 -1.41069,-1.07286 -0.65852,-0.21686 -0.43749,0.27565 -0.25501,0.2019 -0.5665,-0.0161 -0.38248,0.33026 -0.27213,0.53083 -0.30829,0.62233 -0.23511,0.67686 -0.19838,0.71327 -0.4898,0.95184 -0.38241,0.36679 -0.1815,0.31128 -0.053,0.45694 v 0.63947 l 0.057,0.52965 -0.1437,0.67651 -0.30851,0.58579 -0.09,0.29266 -0.23582,0.47588 -0.54619,0.53184 -0.5285,0.36732 -0.547,0.2943 -0.67602,0.0206 -0.4024,-0.12645 -0.34679,0.0743 -0.273,0.31158 -0.035,0.3838 v 0.36542 l -0.38229,0.38508 -0.51031,0.3307 -0.47389,0.31234 -0.62072,0.13013 -0.50998,0.44034 -0.43691,0.45837 -0.3084,0.58576 0.076,0.71229 -0.053,0.43868 0.075,0.45649 0.11129,0.47463 0.039,0.5297 -0.2716,0.67699 -1.5135,0.82767 -0.62079,0.1119 -0.85802,0.18581 -0.2358,0.47589 -0.14478,0.3842 -0.85752,0.33197 -0.67591,0.0206 -0.65669,0.2947 -0.60201,0.25797 -0.58399,0.18483 -0.71142,0.29491 -0.74779,0.36812 -0.45519,0.42188 -0.67511,0.25823 -1.1328,0.004 -0.6033,-0.1257 -0.51141,0.0749 -0.45641,0.093 -0.6217,-0.14389 -0.62169,-0.14393 -0.78581,-0.0337 -0.58479,-0.0527 -0.60312,-0.0526 -0.9134,0.0581 -0.7848,0.20381 -0.40141,0.16589 -0.913,0.13121 -0.94999,0.0217 -0.8586,0.0214 -0.67651,-0.12544 -0.86019,-0.39883 -0.98862,-0.54452 -0.7324,-0.43585 -0.67709,-0.30813 -0.7864,-0.2164 -0.5488,-0.18071 -0.80452,-0.16151 -0.78619,-0.16161 -0.80492,-0.27111 -0.6581,-0.10724 -0.8042,-0.0884 -0.8232,-0.27107 -0.67691,-0.25334 -1.3361,-0.6346 -0.7865,-0.25294 -1.00489,0.004 -0.91322,0.0764 -0.96779,0.1497 -1.0776,0.0953 -0.58431,0.0934 -0.0191,-0.23744 0.4735,-0.42193 0.9307,-0.29573 1.0585,-0.33269 0.6373,-0.60523 0.12481,-0.8409 -0.13042,-0.69382 -0.25839,-0.72988 -0.6068,-1.07578 -0.56949,-0.83836 -0.5148,-0.91168 -0.058,-0.89503 0.38182,-0.51298 -0.04,-0.98645 0.053,-0.4935 0.4545,-0.64111 0.43511,-0.91512 0.2884,-1.09726 -0.2413,-1.04055 -0.552,-1.0577 -0.5523,-1.1673 -0.6437,-1.167 -1.10573,-2.59038 -1.397,-2.35184 1.00211,-0.771 2.3875,-1.61647 1.07493,-0.84435 0.23619,-0.36626 -0.60632,-0.92962 -0.60598,-0.83822 -0.82222,-0.0154 -1.20499,0.2236 -1.6074,0.11546 -1.46181,-0.0495 -1.97401,-0.19381 -0.95051,-0.12446 -1.02379,-0.17899 -0.7674,-0.0156 -0.96901,-0.19746 -0.9144,-0.23421 -0.69512,-0.21672 -0.31009,0.12901 -0.14459,0.42074 -0.089,0.54846 -0.1419,1.16983 0.0241,1.57118 -0.014,1.11456 -0.12351,1.2063 0.33099,0.58346 0.84091,0.12483 0.47561,0.16272 0.18651,1.04074 -0.50221,2.57798 v 1.40682 l -0.13959,1.80928 -0.12282,1.40727 -0.051,0.96853 -0.4187,0.44001 -0.69361,0.16695 -1.3702,0.0415 -1.1505,0.15034 -0.74861,0.13062 -0.89461,0.18595 -1.2777,0.35177 -1.24231,0.005 -1.53498,-0.0675 -0.84122,-0.2162 -0.7315,-0.1801 -0.36369,0.4581 v 0.4385 l 0.20478,1.04066 1.06662,1.91453 0.095,0.89493 v 1.09625 l -0.049,1.49834 -0.1052,1.2245 -0.087,1.27926 -0.07,0.96862 -0.16248,0.51213 -0.7861,-0.12504 -0.62252,-0.36315 -0.96898,-0.17917 -0.85871,0.003 -0.6573,0.13028 -0.94909,0.25921 -1.97242,0.22641 -1.04191,-0.14238 -0.91401,-0.12459 -1.06119,-0.39809 -0.84162,-0.34409 -2.35509,0.52012 -1.133,-0.0872 -0.93192,-0.0148 -1.7897,0.20746 -1.0958,0.13187 -1.02389,-0.21554 -1.00621,-0.34348 -0.9501,-0.0148 -0.84042,0.003 -0.49329,0.003 -0.30779,0.76846 -0.0161,0.60299 -0.1066,0.84085 -0.32409,1.31665 -0.47231,0.76906 -0.4531,1.00653 -0.4154,1.317 -0.45482,0.54975 -0.40148,0.1111 -0.5466,0.44045 -0.38122,0.67742 -0.2337,1.04225 -0.27099,0.84143 -0.32552,0.93298 -0.308,0.71368 -0.25339,0.65866 -0.8535,1.4282 -0.61719,1.09847 -0.61762,1.00712 -0.5456,0.67799 -0.985,0.44207 -0.54689,0.34912 -0.40032,0.43995 -0.10721,0.67638 v 0.82217 l 0.29573,0.93073 0.57028,1.09416 0.57071,1.16724 1.45209,2.42473 0.69771,0.94753 0.8804,0.92861 0.69613,0.50906 1.20848,0.72644 1.1356,0.7815 0.73332,0.67334 0.44109,0.72922 0.2222,0.80312 -0.19601,1.38925 -0.3796,1.11589 -0.39878,0.86016 -0.71221,0.11221 -1.1348,-0.58052 -1.3897,-0.30557 -1.7172,0.061 -0.34462,0.71377 -0.07,0.71284 -0.6944,-0.034 -1.02593,-0.76364 -0.86069,-0.54499 -1.1891,-0.43419 -1.31651,-0.28755 -1.13369,-0.23341 -1.15161,-0.16026 -1.0981,-0.50758 -1.26392,-0.89069 -1.00751,-0.72716 -0.82468,-0.70956 -0.4036,-0.4553 -1.07942,-0.37976 -0.82331,-0.32589 -0.36629,-0.23619 -0.78629,-0.17986 -0.87691,0.003 -0.8408,-0.0883 -0.64061,-0.3083 -0.4953,-0.54634 -0.60481,-0.52763 -0.9325,-0.17931 -0.8041,-0.0702 -0.6409,-0.39963 -0.6789,-0.78317 -0.53131,-0.40002 -2.06299,0.4277 -1.33271,0.29718 -0.94779,0.62463 -0.58233,0.62333 -0.4001,0.513 -0.6177,0.98886 -0.56208,1.15309 -0.5815,0.8791 -0.76513,0.62395 -1.0214,0.47873 -1.47749,0.68139 -1.56912,0.59034 -0.8214,0.20397 -0.78499,0.18555 -0.54632,0.49527 -0.6187,0.67827 -0.41899,0.34866 -1.0046,0.0767 -0.9868,-0.0512 -0.80409,-0.0519 z m 0,-3e-5 -0.19932,0.46662 -0.1543,0.28374 0.083,0.31943 0.092,0.17325 -0.19762,0.92337 -0.3551,0.33018 -0.20889,0.33875 0.0111,0.40193 0.17442,0.20947 0.50228,-0.0201 0.31052,-0.0285 0.32009,0.0902 0.21101,0.26416 0.1665,0.5475 0.01,0.23749 0.047,0.44744 0.083,0.33772 0.1387,0.48366 0.24852,0.48326 0.28379,0.18169 0.38381,0.0443 0.39259,-0.0654 0.3284,-0.12909 0.3011,-0.0924 0.32872,-0.0469 0.39238,-0.12933 0.35581,-0.12917 0.32869,-0.0378 0.33811,0.0262 0.41101,-0.0472 0.60158,-0.34933 0.3556,-0.19312 0.42881,-0.14772 0.39252,-0.0745 0.493,-0.11141 0.33739,-0.15653 0.46461,-0.33968 0.6472,-0.38602 0.30128,-0.0651 0.34642,-0.21135 0.7116,-0.24011 0.36561,0.0443 0.21058,0.13628 0.30231,0.22728 0.1469,0.20045 0.084,0.41077 0.065,0.35605 0.17489,0.36478 0.15589,0.16386 0.2757,0.44662 0.065,0.31038 0.10136,0.2554 0.16571,0.36481 0.34999,0.7661 0.028,0.28308 v 0.23752 l -0.01,0.36544 -0.0259,0.31071 0.019,0.32879 0.056,0.38349 -0.035,0.26504 -0.033,0.96845 0.0201,0.44757 -0.072,0.4022 -0.054,0.30168 -0.14499,0.30199 -0.191,0.24734 -0.10002,0.25614 0.056,0.31041 0.065,0.23728 0.01,0.35624 -0.099,0.38404 -0.15449,0.21979 -0.3828,0.22979 -0.23701,0.147 -0.13639,0.17407 -0.0259,0.33812 0.10149,0.27368 -0.10798,0.44802 -0.15401,0.35685 -0.1361,0.25627 -0.063,0.31997 -0.061,0.73104 -0.47252,0.69599 -0.32759,0.3392 -0.27252,0.4486 -0.2726,0.39381 -0.08,0.58497 0.038,0.30131 -0.0259,0.48426 0.0201,0.36534 -0.3166,0.869 -0.33647,0.43059 -0.12692,0.28366 v 0.28318 l 0.12041,0.4472 0.15732,0.5384 0.10147,0.29197 0.047,0.50226 -0.0169,0.46596 0.019,0.3836 0.047,0.43833 0.094,0.61172 0.074,0.33774 -0.21532,1.08787 -0.11747,0.35671 -0.19921,0.47575 -0.2177,0.43929 -0.53721,0.47699 -0.429,0.10205 -0.5389,0.0293 -0.4934,-0.0439 -0.37492,-0.0991 -0.2926,-0.072 -0.7679,-0.1251 -0.93239,-0.1702 -0.6489,-0.089 -0.3751,-0.16309 -0.36632,-0.24533 -0.36658,-0.30927 -0.3034,-0.53787 -0.3121,-0.40995 -0.32091,-0.33684 -0.29329,-0.26387 -0.2743,-0.063 -0.20992,0.0464 -0.17309,0.1468 -0.15449,0.20153 -0.14521,0.27458 -0.09,0.31092 -0.072,0.32914 -0.1448,0.37507 -0.09,0.40228 -0.09,0.44797 -0.17151,0.58526 -0.1896,0.61275 -0.08,0.60322 -0.099,0.42971 -0.1079,0.48456 -0.32512,1.04262 -0.4436,1.1161 -0.14459,0.42989 -0.18058,0.57619 -0.11652,0.63074 -0.081,0.39312 -0.1083,0.36579 0.056,0.23733 0.12121,0.68469 -0.1438,0.63088 -0.135,0.576 -0.2336,1.06968 -0.081,0.46617 -0.071,0.63061 -0.089,0.61238 -0.17121,0.64921 -0.17089,0.72232 -0.2998,0.47612 -0.15431,0.25635 -0.39748,1.22558 -0.22622,0.61289 -0.11679,0.53025 -0.31771,0.56756 -0.1533,0.53951 -0.10758,0.56679 -0.044,0.42953 -0.0259,0.35637 -0.096,1.20618 -0.12513,0.76783 -0.13398,0.85008 -0.08,0.7311 -0.13049,1.80012 -0.033,0.97759 -0.11631,0.69472 -0.06,1.16039 -0.15188,0.95062 -0.052,0.70361 -0.24471,0.53986 -0.15349,0.49387 0.1663,0.51096 0.366,0.16312 0.6395,0.0159 0.66611,-0.20341 0.67551,-0.14861 0.58449,-0.0478 0.89491,-0.0855 1.05929,-0.12261 0.977,-0.10403 1.13242,-0.12288 0.9765,-0.2776 1.15869,-0.38788 0.75751,-0.19457 0.82161,-0.16743 1.12268,-0.25985 0.49271,-0.16624 0.62982,-0.15759 0.39288,0.0259 0.41172,0.17209 0.32078,0.29117 0.17542,0.51094 0.102,0.41072 0.15639,0.31916 0.24731,0.1818 0.3747,0.0443 0.3473,0.0169 0.4295,0.0624 1.0531,0.69959 0.46709,0.31803 0.43971,0.34557 0.48541,0.33623 0.3755,0.27271 0.51279,0.33615 0.5216,0.24474 1.04392,0.67223 0.65,0.3813 0.53081,0.28128 0.46699,0.29982 0.4122,0.29991 1.36451,0.91774 0.56759,0.33591 0.71411,0.44508 1.025,0.50785 0.074,0.31033 -0.40021,0.47649 -0.4363,0.58626 -0.4726,0.66858 -0.42749,0.53142 -1.41021,1.59462 -1.3738,1.53975 -1.5381,1.57679 -1.32851,1.44817 -1.1734,1.41116 -1.23791,1.22863 -0.5365,0.6962 -0.39082,0.54041 -1.59158,1.95157 -1.53681,1.93308 -1.34631,1.59446 -0.9907,1.38301 -1.26379,1.65804 -1.36391,1.74983 -1.40981,1.7134 -1.4559,1.57655 -3.46772,1.02658 -1.21491,0.0135 -0.12079,1.96453 -0.17769,1.36179 -0.26212,0.78658 -0.27128,0.76836 -0.44532,0.64108 -0.89179,0.94417 0.05,1.09607 -0.5185,0.60479 -0.31869,0.26609 -0.22731,0.31141 -0.13599,0.29282 -0.19029,0.40264 -0.2907,0.44869 -0.1728,0.21989 0.5719,1.50525 0.075,0.54782 -0.0259,0.49342 -0.16021,1.1516 -0.2077,0.66766 -0.19031,0.43002 0.36682,0.39151 0.47599,0.26318 0.24759,0.23662 0.038,0.42008 v 0.57552 l -0.089,0.63979 -0.1166,0.57595 0.029,0.41098 -0.071,0.66715 -0.32409,1.32578 -0.71633,1.47339 -0.48178,0.65947 -0.1722,0.36603 0.3124,0.50131 0.48612,0.52808 0.29377,0.41915 0.40391,0.53753 0.37621,0.46453 0.39439,0.40966 0.24832,0.45588 0.25746,0.47408 0.98021,0.76383 0.86114,0.66373 0.38449,0.22699 0.13859,0.41974 0.029,0.49318 0.0201,0.52978 0.21201,0.51993 0.43141,0.58309 0.43079,0.39127 0.5682,0.50038 0.41262,0.41873 0.038,0.44747 -0.081,0.46619 -0.12658,0.37503 -0.34552,0.45799 -0.6382,0.34946 -0.6472,0.36778 -0.4467,0.25738 -0.26429,0.18368 -0.2548,0.27498 -0.20881,0.3479 -0.2816,0.44866 -0.52692,0.79666 -0.52699,0.78756 -0.40969,0.37603 -0.4741,0.26665 -0.20072,0.0738 -0.0249,0.5756 -0.01,0.45678 0.0201,0.53893 0.076,0.67572 0.038,0.49316 -0.054,0.34735 -0.34578,0.36666 -0.41903,0.32126 -1.25648,1.14647 -0.6373,0.61436 -0.32761,0.32094 -0.30091,0.18378 -0.43781,0.18431 -0.28218,0.27509 -0.1815,0.32951 -0.2734,0.1837 -0.5117,-0.0438 -0.5215,-0.20822 -0.357,-0.20881 -0.83291,-0.42636 -0.32851,0.0834 -0.2004,0.16515 -0.2273,0.30229 -0.099,0.39317 -0.062,0.45699 -0.19,0.52142 -0.37269,0.5129 -0.4372,0.33962 -1.11253,0.57041 -0.62939,0.23067 -0.82111,0.30446 -0.92059,0.56057 -0.37309,0.42159 0.067,0.96808 0.1212,0.66644 0.2041,0.85797 0.17569,0.61142 0.048,0.63932 0.0209,0.61198 0.066,0.58442 0.13988,0.77599 0.20421,0.91279 0.33009,0.33677 0.58582,0.29935 0.3941,0.36401 0.33909,0.2911 0.3756,0.30009 0.47609,0.29975 0.61291,0.21698 0.54822,0.0254 0.51888,-0.49517 0.15322,-0.58523 -0.57841,-0.80177 -0.73509,-1.16666 0.19108,-0.19254 0.90332,-0.31387 0.65688,-0.2399 0.54801,-0.0294 0.1026,0.60254 0.048,0.7398 0.057,0.52965 0.048,0.69411 0.17489,0.35563 0.95071,0.18838 0.5208,0.007 0.7396,-0.10316 0.327,-0.49448 0.042,-1.07816 0.052,-0.82235 0.20846,-0.45749 0.347,-0.0287 0.5116,-0.003 0.36643,0.28186 0.35851,0.61074 0.49601,0.75647 0.38627,0.71112 -0.13518,0.51208 -0.21608,0.43132 -0.48194,0.61384 -0.32639,0.67715 v 0.55729 l -0.14463,0.42074 0.066,0.47477 0.36701,0.41889 0.5401,0.29954 0.2395,0.54724 -0.053,0.63966 0.29329,0.28212 0.8233,0.31676 0.41194,0.22688 1.10818,0.76336 0.38378,0.0443 0.63162,0.35399 0.15711,0.48361 0.35808,0.51033 0.3668,0.39148 0.19312,0.34642 0.38539,0.47368 0.39471,0.50099 0.32988,0.29112 0.45802,0.35457 0.43151,0.56484 0.56769,0.37251 0.68549,0.10718 0.90321,-0.32301 0.6105,-0.43159 0.83831,-0.606 0.7747,-0.47781 0.52959,-0.084 0.58521,0.1532 0.45781,0.2907 2.40671,1.14231 1.11459,0.033 0.60492,0.5276 0.64219,0.7651 1.2077,0.4889 1.73631,0.1764 0.8043,0.1067 1.26181,0.32431 2.8882,0.40968 1.82722,0.03 3.34101,-0.6881 0.9289,-0.78899 0.1238,-1.13322 -0.18439,-0.4744 -2.62973,0.35672 -1.99002,0.39089 -1.64338,0.2617 -0.78643,-0.19809 0.14251,-1.02362 0.19754,-0.95079 0.25199,-1.0423 -0.096,-1.37004 0.23482,-0.74994 0.60118,-0.47723 1.13041,-0.64358 1.64119,-0.86466 1.7144,-0.82838 1.69562,-0.99278 4.21252,-2.18943 3.55479,-2.18713 2.44301,-1.45223 2.22524,-1.04949 1.4242,-0.26096 1.64407,-0.0608 1.75293,-0.29868 1.5694,-0.51727 2.1157,-1.01256 1.87781,-1.10305 1.5513,-0.48065 2.51723,-1.12363 1.11419,-0.0954 1.07911,0.30668 1.06069,0.2885 1.2422,-0.0411 0.93062,-0.35052 0.54708,-0.27601 1.3335,-0.0596 1.24262,0.0503 2.9053,0.0808 0.20341,0.67528 0.31491,1.16816 0.1157,1.68045 0.54049,2.9579 0.3342,1.4604 0.042,1.53458 -0.15952,1.37087 -0.2708,0.89625 -0.17971,0.8228 0.18542,0.73018 0.62238,0.32662 0.80241,-0.40489 1.25892,-0.49784 1.16851,-0.20524 1.40708,0.068 1.51821,0.48776 1.04331,0.50782 0.78701,0.38084 1.6088,0.26821 1.0966,0.10565 1.31501,-0.13266 1.186,-0.42456 1.07521,-0.77123 0.9112,-0.64281 4.86232,-4.38429 3.2778,-2.98996 1.13671,1.05553 0.8822,1.45847 1.2496,1.98695 2.16721,3.09814 3.58382,5.79699 0.89358,-0.4417 0.69163,-0.73335 5.15899,-3.1795 5.77862,-3.63851 3.57242,-2.36988 0.27411,0.0172 -0.0101,3.45314 2.4754,2.4393 3.11611,2.80235 3.11583,2.71095 4.6145,2.83351 1.44651,0.8717 0.16568,0.34661 -0.77068,4.11357 0.2386,0.29154 2.52199,0.1918 5.73553,-0.38624 0.29281,0.12684 0.40008,4.52968 -0.11348,3.9468 0.16629,0.51105 4.29391,0.11229 3.25391,0.46318 1.9194,0.28543 3.96572,0.27787 3.30762,0.17074 0.4731,-0.53153 1.61161,-3.98879 1.4314,-3.29391 0.088,-1.0418 -1.61071,-5.84073 -1.44539,-5.58555 -1.29673,-4.89177 -0.24199,-1.24153 0.047,-2.24741 3.92323,-1.348 1.5511,-0.53546 1.3512,-0.22419 2.3884,-1.37893 1.11332,-0.3329 2.08,-0.79317 2.07849,-1.19513 1.25821,-0.66233 1.00322,-0.47866 0.92949,-0.62455 0.6559,-0.51396 1.1307,-0.55224 1.62471,-0.38954 1.13231,-0.11375 0.60211,-0.25797 2.7801,0.83037 1.6251,4.76268 1.64362,4.83578 1.67731,4.06822 0.46278,1.64269 0.46191,1.42339 0.1383,2.88627 0.64061,0.30824 2.15459,-0.3732 3.61462,-0.81704 4.12582,-0.91017 4.07121,-0.85521 3.1763,-0.7606 1.22151,-0.73531 1.07979,0.4894 0.77711,0.189 0.77722,0.18902 1.40989,0.83537 1.5562,0.88964 0.62241,0.34478 0.18529,0.71189 0.3661,0.18139 1.186,-0.44278 3.11643,-2.14892 0.45699,0.071 0.16521,0.2004 -0.14401,0.5851 -0.4516,1.42682 -0.66979,1.7198 -0.50332,2.26741 -0.10488,1.3158 0.18719,1.2418 0.36769,0.6381 0.54931,0.30861 5.55481,0.16261 5.24483,0.32808 2.6315,0.15492 1.55202,-0.298 3.83279,-1.09192 3.46823,-0.87119 3.63141,-1.2191 2.8641,-1.21621 0.56751,0.3085 0.294,0.4557 0.057,0.52969 -0.2164,0.7864 -0.071,0.4205 0.0201,0.49321 0.2023,0.3646 0.4217,0.4005 0.2204,0.32811 0.075,0.5478 -0.035,0.3655 0.096,1.18732 0.8061,0.6182 0.73139,0.14348 0.5483,0.053 0.47691,0.5098 1.5425,2.16861 1.52562,2.51582 -0.071,0.63969 -0.054,0.14639 -0.21839,0.22001 -0.072,0.38401 0.18439,0.49261 0.2567,0.25479 0.2753,0.3279 -0.071,0.5484 -0.2173,0.54891 -0.2173,0.51239 -0.0161,0.54812 0.32943,0.12668 0.60177,-0.29448 0.85702,-0.45982 1.56829,-0.8462 1.5312,-0.9556 1.64061,-1.0291 1.33102,-0.77221 1.38549,-0.84551 1.71361,-1.02928 0.7303,-0.1488 0.477,0.52808 2.07841,3.81102 4.80101,-1.13189 0.112,5.6817 2.1208,0.39421 0.04,0.84029 v 0.60301 l 0.221,0.4925 0.076,0.73052 -0.089,0.76769 -0.36311,0.6408 -0.50991,0.4586 -0.69249,0.49581 -0.9297,0.58801 -0.5102,0.3673 -0.3814,0.62259 -0.7629,1.2269 -0.2903,0.5674 -0.15912,1.46223 -0.30089,2.6869 -0.031,1.60791 0.13732,2.5939 -0.087,1.07831 -0.19809,0.78629 -0.2368,0.2018 -0.3088,0.49451 -0.0159,0.62119 0.16981,1.47932 0.60691,1.09411 0.88069,1.01989 0.78841,0.76449 0.44119,0.7475 0.51441,0.7838 0.73099,0.052 0.36621,0.21788 0.404,0.54671 0.51292,0.36351 0.76819,0.23479 0.89541,0.033 0.6386,-0.22159 0.23648,-0.2749 -0.04,-0.84032 -0.11301,-0.9497 0.033,-0.8771 0.25282,-0.82296 0.34388,-0.89662 0.32602,-0.80503 0.41748,-0.7507 0.50991,-0.44027 0.36391,-0.43979 0.3443,-0.76864 0.14219,-1.09681 0.1056,-1.0966 0.14351,-0.73131 0.38179,-0.5312 0.29221,-0.038 0.39981,-0.58611 0.12618,-0.47548 0.5284,-0.3856 0.47422,-0.23932 0.4005,-0.3851 0.071,-0.67628 0.0161,-0.52991 0.3441,-0.82341 0.38182,-0.53121 0.61939,-0.47728 0.2912,-0.32991 0.32801,-0.23871 -0.057,-0.7489 -0.0209,-0.80389 0.1429,-0.8957 0.25289,-0.78661 0.36261,-0.78689 0.3637,-0.47642 0.58309,-0.4223 0.34631,-0.2205 0.2363,-0.34801 0.199,-0.5488 0.25339,-0.64041 0.43722,-0.367 0.60238,-0.14838 0.62061,-0.1484 0.98409,-0.69782 0.54603,-0.58669 0.7107,-0.49591 0.6387,-0.22151 0.73039,-0.11229 0.7126,0.0161 0.54941,0.34521 0.4217,0.40039 0.54991,0.49131 0.38539,0.4736 0.71271,0.052 0.56571,-0.20309 0.71199,-0.1487 0.54899,0.25379 0.1833,0.1637 0.54822,0.035 0.2544,-0.38459 v -0.018 l -0.0209,-0.63942 0.1075,-0.58499 0.4363,-0.6045 0.49091,-0.67781 0.7089,-0.9892 1.18081,-1.86791 0.38108,-0.7139 0.34422,-0.80511 0.19839,-0.7316 -0.22109,-0.5108 -0.2559,-0.036 -0.38331,0.1293 -0.53051,-0.19902 -0.059,-1.02299 0.36269,-0.75041 0.2711,-0.78661 0.14401,-0.6217 -0.47541,-0.09 -0.43802,0.1478 -0.34628,0.2205 -0.56571,0.18479 -0.76841,-0.28959 -0.5861,-0.38151 -1.5393,-1.2551 -0.36529,0.0201 -0.47471,0.093 -0.64019,-0.21688 -0.25752,-0.4558 -0.16608,-0.4562 0.126,-0.53033 0.2549,-0.2567 0.4015,-0.12928 0.40281,0.23601 0.45709,0.09 0.52869,-0.29419 0.4735,-0.42201 0.56441,-0.56841 0.54589,-0.60489 1.34653,-1.50311 0.34419,-0.82341 0.692,-0.6237 0.6205,-0.185 0.7284,-0.67861 0.47159,-0.95178 0.38222,-0.385 0.6208,-0.1302 0.45609,-0.16611 0.52821,-0.47691 0.3628,-0.7139 0.62061,-0.14841 0.8032,-0.20389 0.72879,-0.55081 0.63591,-0.98888 0.601,-0.53203 0.4373,-0.33049 0.34499,-0.58589 0.58312,-0.44062 0.58431,-0.075 0.32988,0.27289 0.40312,0.32737 0.56619,-0.057 0.4563,-0.12951 0.54869,0.1624 0.56783,0.39992 0.65799,0.071 0.7474,-0.4777 0.5279,-0.53179 0.87551,-0.40511 0.74901,-0.039 0.5484,0.089 0.8213,-0.24051 0.30858,-0.54922 0.40061,-0.38518 0.32782,-0.27522 0.19878,-0.62193 0.10761,-0.54849 0.12499,-0.78608 0.1796,-0.85939 0.19761,-0.9325 0.40101,-0.27551 0.76668,-0.16725 0.52891,-0.23939 0.053,-0.56661 -0.22188,-0.74827 -0.22212,-0.78486 -0.53149,-0.41828 -1.02561,-0.70883 -0.2412,-1.02227 -0.12948,-0.43802 -0.69803,-1.02061 -0.80788,-1.11157 -0.5162,-1.27709 0.032,-1.11461 0.12441,-0.95055 0.63249,-1.93893 0.65381,-1.06209 0.63569,-1.04373 0.76312,-1.19036 0.4354,-0.80548 0.51009,-0.42204 0.96793,-0.11316 0.47498,-0.0201 0.4553,-0.42185 0.12581,-0.54859 0.0169,-0.38375 -0.0201,-0.47493 -0.65791,-0.0524 -0.38471,-0.29091 -0.13028,-0.65728 0.32139,-2.04746 0.071,-0.58491 0.38272,-0.27546 0.6032,0.0709 0.45648,-0.0565 0.3252,-1.02431 0.10473,-1.35242 0.32477,-1.11567 0.28832,-1.11557 1.11091,-0.99063 1.20291,-0.80822 0.56438,-0.56846 0.91271,-0.20429 1.88191,-0.007 0.5842,-0.13001 0.053,-0.62141 -0.22151,-0.62039 -0.5869,-0.61908 0.1983,-0.73152 0.2535,-0.6404 -0.2586,-0.7847 -0.4227,-0.67448 -0.53169,-0.50964 -1.04291,-0.39818 -0.69519,-0.27151 -0.8046,-0.17981 -0.98693,-0.0878 -0.932,-0.0514 -0.8223,-0.0518 -0.93189,-0.0148 -0.8772,-0.0699 -1.02431,-0.30689 -0.73182,-0.27141 -0.25728,-0.41929 -0.31181,-0.32774 -0.43889,-0.10803 -0.38341,0.0562 -0.58381,0.23964 -0.32919,-0.0901 -1.53649,-0.46948 -0.84302,-0.70949 -0.93549,-1.01976 -0.89901,-1.03814 -0.7157,-0.85612 -0.6427,-0.89294 -0.97422,-1.62254 -0.73579,-1.36764 -0.5716,-1.44129 -0.4788,-1.03968 -0.73181,-0.28967 -1.51652,0.006 -0.82468,-0.70956 -1.20902,-0.87262 -1.40949,-0.7257 -0.6786,-0.7101 -0.66022,-0.69186 -0.40418,-0.61973 -0.69501,-0.18021 -0.4935,-0.053 -0.3275,0.36658 0.13049,0.71208 0.36711,0.47371 1.065,1.47606 0.31261,0.5287 0.18489,0.6205 0.094,0.71226 0.0209,0.63939 0.0209,0.76724 0.20291,0.52915 0.3483,0.32758 0.3297,0.23635 0.18449,0.49263 0.1483,0.58412 v 1.16931 l -0.17769,1.37094 -0.2535,0.62212 -1.11461,-0.0143 -0.84069,-0.0883 -1.11541,-0.2335 -0.4445,-1.661 -0.058,-0.8585 -0.01,-1.49815 -0.2049,-1.07723 -0.4242,-1.11297 -0.51571,-1.14915 -0.36689,-0.40066 -2.21272,-0.54004 -1.22489,-0.21484 -1.49911,-0.25035 -0.9334,-0.43511 -0.84331,-0.78256 -0.7334,-0.72816 -0.5692,-0.78357 -0.60521,-0.61902 -0.8609,-0.59981 -1.15391,-0.78142 -1.1725,-0.87276 -0.6962,-0.54557 -1.0803,-0.63556 -0.7687,-0.3809 -0.7674,0.003 -0.67572,0.0938 -0.9134,0.0217 -0.8228,-0.1797 -0.64119,-0.47271 -1.15391,-0.79973 -0.73321,-0.65508 -0.678,-0.54566 -0.69559,-0.34462 -0.8236,-0.39896 -1.51871,-0.63395 -0.6767,-0.18026 -0.67612,-0.0159 -1.44439,-0.30536 -0.60241,0.14835 -0.41939,0.23903 -0.61992,0.34938 -0.67408,0.53229 -0.49141,0.51337 -0.78431,0.36825 -0.6748,0.3496 -0.82111,0.29533 -0.38298,0.18407 -0.49282,0.1297 -0.5103,0.36724 -0.8562,0.67913 -0.69289,0.38619 -0.47472,0.0931 -0.3837,-0.0169 -0.31088,-0.072 -0.27271,0.36642 -0.23151,1.66345 -0.034,0.7675 0.077,1.1873 -0.69369,0.18521 -1.44492,-0.43323 -0.16799,-1.02254 -0.56801,-0.3999 -0.42068,-0.14464 -0.6032,-0.0709 -0.58373,0.2762 -0.601,0.51374 -0.89491,0.0946 -0.78708,-0.38082 -0.093,-0.38336 0.6182,-0.82441 0.5819,-0.75119 0.5457,-0.69628 0.27181,-0.60391 -0.093,-0.52951 -0.62212,-0.25353 -0.29329,-0.30953 0.052,-0.71274 0.0161,-0.76743 0.16161,-0.78621 0.14169,-1.22463 0.035,-0.49344 0.87231,-1.2821 0.92649,-1.465 1.47302,-1.88723 1.45519,-1.79578 1.85452,-2.49151 0.9628,-1.53824 v -0.20095 l -0.53031,-0.12597 -0.512,-0.0895 -0.42039,-0.0716 -0.018,-0.0365 -0.80502,-0.30772 -0.40378,-0.49181 0.053,-0.6214 0.3991,-0.78708 0.54399,-1.13472 0.26982,-1.18857 0.234,-0.95094 0.23339,-1.13361 0.269,-1.38957 0.1424,-1.04193 0.28739,-1.35303 0.34351,-1.00614 0.34401,-0.85995 0.65271,-1.40923 0.77949,-1.68373 0.7987,-1.42796 1.70982,-2.10736 1.6382,-1.70509 1.0559,-1.04524 1.3116,-1.06447 1.65841,-1.15706 1.4763,-0.99195 2.22341,-1.54282 0.83841,-0.55113 0.673,-0.84288 -0.3524,-1.46035 -0.42601,-1.58803 -0.42161,-0.38214 -2.33861,0.0267 -1.69889,0.061 -1.7906,-0.03 -1.99372,-0.61397 -1.20651,-0.16007 -1.73588,-0.0668 -1.60711,0.18857 -1.91731,0.31755 -1.3158,-0.10485 -0.4417,-0.87541 0.1597,-1.29776 -0.097,-1.57091 -0.2422,-1.29636 -0.022,-1.00478 0.1084,-0.31102 1.0046,-0.095 1.2242,0.0321 1.498,-0.0602 0.71231,-0.0757 0.9838,-0.78921 0.81641,-1.55596 0.2522,-1.00579 -1.0069,-0.56275 -1.18881,-0.32454 -1.44431,-0.26884 -3.29039,-0.48136 -2.83333,-0.35515 -3.4936,-1.08352 -6.63847,-1.71165 -6.8038,-1.9851 -0.094,-0.80354 0.38079,-0.78703 0.30631,-1.18867 0.087,-1.15137 -0.29808,-1.60671 -0.8287,-1.80579 -0.33081,-0.51038 -0.22278,-1.00407 -0.06,-1.33356 -0.24458,-1.95403 -0.2622,-1.77129 0.0159,-0.73091 -0.0209,-0.74899 -0.3325,-0.98544 -0.33351,-1.29596 -0.459,-0.61958 -0.71322,-0.16182 -1.35409,-0.57973 -0.2577,-0.54721 -0.27559,-0.41921 -0.51311,-0.4001 -0.6577,0.003 -1.68022,0.18881 -0.80399,-0.0336 -0.6222,-0.27181 -0.24021,-0.74822 -0.99381,-1.98787 -0.9189,-1.47659 -0.77229,-1.34922 -1.156,-1.3661 -1.57642,-1.43765 -1.484,-1.10914 -1.61211,-1.19999 -1.8134,-1.2541 -1.62841,-0.65183 -1.8114,-0.70599 -2.7626,-1.04966 -2.70741,-0.94026 -3.60292,-0.99182 -2.06429,0.0806 -5.84482,0.47795 -1.95332,-4.57881 -1.566,-3.57536 -1.25291,-2.90047 -1.11451,-0.0143 0.10232,-1.99187 0.2317,-1.60865 0.52379,-1.66452 1.0858,-2.89069 0.92261,-2.54295 0.48961,-1.00666 0.98399,-0.71612 0.1207,-1.97367 0.15471,-2.7046 0.25259,-0.85964 0.85652,-0.62428 1.51368,-0.7546 1.42283,-0.62635 1.67879,-0.59076 0.4917,-0.44027 0.32411,-1.29839 0.288,-1.2069 1.53121,-6.01657 0.4514,-1.46328 0.171,-3.23452 -1.62602,0.0241 -0.16518,-0.20037 -0.076,-0.93152 -0.056,-0.3652 -0.47551,-0.14449 -0.87609,0.24074 -1.38692,0.46178 -0.91218,0.3687 -2.14472,-1.94715 -1.77711,-1.32729 -2.47129,-1.3248 -3.27891,-2.34501 -1.61132,-0.96248 -2.7729,-3.88161 0.69718,-4.20471 0.85792,-5.26504 -0.34761,-0.14492 -0.67541,0.18516 -1.7317,1.08424 -2.6264,1.27021 -0.39949,0.65916 -0.61971,0.42246 -0.42281,-0.71099 -0.332,-0.85749 0.069,-0.98687 0.65336,-1.20822 0.74444,-1.29993 0.6173,-1.06191 0.52591,-1.07987 -0.20222,-0.34642 -0.7116,0.25836 -0.38209,0.4399 -0.34721,-0.0169 -0.38449,-0.21786 -0.52933,0.1298 -0.50988,0.45863 -0.83619,1.19061 -0.81765,1.24537 -1.43698,1.77745 -0.96309,1.42859 -1.0051,-0.0511 -0.8064,-0.70964 -0.8056,-0.45387 -0.89472,0.1677 -0.72843,0.64209 -0.72607,1.31813 -0.8554,0.91663 -1.5484,1.26627 -0.30779,0.75026 1.2255,0.39745 0.87998,0.83728 1.06302,0.89141 0.9538,1.03796 1.06339,1.01929 0.60391,0.27186 1.02371,0.16071 2.08391,0.28477 1.6086,0.21341 1.11601,0.41617 0.42371,0.94853 0.039,0.7307 -0.50922,0.65959 -0.7842,0.40478 -0.60151,0.38587 -0.52811,0.47694 -1.733,0.75542 -0.71131,0.3497 -0.78359,0.55094 -0.80063,0.89816 -0.60008,0.78782 -0.91279,0.20432 -0.93221,-0.10623 -2.2487,-0.39384 -0.45791,-0.32721 -0.1478,-0.45622 -0.34809,-0.25453 -1.1335,-0.19685 -0.51142,0.0384 -1.89831,0.51845 -0.84008,0.0944 -1.02151,0.46043 -0.19841,0.71329 -0.052,0.74928 v 0.65773 l -0.1619,0.6949 -0.51041,0.33068 -0.4562,0.16613 -0.7665,0.22201 -0.82161,0.14912 -0.5106,0.27591 -0.37319,2.88812 0.1134,1.05927 0.24008,0.69342 0.038,0.4749 -0.21731,0.51234 -0.51101,0.1846 -1.04157,-0.051 -0.63952,-0.0159 -0.98651,0.0401 -0.52869,0.29427 -0.34573,0.4032 -0.61918,0.55036 -1.31662,-0.30583 -0.66056,-0.8015 -0.84313,-0.70949 -1.74072,-1.40052 -0.60656,-1.00269 -0.0209,-0.73073 -0.27642,-0.63847 -0.56838,-0.56433 -0.6219,-0.19873 -1.0958,0.11361 -0.52922,0.20288 -0.94981,0.0583 -0.76991,-0.69146 -1.17388,-1.27469 -1.02712,-1.07424 -1.41068,-1.07283 -0.65852,-0.21688 -0.43749,0.27567 -0.25504,0.20188 -0.5665,-0.0161 -0.38248,0.33025 -0.2721,0.53084 -0.30829,0.62232 -0.23511,0.67686 -0.19841,0.71327 -0.48978,0.95184 -0.38243,0.36679 -0.18147,0.31129 -0.053,0.45693 v 0.63948 l 0.057,0.52964 -0.14369,0.67652 -0.30851,0.58579 -0.09,0.29265 -0.23582,0.47588 -0.54619,0.53185 -0.5285,0.36732 -0.547,0.29429 -0.67602,0.0206 -0.4024,-0.12647 -0.34679,0.0743 -0.273,0.31158 -0.035,0.3838 v 0.36542 l -0.38229,0.38508 -0.51031,0.3307 -0.47389,0.31232 -0.62072,0.13014 -0.50998,0.44035 -0.43691,0.45837 -0.3084,0.58576 0.076,0.71229 -0.053,0.43868 0.075,0.45648 0.11129,0.47464 0.039,0.5297 -0.2716,0.67699 -1.5135,0.82767 -0.6208,0.1119 -0.85802,0.18581 -0.23579,0.47588 -0.14478,0.38421 -0.85752,0.33197 -0.67591,0.0206 -0.65669,0.2947 -0.60201,0.25797 -0.58399,0.18483 -0.71142,0.29491 -0.74779,0.36811 -0.45519,0.42188 -0.67511,0.25824 -1.1328,0.004 -0.6033,-0.12571 -0.51142,0.0749 -0.4564,0.093 -0.6217,-0.14388 -0.62169,-0.14393 -0.78581,-0.0337 -0.58479,-0.0527 -0.60312,-0.0526 -0.9134,0.0581 -0.78481,0.20383 -0.4014,0.16587 -0.913,0.13121 -0.94999,0.0217 -0.8586,0.0214 -0.67651,-0.12544 -0.86019,-0.39881 -0.98862,-0.54454 -0.7324,-0.43582 -0.67709,-0.30816 -0.7864,-0.21641 -0.5488,-0.18071 -0.80452,-0.16147 -0.78619,-0.16164 -0.80492,-0.27112 -0.6581,-0.10721 -0.8042,-0.0884 -0.8232,-0.27106 -0.67691,-0.25334 -1.3361,-0.63461 -0.7865,-0.25294 -1.00489,0.004 -0.91322,0.0764 -0.96779,0.1497 -1.0776,0.0953 -0.58431,0.0934 -0.0191,-0.23743 0.4735,-0.42194 0.9307,-0.29572 1.0585,-0.33269 0.6373,-0.60524 0.12481,-0.8409 -0.13042,-0.69382 -0.25839,-0.72988 -0.6068,-1.07577 -0.56949,-0.83836 -0.5148,-0.91168 -0.058,-0.89504 0.38183,-0.51297 -0.04,-0.98645 0.053,-0.4935 0.45453,-0.64112 0.43508,-0.91511 0.28842,-1.09726 -0.2413,-1.04056 -0.552,-1.0577 -0.55229,-1.16729 -0.64374,-1.167 -1.10572,-2.59039 -1.39701,-2.35183 1.00212,-0.771 2.38753,-1.61648 1.07492,-0.84434 0.23617,-0.36626 -0.60632,-0.92962 -0.60595,-0.83823 -0.82222,-0.0154 -1.205,0.2236 -1.6074,0.11546 -1.46183,-0.0495 -1.97398,-0.1938 -0.95055,-0.12446 -1.02375,-0.179 -0.7674,-0.0156 -0.96902,-0.19745 -0.9144,-0.23421 -0.69511,-0.21673 -0.31012,0.12902 -0.14457,0.42074 -0.089,0.54845 -0.14189,1.16984 0.0241,1.57118 -0.014,1.11456 -0.12351,1.20629 0.331,0.58346 0.8409,0.12483 0.47561,0.16272 0.18651,1.04074 -0.50221,2.57798 v 1.40682 l -0.13959,1.80928 -0.12282,1.40727 -0.051,0.96854 -0.41871,0.44 -0.69361,0.16695 -1.37017,0.0415 -1.15049,0.15034 -0.74862,0.13062 -0.89461,0.18595 -1.2777,0.35179 -1.24233,0.005 -1.53499,-0.0675 -0.84121,-0.21619 -0.7315,-0.1801 -0.3637,0.4581 v 0.4385 l 0.20479,1.04066 1.06662,1.91453 0.095,0.89493 v 1.09625 l -0.049,1.49834 -0.1052,1.2245 -0.087,1.27926 -0.07,0.96862 -0.16248,0.51213 -0.78611,-0.12505 -0.62251,-0.36314 -0.96899,-0.17917 -0.85871,0.003 -0.65731,0.13028 -0.94909,0.25921 -1.97242,0.22638 -1.04191,-0.14235 -0.914,-0.12459 -1.0612,-0.39809 -0.84161,-0.3441 -2.35509,0.52012 -1.133,-0.0872 -0.93192,-0.0148 -1.7897,0.20746 -1.0958,0.13187 -1.02389,-0.21553 -1.00622,-0.34348 -0.95009,-0.0148 -0.84043,0.003 -0.49329,0.003 -0.30779,0.76846 -0.0161,0.60298 -0.1066,0.84085 -0.32409,1.31668 -0.47231,0.76904 -0.4531,1.00653 -0.41539,1.31699 -0.45482,0.54976 -0.40148,0.1111 -0.54661,0.44045 -0.38121,0.67741 -0.23371,1.04225 -0.27099,0.84143 -0.32551,0.93298 -0.30801,0.71369 -0.25339,0.65866 -0.85349,1.42822 -0.6172,1.09845 -0.61762,1.00711 -0.5456,0.678 -0.98499,0.44207 -0.5469,0.34912 -0.40031,0.43995 -0.10721,0.67638 v 0.82217 l 0.29572,0.93075 0.57029,1.09414 0.57071,1.16724 1.45209,2.42472 0.69771,0.94753 0.8804,0.92861 0.69612,0.50906 1.20849,0.72645 1.13559,0.7815 0.73333,0.67334 0.44108,0.72922 0.2222,0.80314 -0.196,1.38923 -0.3796,1.11588 -0.39878,0.86017 -0.71221,0.11221 -1.1348,-0.58053 -1.3897,-0.30557 -1.71721,0.061 -0.34462,0.71375 -0.07,0.71284 -0.6944,-0.034 -1.02592,-0.76364 -0.8607,-0.54497 -1.18909,-0.43421 -1.31652,-0.28752 -1.13371,-0.23342 -1.15158,-0.16026 -1.0981,-0.5076 -1.26392,-0.89067 -1.00754,-0.72716 -0.82468,-0.70956 -0.40357,-0.45529 -1.07943,-0.37976 -0.82333,-0.32589 -0.36626,-0.23619 -0.78629,-0.17987 -0.87692,0.003 -0.84082,-0.0883 -0.64058,-0.30829 -0.4953,-0.54634 -0.60484,-0.52764 -0.93248,-0.17931 -0.80412,-0.0702 -0.6409,-0.39962 -0.67887,-0.78315 -0.53131,-0.40005 -2.06302,0.4277 -1.33268,0.29718 -0.9478,0.62463 -0.58232,0.62334 -0.40013,0.513 -0.61767,0.98888 -0.56209,1.15309 -0.5815,0.87908 -0.76515,0.62394 -1.02137,0.47874 -1.4775,0.68138 -1.56911,0.59034 -0.8214,0.204 -0.785,0.18552 -0.54631,0.49528 -0.61873,0.67826 -0.41897,0.34867 -1.00462,0.0767 -0.9868,-0.0512 -0.80407,-0.0519 z"
fill="#3333"        id="path6299" />
  </g>
</svg>
