<?xml version="1.0" encoding="UTF-8" standalone="no"?>
<!-- Created with Inkscape (http://www.inkscape.org/) -->

<svg
   width="1022.6478"
   height="1992.6124"
   viewBox="0 0 270.57547 527.21369"
   version="1.1"
   id="svg5"
   inkscape:version="1.1.2 (0a00cf5339, 2022-02-04, custom)"
   sodipodi:docname="Bremen_silhouette.svg"
   xmlns:inkscape="http://www.inkscape.org/namespaces/inkscape"
   xmlns:sodipodi="http://sodipodi.sourceforge.net/DTD/sodipodi-0.dtd"
   xmlns="http://www.w3.org/2000/svg"
   xmlns:svg="http://www.w3.org/2000/svg">
  <sodipodi:namedview
     id="namedview7"
     pagecolor="#ffffff"
     bordercolor="#666666"
     borderopacity="1.0"
     inkscape:pageshadow="2"
     inkscape:pageopacity="1"
     inkscape:pagecheckerboard="0"
     inkscape:document-units="cm"
     showgrid="false"
     inkscape:zoom="0.0916465"
     inkscape:cx="49.101711"
     inkscape:cy="1102.0606"
     inkscape:window-width="1920"
     inkscape:window-height="1009"
     inkscape:window-x="-8"
     inkscape:window-y="-8"
     inkscape:window-maximized="1"
     inkscape:current-layer="layer1"
     units="px"
     fit-margin-left="10"
     fit-margin-top="10"
     fit-margin-right="10"
     fit-margin-bottom="10" />
  <defs
     id="defs2" />
  <g
     inkscape:label="Ebene 1"
     inkscape:groupmode="layer"
     id="layer1"
     transform="translate(-545.9543,-377.54396)">
    <path
       d="m 566.41119,739.97547 -1.35602,0.9756 -1.43849,-1.14099 -0.99233,-0.84331 -0.8269,-0.81032 -0.7606,-1.0749 -0.4631,-0.8268 -0.69448,-1.75289 -0.29761,-1.14102 -0.41352,-0.47948 -0.66138,-0.0159 -0.4464,-0.77729 -0.2812,-0.74412 -0.44652,-0.463 -0.46289,-0.3638 -0.51271,-0.66151 -0.23159,-0.74409 -0.066,-0.4961 -0.215,-0.8268 -0.74409,-1.0088 -0.52922,-0.99222 -0.05,-0.89289 -0.6449,-1.32292 -0.7607,-0.72758 -0.90951,-1.37261 -0.77722,-1.12441 -0.8268,-0.90961 -0.7276,-0.81018 -0.3473,-0.67803 -0.16539,-0.74419 -0.1819,-0.8599 -0.26461,-0.66141 0.76071,-0.38039 0.66151,-0.31419 0.74409,-0.21493 0.678,-0.26458 0.74422,-0.23151 0.33068,0.05 0.083,0.42989 0.5126,0.43 0.19852,-0.05 1.2237,-0.43 1.52131,-0.41339 1.3394,-0.033 0.9593,-0.36378 0.81011,-0.34721 0.7112,-0.33081 0.34719,0.0159 0.34721,0.18191 0.2812,0.38039 0.43,0.24802 0.52909,0.11578 0.47961,-0.033 0.49599,-0.13229 0.61191,0.0159 0.6449,0.099 0.46302,0.1157 0.64489,-0.05 0.47959,-0.11578 0.47972,-0.1488 0.71088,-0.34732 0.3969,-0.05 0.29782,0.47969 0.0161,0.463 0.0159,0.5457 0.2976,0.49602 0.36381,0.099 0.31411,-0.033 0.2811,-0.066 0.14898,0.29779 v 0.3802 l -0.11588,0.39691 -0.13222,0.52919 -0.066,0.5787 0.21479,0.2481 0.41352,0.099 0.36378,-0.033 0.31422,0.0159 0.1488,0.215 0.066,0.38031 0.05,0.84339 0.4961,0.14881 0.3969,-0.16529 0.3307,-0.19852 0.3142,0.19852 0.3638,0.8268 0.31419,0.4795 0.54571,1.5048 0.26461,0.678 0.29771,0.8269 0.28109,0.52912 0.39691,0.215 0.4464,0.066 h 0.51269 l 0.42989,-0.05 0.85993,0.066 0.43,0.36381 0.3307,0.52919 0.6118,0.13229 0.4631,-0.26458 0.1819,-0.13232 0.16529,-0.066 0.3638,-0.1819 0.3804,0.0161 0.38031,0.41349 0.34729,0.46311 0.26461,0.3802 0.2149,0.51261 0.3638,0.2481 0.59532,0.083 0.36377,-0.066 0.39691,0.11581 0.59531,0.38029 0.29771,0.41341 0.56219,0.678 0.6449,0.678 0.7607,0.89302 0.463,0.59529 0.33081,0.24799 0.46299,0.13232 0.39691,-0.05 0.38031,-0.23141 0.52919,-0.3969 0.69451,-0.69461 0.62839,-0.47959 0.6118,-0.52912 0.74422,-0.64479 0.77719,-0.62849 0.62841,-0.44651 0.7937,-0.41342 0.79381,-0.066 0.34718,0.16549 0.34732,0.19831 0.463,0.2812 0.3638,0.16539 0.41339,0.066 0.62841,-0.14891 0.54571,-0.34719 0.5788,-0.44651 0.41339,-0.47961 0.33081,-0.41339 0.28109,-0.463 0.1819,-0.52922 0.23152,-0.3307 0.41338,-0.38029 0.44651,-0.215 0.463,-0.05 3.55532,1.0251 1.55449,0.4962 0.59531,0.31412 0.87641,0.52919 0.62839,0.23148 0.5788,0.19842 0.66141,0.1819 0.56229,0.1324 0.463,0.2976 0.3969,0.6118 0.099,0.41349 v 0.52912 l -0.13229,0.5624 -0.5126,0.74401 -0.11581,0.41349 -0.215,0.1983 -0.54571,0.3804 v 0.3969 l 0.033,0.41341 -0.26461,0.5954 -0.3638,0.4794 -0.54571,0.4631 -0.52919,0.2481 -0.81021,0.2314 -0.3804,0.3142 -0.3307,0.31419 -0.38031,0.41341 -0.1819,0.3143 -0.46311,0.74401 -0.38028,0.3473 -0.463,0.1819 -0.97571,0.5126 -0.8433,0.62839 -0.3473,0.33081 -0.28109,0.51261 -0.31422,0.59528 0.05,0.79392 0.23151,0.42981 0.5126,0.3142 0.47959,0.41349 0.46299,0.5457 -0.41338,0.5456 -0.16542,0.033 -0.28109,0.16531 -0.18191,0.41349 -0.24799,0.41341 -0.3638,0.3142 -0.36381,0.23151 -0.2481,0.44648 0.2481,0.31422 0.1323,0.2811 0.1157,0.41338 v 0.33071 l -0.19839,0.28112 -0.2481,0.26458 -0.19841,0.463 0.1488,0.41341 0.3473,0.19849 0.46302,-0.05 0.56219,-0.11581 0.81031,0.083 0.5292,0.38029 0.67799,0.19852 0.54571,0.0159 0.69451,-0.033 0.43,0.18191 0.3638,0.52919 0.1157,0.5788 0.11579,0.57873 0.1488,0.87649 0.2481,0.7276 0.16531,0.74409 0.47959,0.18191 0.62841,-0.0159 0.51261,-0.1488 0.62838,-0.23151 0.39691,-0.099 0.5126,-0.34719 0.34732,-0.215 0.41339,-0.44651 0.39679,-0.23149 0.33081,-0.066 0.87641,-0.099 0.7111,-0.33067 0.56219,-0.28112 0.62841,-0.3142 0.463,-0.28109 0.3638,-0.2481 0.28109,-0.38032 0.13232,-0.3969 0.0159,-0.463 -0.05,-0.56218 0.0159,-0.87652 0.11581,-0.42989 v -0.81032 l 0.3969,-0.52919 0.89289,-0.3142 0.95912,-0.16531 0.90959,-0.26458 0.56221,-0.19842 0.7937,-0.2812 0.64501,-0.099 0.56219,-0.066 0.49612,-0.083 0.31419,-0.083 0.1488,-0.6118 -0.066,-0.4631 0.083,-0.52912 0.28112,-0.1489 0.94261,0.13231 0.67789,-0.05 0.5954,-0.38032 0.2976,-0.46299 0.51261,-0.215 0.43,0.19841 0.28109,0.3638 0.0161,0.54571 0.1819,0.4631 0.3804,0.47948 0.4464,0.16542 0.3804,0.05 0.7276,-0.1323 0.4299,-0.066 0.41341,0.099 0.3969,0.1157 0.1654,0.1488 0.215,0.36391 0.0161,0.51261 0.13229,0.59529 0.2976,0.42992 0.26451,0.38039 -0.1157,0.3638 -0.0161,0.41339 0.1158,0.34732 0.57881,0.31419 0.38029,0.16529 0.56221,0.28112 0.44651,0.31419 0.215,0.46311 0.54568,0.49598 0.3969,0.19852 0.24803,0.083 0.62838,0.463 0.76071,0.19841 0.5457,-0.23151 0.39691,-0.38031 0.5126,-0.033 0.56219,0.1819 0.85989,0.4299 0.59532,0.3969 0.47961,0.54571 -0.066,0.52919 -0.47961,0.31422 -0.44648,0.248 -0.33071,0.645 -0.033,0.5457 0.215,0.56219 0.54571,0.51261 0.54567,0.28109 0.85993,0.43001 0.46299,0.28112 0.2811,0.5788 0.099,0.77719 0.1489,1.10789 0.05,0.59542 0.083,0.3968 0.24803,0.47961 0.41338,0.18188 0.8268,0.0161 0.56232,-0.3473 0.44649,0.0159 0.28109,0.31419 0.28112,0.4631 0.7111,0.13219 0.41339,-0.066 0.79369,-0.1819 0.34732,-0.033 0.33071,-0.033 0.41338,-0.54568 0.083,-0.51261 0.23152,-0.38031 0.41338,-0.13229 0.77732,0.0161 0.69451,0.033 0.34729,0.4299 -0.05,0.41341 v 0.893 l 0.21489,0.6449 0.29771,0.44651 0.77719,0.14877 0.64493,-0.33067 0.3969,-0.61191 -0.29771,-0.41341 0.0159,-0.5457 0.29769,-0.29761 0.47961,-0.11578 0.84331,-0.05 1.6867,-0.1488 0.9426,-0.52919 0.38029,-0.36381 0.81032,-0.8268 0.84338,-0.82682 0.87641,-0.3473 0.8599,-0.28109 0.84342,-0.52919 0.46299,-0.42993 0.44651,-0.74419 0.36381,-0.463 0.47948,-0.16539 0.3638,0.678 0.23162,0.8599 0.44638,0.645 0.23161,0.46299 -0.0161,0.6118 -0.31408,0.56232 -0.11581,0.463 0.1488,0.49609 0.1819,0.69451 0.2481,0.5292 0.66141,0.52911 0.56229,0.5292 0.8599,0.099 0.8599,-0.7606 0.6118,-0.54581 0.5457,-0.67792 0.74423,-1.00878 0.39679,-0.56221 0.47959,-0.76071 0.42989,-0.6945 0.61191,-0.5623 0.82682,0.1819 0.4961,0.4135 1.48831,0.52911 1.5379,0.29771 0.5457,0.16529 1.0418,0.215 0.7937,0.13229 0.54571,0.41341 0.23148,0.77719 0.19852,1.00881 0.3307,1.1906 0.13229,0.77722 0.248,0.71109 0.645,0.7937 0.54571,0.38042 0.34721,0.29758 0.62839,0.083 0.51271,-0.05 0.47951,0.29761 0.41338,0.43 0.3638,0.59529 0.47962,0.38031 0.59528,-0.13232 0.69451,-0.23148 0.43,0.0159 0.2811,0.54571 -0.2481,0.6119 -0.3968,0.41341 -0.44649,0.6449 -0.1819,0.90951 -0.099,0.8269 -0.083,0.77719 -0.033,0.6449 0.05,0.8268 0.215,0.38031 0.49612,0.19849 0.66139,0.033 0.5457,-0.1819 0.4961,-0.4631 0.645,-0.7606 0.21492,-0.14891 0.41339,-0.1157 h 0.47961 l 1.09141,0.678 0.34729,0.38031 0.51261,0.38029 0.41338,0.41351 0.39691,0.1323 0.38031,0.066 0.47958,-0.1488 0.51261,-0.34729 0.44651,-0.4299 0.4961,-0.29771 0.5126,-0.215 0.893,-0.05 0.4299,0.14878 0.38042,0.38042 0.24799,0.46299 0.59529,1.0087 0.71112,0.72761 0.4961,0.43 0.7276,0.4961 0.41339,0.41341 0.5457,0.5457 0.57881,0.3142 0.7111,0.2976 0.52911,0.2481 0.7111,0.51261 0.59531,0.16539 0.69448,-0.0159 0.51271,-0.31419 -0.0159,-0.84341 -0.29769,-0.56219 -0.95911,-0.77722 -0.1819,-0.31419 v -0.33081 l 0.38031,-0.2149 0.49609,-0.033 0.678,0.1488 0.77722,0.033 0.4631,-0.1488 0.42989,-0.7276 -0.05,-0.57878 0.41341,-0.28112 0.6119,-0.05 0.19839,0.31419 0.38031,0.19839 0.3804,0.0161 0.4795,-0.0161 0.38039,0.19841 0.11571,0.38039 -0.066,0.41341 -0.05,0.47951 0.033,0.47958 0.44651,0.44652 0.44648,0.033 0.39691,-0.0161 0.4795,-0.38039 0.099,-0.678 -0.14891,-0.62841 -0.099,-0.3142 0.083,-0.2976 0.3969,-0.19849 0.5457,0.2481 0.23151,0.44648 0.083,0.59532 0.19839,0.41341 0.3307,0.13229 0.4631,-0.1488 0.2811,-0.31419 0.099,-0.57881 0.215,-0.49612 0.26461,-0.28109 0.67789,-0.2481 0.34732,0.43 -0.083,0.5126 -0.16531,0.3804 -0.2812,0.5457 0.0161,0.31412 0.5457,0.3969 0.2811,0.05 0.99219,-0.29758 0.2976,-0.33081 0.31419,-0.3638 0.43001,-0.3638 0.31422,-0.19842 0.5126,-0.033 0.3142,0.51271 0.13229,0.3638 0.05,0.44641 0.066,0.2481 0.1488,0.3142 0.41352,0.1157 0.54571,-0.1157 0.31419,-0.62842 0.0161,-0.52919 -0.083,-0.51261 v -0.3638 l 0.14878,-0.36381 0.3969,-0.19838 0.5457,0.2976 0.099,0.3142 0.099,0.41341 0.16539,0.41339 0.28109,0.23151 0.51261,0.099 0.49609,-0.23149 0.13232,-0.5457 -0.1157,-0.51271 -0.0161,-0.4962 0.23151,-0.52899 0.19839,-0.099 0.66151,0.066 0.34719,0.51261 0.215,0.49609 0.11581,0.46303 0.23151,0.2812 0.3638,0.16528 0.54571,-0.3969 0.34718,-0.34719 0.33081,-0.6119 0.3142,-0.3142 0.49609,-0.13231 0.3968,0.1158 0.2812,0.1323 0.372,0.215 0.48792,0.0101 0.3224,-0.15708 0.3638,-0.28112 0.26459,-0.2068 0.28112,-0.1819 0.28109,-0.13229 0.3969,-0.041 0.39691,0.15722 0.26458,0.26458 0.0101,0.26462 -0.083,0.23151 -0.16529,0.23148 -0.3143,0.248 -0.3638,0.215 -0.33071,0.2232 -0.16539,0.3143 -0.0161,0.083 -0.0159,0.1488 0.0101,0.1819 0.23151,0.2812 0.58709,0.29771 0.42169,0.091 0.38862,0.11571 0.51261,0.31422 0.41339,0.44648 0.35549,0.47951 0.12192,0.48839 0.076,0.23982 0.1053,0.3215 0.1578,0.45598 0.29822,0.2748 0.50858,0.13441 0.23982,-0.099 0.33898,-0.27479 0.21051,-0.3391 0.19301,-0.1987 0.39169,-0.18129 0.34491,-0.035 0.3157,0.029 0.35079,0.1754 0.117,0.21039 0.082,0.45022 v 0.45019 l -0.07,0.42101 0.0119,0.4033 0.099,0.8069 0.023,0.2221 0.0119,0.12289 0.1637,0.74251 0.053,0.2513 0.082,0.2866 0.023,0.3624 0.047,0.3742 0.018,0.39172 0.0101,0.44429 -0.023,0.6782 -0.064,0.228 -0.064,0.29821 -0.07,0.44429 0.029,0.3919 0.0169,0.29221 0.15791,0.32149 0.25709,0.18712 0.29822,0.035 0.33909,-0.041 0.3334,-0.088 0.44421,-0.029 0.2689,0.1052 0.21629,0.28649 -0.076,0.3742 -0.082,0.23972 -0.058,0.29228 0.058,0.33912 0.1754,0.19299 0.19881,0.19291 0.22801,0.13441 0.54949,0.22219 0.38,0.1578 0.18129,0.23979 0.22212,0.25721 0.2046,0.34491 0.24559,0.29818 0.29821,0.10531 0.33319,-0.023 0.25731,-0.076 0.3157,-0.1519 0.29819,-0.0169 0.25731,0.14029 0.088,0.27479 -0.0101,0.23392 -0.041,0.26311 0.047,0.304 0.064,0.40328 0.21641,0.30401 0.1461,0.269 0.12279,0.17539 0.13449,0.20461 0.34491,0.3683 0.2339,0.35661 0.082,0.30419 0.035,0.43262 0.16369,0.5379 0.41511,0.1461 0.29821,0.029 0.33319,0.053 0.1637,0.10509 0.3216,0.2748 0.22802,0.082 0.25138,-0.10528 0.28652,-0.187 0.19288,-0.058 0.4268,0.1461 0.23972,0.1637 0.076,0.36248 -0.1695,0.50282 -0.2105,0.38589 -0.29819,0.4385 -0.16372,0.304 -0.053,0.28062 0.0101,0.3859 0.2046,0.5905 0.1052,0.2222 0.047,0.22799 0.023,0.37999 0.0169,0.32743 0.0119,0.42098 0.14039,0.32742 0.15783,0.16949 0.75419,0.2807 0.1228,0.01 0.67231,-0.117 0.39759,-0.21629 0.2572,-0.19291 0.51461,-0.41511 0.42091,-0.18129 0.54369,-0.16949 0.50869,-0.0101 0.3683,-0.0119 0.4794,-0.1052 0.4327,-0.093 0.45011,-0.14039 0.42101,-0.07 0.3742,-0.053 0.59629,-0.064 0.3683,-0.029 0.63151,-0.0169 0.45601,-0.023 0.46768,0.01 h 0.59053 l 0.649,0.035 0.61388,0.064 0.45022,0.1637 0.2689,0.16949 0.28649,0.1288 0.23971,0.053 0.40339,-0.0101 0.4794,-0.234 0.50861,-0.29808 0.2748,-0.1987 0.45021,-0.14041 0.5963,-0.053 1.01729,0.064 0.57301,-0.041 0.71909,0.029 0.5438,-0.0169 0.46771,-0.15201 0.33321,-0.304 0.26901,-0.34499 0.35658,-0.57881 0.50281,-0.50861 0.60799,-0.78931 0.28652,-0.46778 0.1579,-0.3215 0.4209,-0.38592 0.30398,-0.082 0.97643,0.37409 0.088,0.064 0.4327,0.30391 0.32149,0.28069 0.1637,0.50282 0.099,0.57301 0.0169,0.50858 0.11099,0.55542 0.1696,0.45019 0.15791,0.4853 0.1578,0.35081 0.22222,0.33319 0.33319,0.2105 0.41511,0.1169 0.5262,-0.0101 0.47358,-0.25138 0.3683,-0.4209 0.29242,-0.54962 0.2572,-0.497 0.25141,-0.82428 0.26308,-0.3216 0.44431,-0.57881 0.40341,-0.50871 0.46768,-0.44429 0.1111,-0.54962 -0.18698,-0.3741 -0.37851,-0.2939 v -0.2812 l 0.23151,-0.43 0.3638,-0.42979 0.34729,-0.26461 0.47962,-0.3969 0.41338,-0.3142 0.2811,-0.28109 0.215,-0.41342 v -0.38039 l -0.05,-0.34721 -0.14891,-0.36381 -0.033,-0.29768 0.083,-0.2976 0.33078,-0.4135 0.95912,-0.59542 0.28109,-0.1983 0.51261,-0.2811 0.8269,-0.38039 0.59529,-0.2976 0.61182,-0.215 0.3142,-0.248 0.5457,-0.43 0.29768,-0.41341 0.24803,-0.43001 0.42169,-0.2812 0.37209,-0.033 0.38862,-0.2894 0.372,-0.2812 0.2894,-0.033 0.4217,-0.0251 0.3307,-0.3225 0.22328,-0.42982 0.31422,-0.18187 0.45469,-0.0249 0.3886,-0.15721 0.28112,-0.44641 0.42169,-0.33067 0.33081,-0.066 h 0.5374 l 0.62839,-0.0101 0.60362,0.1406 0.3968,0.26461 0.23979,0.31409 0.38859,0.4631 0.30591,0.42989 0.47959,0.46303 0.49612,0.3225 0.54571,0.23979 0.62008,0.26461 0.52091,0.248 0.52091,0.27289 0.44649,0.13229 0.70281,0.24802 0.4548,0.29768 0.27278,0.26462 0.33071,0.6201 0.3225,0.51261 0.1819,0.46299 0.23982,1.0418 0.14049,0.38029 0.3556,0.56232 0.42159,0.463 0.37211,0.4713 0.2398,0.3969 0.30591,0.34719 0.2481,0.37211 0.2976,0.29771 0.41339,0.91768 0.2894,0.62011 0.41341,0.4631 0.48779,0.55402 0.47131,0.5457 0.2894,0.5043 0.22331,0.29768 0.23151,0.28112 1.0831,1.30639 0.45479,0.50432 0.6118,0.678 0.3886,0.45479 0.3556,0.3555 0.4712,0.1075 0.5375,0.033 0.44651,0.0159 0.5043,0.17362 0.25641,0.4548 0.1819,0.56218 0.4382,0.81032 0.36381,0.49609 0.41338,0.6118 0.19841,0.2894 0.22329,0.47962 0.066,0.3969 -0.074,0.48779 -0.26462,0.3638 -0.50429,0.4713 -0.47959,0.3886 -0.44651,0.38031 -0.41339,0.22331 -0.41341,0.099 h -0.5044 -0.52092 l -0.47947,0.215 -0.42173,0.30591 -0.19849,0.26451 -0.372,0.2812 -0.3142,0.083 -0.66979,-0.05 -0.50432,-0.033 -0.59529,-0.05 h -0.47961 l -0.48779,0.13229 -0.52091,0.34722 -0.4548,0.5705 -0.20669,0.40521 -0.39682,0.56218 -0.1323,0.05 -0.3225,0.058 -0.4713,0.058 -0.54571,0.041 -0.19018,0.22331 -0.13221,0.23969 -0.12409,0.27289 -0.41342,0.27282 -0.45468,0.083 -0.45482,0.0251 -0.65318,-0.033 -0.55391,-0.083 -0.41341,-0.05 -0.8145,0.1718 -0.38589,0.035 -0.53782,0.14031 -0.2807,0.094 -0.35079,0.2689 -0.37412,0.35081 -0.2222,0.4092 -0.152,0.40929 -0.047,0.50282 0.082,0.3625 0.15201,0.2689 0.2222,0.29239 0.23381,0.2104 0.5847,0.4327 0.35079,0.23381 0.8886,0.36251 0.40932,0.17539 0.28059,0.1052 0.71332,0.4912 0.4794,0.4794 0.30398,0.4911 0.3157,0.4209 0.35081,0.46781 0.3157,0.6314 0.14039,0.3859 0.28062,0.7249 0.17539,0.72502 0.035,1.00558 0.19881,0.98221 0.14028,0.6548 0.1987,0.87701 0.058,0.66649 0.082,0.57301 0.07,0.43259 0.1052,0.60802 0.269,0.35078 0.35081,0.07 0.37421,-0.11689 0.4209,-0.3859 0.4794,-0.16369 0.7367,0.15197 0.2222,0.23392 0.63141,0.093 0.30398,-0.32742 0.3625,-0.40928 0.67821,0.0119 0.3157,0.11692 0.66649,0.2689 1.14592,0.5964 0.7951,0.2572 0.6899,0.30401 0.18711,0.29239 0.1287,0.50279 0.07,0.45601 0.28062,0.33909 0.4795,0.66651 0.39749,0.35082 0.5964,0.035 0.56121,-0.26897 0.421,-0.3157 0.5846,-0.25721 0.50279,-0.0119 0.70163,-0.33909 0.3157,-0.15201 0.40928,-0.035 0.31571,0.38579 0.1637,0.4327 0.12862,0.37412 -0.24552,0.39759 -0.45609,0.25731 -0.5729,0.18698 -0.5379,0.32742 -0.30401,0.37421 -0.2105,0.51448 -0.2222,0.65482 -0.22212,0.39759 -1.2395,0.45601 -1.1225,0.3157 -0.97049,0.14039 -0.67821,0.22209 -0.71329,0.19881 -0.77182,0.2222 -0.77169,0.19881 -0.39761,0.152 -0.61971,0.15201 -0.9121,0.035 -0.4911,0.07 -0.86519,0.2572 -0.39762,0.2339 -0.65479,0.6314 -0.50281,0.65493 -0.37421,0.61968 -0.42098,0.8536 -0.4092,1.08741 v 0.58471 l 0.39748,0.51451 0.40932,0.3625 0.49109,0.2689 0.4327,0.2689 0.46771,0.2807 0.10519,0.3508 -0.035,0.3274 -0.1637,0.3157 -0.2104,0.4677 -0.23389,0.4794 -0.12861,0.4794 -0.0119,0.421 v 0.4092 l 0.023,0.421 -0.0119,0.4325 0.035,0.4794 0.12862,1.0759 -0.047,0.5145 -0.12862,0.6548 -0.18709,0.8653 0.035,0.6782 v 0.8068 l 0.023,0.608 0.082,1.9645 -0.035,0.7366 0.1052,1.1693 0.07,0.9472 0.17539,1.4967 v 0.4209 l 0.10531,0.6782 -0.12862,0.69 -0.18709,0.5144 -0.23389,0.7016 -0.07,0.7717 0.082,0.7484 0.54959,0.5028 1.05241,1.029 0.50282,0.4327 0.56118,0.3975 0.56132,0.6782 0.66648,0.994 0.39752,0.9471 0.44439,1.333 0.1637,0.5262 0.28062,0.2572 h 0.39759 l 0.3625,-0.059 0.72491,0.1287 0.19878,0.2455 0.37421,0.6665 0.3625,0.7952 0.2572,0.6664 0.36251,0.9706 -0.1637,0.3157 -0.1637,0.3391 -0.39761,0.4794 -0.60799,0.6782 -0.49109,0.6314 -0.39762,0.725 -0.4209,0.8419 -0.25731,0.4911 -0.3741,0.6314 -0.39759,0.6081 -0.56131,0.76 -0.047,0.094 -1.54351,1.2044 -0.4327,0.421 -0.6431,0.5027 -0.23381,0.2924 -0.44439,0.035 -0.52621,-0.2807 -0.3741,-0.035 -0.71329,0.2222 -0.59642,0.3742 -0.67819,0.3508 -0.53789,0.2572 -0.70152,0.3157 -1.1927,0.6665 -0.38589,0.2222 -0.71332,0.456 -0.3741,0.4794 -0.2105,0.5964 -0.2689,0.4794 -0.45609,0.4911 -0.38581,0.3157 -0.51459,0.1637 -0.67811,0.035 -0.44442,0.059 -0.19878,0.3859 -0.023,0.3859 -0.07,0.5963 -0.17542,0.5145 -0.0119,0.76 0.07,0.4912 0.1637,0.4326 0.152,0.4677 v 0.6314 l -0.2455,0.4561 -0.66652,0.2923 -0.2105,0.035 h -0.5846 l -0.61979,-0.094 -0.43259,-0.058 -0.93552,-0.093 -0.35071,0.4443 -0.12869,0.4327 -0.1637,0.6431 -0.2572,0.9705 -0.2222,0.9706 0.1052,1.6837 -0.093,1.111 -0.1637,1.216 -0.047,0.7484 -0.11689,0.6431 -0.2105,0.456 -0.28059,0.1287 -0.44429,0.012 -0.70163,-0.1755 -0.67818,-0.1403 -0.6314,-0.047 -0.52621,0.1404 -0.3157,0.3391 -0.57301,0.3741 -0.23389,0.012 -0.99391,-0.4092 -0.6431,-0.3859 -0.6899,-0.4209 -0.5846,0.07 -0.047,0.3624 0.047,0.4912 -0.035,0.4209 -0.29231,0.3508 -0.24559,0.1286 -0.51451,-0.2338 -0.6431,-0.4444 h -0.3157 l -0.32739,0.2923 -0.2339,0.3625 -0.18711,0.3391 -0.19881,0.3157 -0.39748,0.3976 -0.2339,0.082 -0.39761,0.023 -0.81841,-0.1988 -0.3859,-0.1052 -1.41489,-0.3041 -0.51451,-0.1053 -0.66649,-0.2454 -0.70162,-0.234 -0.7951,-0.058 -0.9238,-0.058 -0.6781,0.023 -0.5964,-0.07 -0.75999,-0.047 -0.77182,-0.1051 -0.6431,-0.1404 -0.73671,-0.4092 -0.43259,-0.3157 -0.39759,-0.4911 -0.65482,-0.9121 -0.35079,-0.6081 -0.29231,-0.6899 -0.28059,-0.7951 -0.23392,-0.4678 -0.39759,-1.029 -0.46771,-1.064 -0.93538,-1.3915 -0.57301,-0.573 -0.77172,-0.9003 -1.18099,-0.9589 -0.68991,-0.6664 -0.92369,-0.8887 -1.20441,-0.9121 -0.78351,-0.456 -0.83019,-0.7717 -1.06402,-0.8068 -0.7601,-0.6899 -0.59629,-0.573 -0.40932,-0.9822 -0.3157,-1.181 0.07,-2.0112 0.1987,-1.45 0.21051,-1.5435 -0.25721,-0.3858 -0.8419,-0.093 h -0.61979 l -0.65482,0.2689 -0.23379,0.3391 -0.152,0.6665 -0.269,0.9705 -0.12862,0.8653 -0.059,0.9238 0.094,1.0757 0.304,0.8653 0.40921,0.8185 0.25731,0.6081 0.25728,0.9003 v 0.8653 l -0.035,0.877 0.058,0.8887 0.2105,0.7015 0.6081,0.8069 1.04061,0.8536 0.4327,0.5495 0.1987,0.725 -0.16373,0.6198 -0.23378,0.5846 -0.30401,0.3625 -0.54959,0.3274 -0.50282,0.07 -1.4383,0.1286 -0.42091,0.094 -0.51448,-0.035 -0.54962,-0.082 -0.71319,-0.07 -0.6432,0.1403 -0.2689,0.152 -1.08752,0.5145 -0.7951,0.4677 -0.46768,0.3508 -0.16372,0.4326 -0.1169,0.5028 -0.082,0.5028 0.035,0.4093 0.023,0.4443 -0.11689,0.3274 -0.57301,0.2105 -0.5496,0.082 -0.54959,-0.035 -0.18701,-0.456 0.1987,-0.6782 0.25731,-0.6899 0.19879,-0.8886 0.1988,-0.6666 0.17529,-0.608 0.25731,-1.0874 0.12861,-0.573 -0.07,-0.304 -0.16359,-0.3625 -0.30411,-0.1286 -0.75999,-0.117 -0.72502,-0.023 -0.45601,0.082 -0.52618,0.3157 -0.035,0.5847 -0.22212,0.5379 -0.40928,0.4677 -0.5379,0.4326 -0.45601,0.4093 -0.3274,0.3742 -0.30401,0.5612 -0.23389,0.5964 -0.33912,0.4209 -0.46768,0.2923 -0.63151,-0.2455 -0.3507,-0.2222 -0.8069,-0.7483 -0.56121,-0.3391 -0.46779,-0.573 -0.39751,-0.3274 -0.93541,-0.093 -0.94719,0.07 -0.72501,0.1871 -0.92369,0.2222 -0.97052,0.012 -0.66649,-0.1286 -0.9121,-0.2807 -0.56131,-0.2806 -0.46771,-0.421 -0.2689,-0.3975 -0.1052,-0.8419 0.07,-0.5964 -0.23389,-1.1459 -0.4092,-0.456 -0.58471,-0.6431 -0.4677,-0.3859 -0.56132,-0.2689 -0.75999,-0.4677 -0.42101,-0.2924 -0.3507,-0.8068 -0.059,-0.5379 -0.10522,-0.3158 -0.40929,-0.6079 -0.3742,-0.3392 -0.83021,-0.5495 -0.76,-0.2806 -1.2863,-0.6316 -1.14591,-0.5495 -0.5379,-0.2807 -0.5846,-0.3858 -0.66651,-0.3041 -0.98219,-0.3391 -0.74841,-0.2104 -0.77171,-0.5495 -0.5379,-0.4561 -0.73671,-0.6782 -0.88858,-0.4795 -0.7952,-0.1403 -1.15761,-0.2221 -0.83021,-0.093 -1.029,-0.2105 -0.7366,-0.1871 -0.56132,-0.4443 -0.44429,-0.6431 -0.11699,-0.7484 -0.082,-0.456 -0.117,-0.6548 -0.1987,-0.6899 -0.77182,-0.9588 -0.50279,-0.421 -0.54959,-0.2806 -0.22212,-0.7016 -0.047,-0.4093 -0.23381,-0.6899 -0.1754,-0.5495 -0.1637,-1.1577 -0.0119,-0.5846 -0.16373,-1.2979 -0.082,-0.3508 -0.0119,-0.725 -0.047,-0.2456 -0.6548,0.023 -0.37409,0.2807 -0.3742,0.3391 -0.39762,0.152 -0.35079,-0.023 -0.49112,-0.3157 -0.36248,0.07 -0.45601,0.2455 -0.6314,0.3508 -0.7601,0.6665 -0.28059,0.3274 v 0.6665 l 0.2689,0.7133 0.3625,0.6314 0.50279,0.5028 0.082,0.6899 -0.2339,0.6081 -0.35081,0.1637 -0.6314,0.1286 -0.45599,0.1987 -0.421,0.4093 -0.3157,0.421 -0.4794,0.3625 -0.92372,0.3391 -0.10528,0.093 -0.2105,0.3274 -0.035,0.3742 0.16381,0.6548 0.50279,0.5963 0.3157,0.5964 -0.035,0.5846 -0.14028,0.3976 -0.30401,0.2455 -0.45611,0.07 -0.4911,0.152 -0.5729,0.4327 -0.50279,0.1988 -0.5847,-0.093 -0.50282,-0.3742 -0.66649,-0.421 -0.65482,-0.4092 -0.58468,-0.4327 -0.5729,-0.2105 -0.4794,-0.2104 -0.6549,-0.012 -0.44431,0.4677 -0.2689,0.2456 -0.4794,0.023 -0.73671,-0.3157 -0.43259,0.07 -0.21051,0.456 0.047,0.5146 -0.094,0.643 -0.39761,0.4794 -0.29229,0.1989 -0.40921,0.082 -0.76009,-0.1637 -0.83022,-0.035 -0.3625,0.4092 0.035,0.3625 0.10531,0.4678 0.50271,0.4794 0.36248,0.5729 -0.023,0.7367 -0.3392,0.4209 -0.2572,0.082 -0.39751,0.035 h -0.36248 l -0.49112,-0.187 -0.5379,-0.2105 -0.45609,-0.3508 -0.35071,-0.456 -0.51451,-0.4795 -0.67818,-0.608 -0.57301,-0.5262 -1.0173,-0.9471 -0.74833,-0.7835 -1.42658,-1.52 -1.98782,-1.7072 -0.81849,-0.8186 -0.93552,-0.9939 -0.4794,-0.5261 -0.36248,-0.5497 -0.16372,-0.6665 -0.1052,-0.4443 -0.21051,-0.4561 -0.23378,-0.912 -0.047,-0.421 -0.082,-0.5846 -0.18709,-0.6314 -0.29231,-0.6549 -0.1754,-0.4326 0.035,-0.6782 0.093,-0.5379 0.269,-1.3915 0.14028,-0.7249 0.21051,-0.7601 0.07,-0.7249 -0.047,-0.7484 0.094,-0.5379 0.22219,-2.0813 0.22212,-1.2044 0.0119,-1.0875 0.17542,-0.8419 0.1637,-2.2216 0.17539,-1.0641 0.093,-1.0173 -0.082,-0.8186 -0.1287,-0.9121 -0.44431,-1.9292 v -0.7719 l -0.14031,-0.608 -0.19879,-0.2807 -0.3625,-0.047 -0.4911,-0.047 -0.4092,-0.1169 -0.18712,-0.6197 0.1519,-0.4093 -0.12848,-0.5613 -0.10531,-0.082 -0.21039,-0.1987 -0.35092,-0.5731 -0.023,-0.3857 0.023,-0.2457 -0.38579,-0.3507 -0.46771,-0.1989 -0.54959,-0.2805 -0.3157,-0.4094 -0.035,-0.6197 -0.093,-0.6197 -0.29239,-0.4561 -0.70152,-0.4677 -0.46778,-0.1871 -0.6431,-0.2338 -0.61971,-0.2105 -0.66651,-0.2105 -1.0758,-0.28056 -0.99391,-0.24551 -0.4911,-0.3392 -0.72499,-0.18709 -1.0991,-0.152 -0.94722,-0.035 -1.0523,-0.023 -0.8653,-0.0119 h -0.4794 l -1.0173,-0.0119 -0.92382,-0.11689 -0.67818,-0.14028 -0.5144,-0.54962 -0.61993,-0.71329 -0.88857,-0.79511 -0.5261,-0.4327 -0.80691,-0.59629 -0.5262,-0.35081 -0.6314,-0.7951 -0.4794,-0.9238 -0.40921,-1.08741 -0.094,-0.87699 0.1169,-0.87702 0.23391,-0.92369 0.3274,-0.72502 0.33899,-0.59618 0.36261,-0.58481 0.5379,-0.68991 0.3157,-0.35081 0.17539,-0.4092 0.17542,-0.43271 0.40918,-0.75999 0.0119,-0.4794 -0.4444,-0.51451 -0.59632,-0.56129 -1.11088,-0.5847 -1.07572,-0.72491 -0.93549,-0.61979 -1.78901,-1.09911 -0.3742,-0.22209 -0.67821,-0.44442 -0.7366,-0.43259 -0.58471,-0.67829 -0.24548,-0.93541 -0.07,-0.77172 0.07,-0.64309 0.18698,-0.97061 0.18712,-0.65479 0.30408,-0.83021 0.1987,-1.04072 0.37421,-0.9588 -0.1637,-0.1402 -0.4911,0.32732 -0.40931,0.35078 -0.30398,0.18712 -0.76002,-0.047 -0.421,-0.46763 -0.37409,-0.83018 -0.19881,-0.79521 0.093,-0.75999 0.29242,-0.58471 0.12859,-0.87691 -0.094,-0.81849 -0.19881,-0.57301 -0.30401,-0.6899 -0.40921,-0.61971 -0.3157,-0.63141 -0.29239,-0.59639 -1.13419,-1.22781 -1.32131,-1.39139 -1.87093,-1.75401 -0.8536,-0.77171 -1.3798,-1.74229 -0.87689,-1.30961 -0.8653,-1.6604 -0.6314,-1.13422 -0.78351,-2.12821 -0.67821,-1.95271 -0.6314,-2.17491 -0.19879,-0.8536 v -1.11088 l -0.047,-1.42651 -0.29228,-1.46161 -0.07,-1.35639 -0.035,-1.05241 -0.19881,-0.79511 -0.25728,-1.05241 -0.07,-1.40319 0.047,-1.07572 -0.14039,-1.9294 -0.17539,-0.93541 -0.44432,-1.15758 -0.4209,-1.00561 -1.2863,-1.83582 -1.20431,-1.20438 -1.21611,-0.87702 -1.333,-0.50279 -1.36809,-0.35081 -1.73061,-0.4326 -2.71281,-0.40931 -2.10472,-0.35079 -2.06968,-0.3157 -1.40322,-0.11692 -1.41481,-0.19878 -1.4032,-0.18711 -1.8007,-0.5496 -1.57859,-0.71321 -2.18663,-1.26289 -1.94099,-1.09911 -2.31522,-1.3331 -2.0814,-1.14592 -1.41481,-0.77168 -2.2685,-1.0758 -1.90601,-0.7366 -2.2918,-1.07583 -1.7072,-0.71329 -1.69551,-0.7133 -1.0641,-0.39751 -1.21601,-0.35078 -0.88871,-0.21051 -0.80679,-0.304 -1.21611,-1.04072 -1.64871,-1.56679 -1.637,-1.42661 -1.15761,-1.0758 -0.73671,-0.92371 -0.73668,-0.98219 -0.57291,-0.84191 -0.5262,-0.7016 -0.35081,-0.5379 -0.4911,-0.60801 z m 21.77255,-286.11841 -0.26739,0.3029 -0.4939,0.72941 -0.86532,0.7951 -0.67818,0.51451 -1.30951,0.72491 -1.4033,0.7952 -0.28062,0.35079 -0.047,0.4677 0.7016,0.9588 1.333,1.89432 0.7483,1.029 0.1637,0.4677 -0.51438,0.5379 -2.15163,1.029 -3.0401,1.8007 -2.7128,1.49673 -2.80642,1.9177 -2.31519,1.5434 -2.10472,1.49681 -1.73062,1.47331 -1.07579,0.88869 -0.6548,0.44431 -1.14591,0.8653 -1.19269,1.47331 -1.63701,2.17491 -0.7484,0.98219 -1.19272,1.5435 -0.84188,1.26281 -0.4209,0.77179 -0.37421,0.84191 -0.91202,2.73622 -0.81849,2.38531 -0.2105,0.60809 -0.30412,0.93541 -0.23378,0.65479 -0.25731,0.7718 -0.16359,0.56121 -0.21051,0.5847 -0.23389,0.65479 -0.28062,0.88871 -0.23389,0.72491 -0.23381,0.7016 -0.2807,0.84191 -0.093,0.65479 -0.023,0.5379 v 0.56131 l 0.047,0.44429 0.28073,0.44432 0.39748,0.18709 0.67821,0.14041 0.39759,0.1169 0.81852,0.07 0.39759,0.07 0.5379,0.1402 0.74829,0.07 0.56132,0.023 0.65479,0.117 h 0.51451 0.5379 l 0.2572,-0.21051 0.07,-0.2572 0.25721,-0.51448 0.39769,-0.67832 0.23379,-0.56121 0.16362,-0.28059 0.42108,-0.56129 0.25721,-0.30411 0.28069,-0.3039 0.32732,-0.094 0.56129,-0.023 0.56132,-0.023 0.28059,-0.047 0.60809,0.11692 0.28062,0.35078 0.1637,0.30391 0.2105,0.35089 0.3039,0.4677 0.1637,0.23392 0.30409,0.11689 0.32731,-0.11689 0.2807,-0.32742 0.4912,-0.88879 0.4209,-0.60791 0.35071,-0.46779 0.35089,-0.44431 0.3742,-0.4444 0.6314,-0.5847 0.46771,-0.39741 0.7484,-0.49109 0.7483,-0.39759 0.5379,-0.3742 0.88871,-0.49113 0.7016,-0.2105 0.53779,-0.07 1.19272,0.093 0.51448,0.047 0.63151,0.093 0.1637,0.047 1.07562,0.07 0.2808,-0.234 0.07,-0.56121 0.047,-0.085 0.11988,-0.1116 0.21072,-0.07 0.41759,-0.041 0.401,-0.054 0.50441,-0.091 0.81431,-0.2109 1.1783,-0.14471 1.15761,-0.23979 1.0169,-0.3638 0.8517,-0.33071 1.19891,-0.43 0.82679,-0.4133 1.67011,-0.7029 1.12459,-0.31419 0.67792,-0.23151 1.12459,-0.4135 0.99221,-0.5208 0.7854,-0.4961 0.66971,-0.3969 0.6036,-0.29761 0.645,-0.3307 0.71099,-0.083 0.47961,0.27289 0.1488,0.55391 0.10751,0.51261 0.2976,0.4713 0.33078,0.3887 0.58701,0.23141 0.98401,0.066 0.76881,-0.215 0.6532,-0.5126 0.38039,-0.26459 0.81021,-0.1075 0.62019,0.1655 0.5375,0.21489 0.48782,0.2398 0.5044,0.23971 0.74409,0.38039 0.44651,0.19021 0.7606,0.041 0.2812,-0.15721 0.51261,-0.2149 0.63669,-0.074 0.51261,-0.05 1.02529,0.058 0.85161,0.2232 0.4961,0.2894 0.5457,0.26461 0.37201,0.19842 0.27289,-0.0251 0.11581,-0.1157 0.091,-0.31422 0.041,-0.51269 0.0251,-0.42161 0.01,-0.4631 0.11578,-0.37201 0.31422,-0.2481 1.0749,-0.12398 0.27279,0.0159 0.77732,0.074 0.38029,0.0101 0.66971,-0.16528 0.16529,-0.22331 0.19849,-0.2812 0.4713,-0.215 0.55391,-0.14039 0.8848,-0.22331 0.3556,-0.248 0.78552,-0.47961 0.48768,-0.3225 0.49612,-0.41338 0.48779,-0.40511 0.79381,-0.83521 0.42161,-0.4381 0.47128,-0.6367 0.30602,-0.3638 0.60349,-0.1075 0.5375,0.099 0.37201,-0.25641 0.43831,-0.5787 0.23968,-0.62021 0.19032,-0.60349 0.1406,-0.80201 0.1652,-1.5049 0.091,-0.81852 0.05,-0.5044 0.1075,-0.6367 0.22321,-0.4133 0.4549,-0.2067 0.52078,-0.058 0.70292,-0.066 0.75229,-0.2894 0.52912,-0.38859 0.61187,-0.6035 0.2481,-0.29771 0.091,-0.31419 -0.0169,-0.41341 -0.099,-0.29769 -0.074,-0.372 0.25631,-0.50441 0.19018,-0.23979 0.58701,-0.66141 0.1406,-0.12411 0.47961,-0.38029 1.1988,-1.03352 0.52909,-0.38859 0.33071,-0.19019 0.63669,-0.17362 0.47961,-0.058 0.69451,-0.041 0.56219,-0.23971 0.52102,-0.3556 0.4382,-0.33901 0.1406,-0.37198 -0.0251,-0.3225 -0.4962,-1.05011 -0.2894,-0.3555 -0.20672,-0.38862 -0.091,-0.5044 0.10739,-0.30589 0.32251,-0.3638 0.37211,-0.31419 0.61179,-0.34722 0.1654,-0.12409 0.14059,-0.19841 0.033,-0.19021 -0.05,-0.28109 -0.13228,-0.2563 -0.1819,-0.19019 -0.41342,-0.73591 -0.099,-0.36381 -0.074,-0.19838 -0.099,-0.27281 -0.1406,-0.3556 -0.1819,-0.19011 -0.34732,-0.083 -0.23968,0.066 -0.2068,0.13229 -0.23972,0.1323 -0.26458,0.074 -0.35552,0.01 -0.27289,-0.23151 -0.14881,-0.1737 -0.19849,-0.3886 -0.1901,-0.83511 -0.033,-0.45468 -0.099,-0.3886 -0.11581,-0.3556 -0.23979,-0.38862 -0.27282,-0.29761 -0.43,-0.45479 -0.33898,-0.28109 -0.59532,-0.72761 -0.23148,-0.2976 -0.15711,-0.36391 -0.058,-0.33068 -0.041,-0.41341 v -0.38032 l 0.01,-0.3969 -0.0169,-0.83508 -0.0169,-0.52091 -0.058,-0.62839 -0.0251,-0.40511 -0.05,-0.38862 -0.091,-0.48789 -0.16529,-1.24021 -0.066,-0.59529 -0.041,-0.3969 -0.0249,-0.37201 v -0.45479 l 0.033,-0.27292 0.12399,-0.33068 0.17362,-0.23982 0.2812,-0.34718 0.4795,-0.38042 0.33068,-0.23969 0.23151,-0.37211 0.0169,-0.26458 0.0249,-0.38032 0.033,-0.55398 v -0.42172 l 0.0101,-0.27279 -0.0251,-0.94261 -0.058,-0.60359 0.14888,-0.60363 0.42172,-0.05 0.23969,0.2729 0.23151,0.28109 0.27289,0.1488 0.2811,-0.083 0.23151,-0.16528 0.091,-0.40521 -0.05,-0.41342 -0.058,-0.45469 0.041,-0.34729 -0.074,-1.56271 -0.074,-1.06662 -0.099,-1.28979 -0.083,-1.59582 0.041,-0.52088 0.12411,-0.5374 0.083,-0.40521 0.14888,-0.83511 0.083,-0.4713 0.10743,-0.54571 0.1075,-0.45469 0.11578,-0.3638 0.2976,-0.8517 0.0169,-0.28112 -0.1819,-0.24799 -0.3307,-0.0251 -0.5292,0.099 -0.38042,0.2232 -0.39679,0.1819 -0.53751,0.0251 -0.57049,-0.05 -0.23151,0.074 -0.36381,0.21501 -0.28109,0.26461 -0.34729,0.28109 -0.40511,0.19849 -0.41341,0.091 -0.37209,0.0169 -0.59531,-0.041 -0.45479,-0.16539 -0.41342,-0.3638 -0.38859,-0.5705 -0.44649,-0.4382 -0.2563,-0.27279 -0.27281,-0.44651 -0.16539,-0.4548 -0.18191,-0.57052 -0.1158,-0.47128 -0.12402,-0.46302 -0.41338,-1.19888 -0.1736,-0.64493 -0.1819,-0.64489 -0.12401,-0.5705 -0.19021,-0.54571 -0.55398,-1.49659 -0.23151,-0.85162 -0.19839,-0.8351 -0.033,-0.4217 -0.2232,-0.66969 -0.6036,-1.20721 -0.40518,-0.678 -0.38032,-0.62011 -0.31419,-0.48778 -0.44651,-0.84342 -0.23979,-0.5126 -0.3555,-0.61191 -0.46302,-1.02518 -0.074,-1.35602 0.1157,-0.84339 0.23979,-0.85162 0.55399,-0.7524 0.89271,-1.0645 0.50281,-1.1693 0.51449,-1.06411 0.61971,-1.0056 1.2863,-1.9176 1.02902,-1.25122 1.1225,-1.0056 1.44989,-1.22781 2.1983,-2.0813 0.79521,-0.78348 -0.0119,-0.44432 -0.23392,-0.3157 -0.33909,-0.24559 -0.3157,-0.304 -0.07,-0.30401 0.18711,-0.36251 0.57301,-0.4794 1.5552,-1.2395 1.71879,-1.47331 1.45,-1.3213 1.4301,-1.52779 0.59532,-0.24802 0.66151,-0.11578 0.47959,-0.248 0.46299,-0.43 0.1819,-0.49612 0.066,-0.52909 0.26458,-0.64501 0.29771,-0.42989 0.248,-1.108 0.16541,-0.72761 0.11571,-0.49612 -0.13232,-0.59529 -0.463,-0.23151 -0.66141,0.13232 -0.43,0.34729 -0.3307,0.3142 -0.38039,0.033 -0.41339,-0.099 -0.24802,-0.24799 -0.29769,-0.34732 -0.1819,-0.3142 -0.3638,-0.34721 -0.2976,-0.099 -0.47961,-0.11571 -0.59529,-0.0169 -1.0749,-0.0159 h -0.44651 -0.6449 l -0.71102,0.11578 -0.38039,0.31422 -0.066,0.34719 0.11568,0.44651 0.5788,0.41338 0.5457,0.19852 0.23152,0.47948 0.0169,0.33071 -0.2812,0.3638 -0.248,0.31419 -0.2481,0.38042 0.083,0.463 0.19852,0.34729 0.56219,0.34721 0.5788,0.23149 0.38029,0.56232 v 0.678 l -0.29758,0.41338 -0.4631,0.36381 -0.39682,0.16531 -0.8599,-0.31412 -0.59529,-0.56229 -0.38042,-0.59529 -0.47948,-0.3969 -0.89302,-0.3968 -0.77719,-0.066 -2.0836,-0.26461 -1.22371,-0.19838 -1.14101,-0.14881 -0.893,-0.1489 -1.24021,-0.05 -1.02529,0.13231 -1.10792,0.43001 -1.356,0.56219 -0.95909,0.38031 -1.30641,0.51268 -0.81032,0.52912 -0.95909,1.20719 -0.87651,0.8599 -1.38899,1.63711 -1.17412,1.27331 -0.81018,0.76071 -0.66141,0.51261 -1.17412,0.49609 -1.37261,0.7111 -1.3561,0.5126 -0.8432,0.19839 -0.5293,-0.49599 -0.19831,-0.51271 -0.2481,-0.215 -0.47948,-0.2811 -0.89302,-0.1819 -0.6118,-0.13229 -0.23148,-0.51261 v -0.3638 l -0.215,-0.4961 -0.23162,-0.1819 -0.69448,-0.16539 -0.61183,-0.1157 -0.4631,-0.1819 -0.29757,-0.36381 -0.34732,-0.23151 -0.7111,-0.11581 h -0.74409 l -1.05842,-0.14877 -1.45521,-0.57881 -1.6206,-0.61182 -1.91821,-0.678 -1.2568,-0.3638 -1.17399,-0.41339 -0.67802,-0.6119 -0.7937,-0.69451 -0.92621,0.066 -0.7275,-0.1157 -1.323,-0.2481 -1.1906,-0.44651 -1.02521,-0.4299 -2.4805,-0.8268 -2.1166,-0.74422 -0.7937,-0.34719 -0.84352,-0.2812 -0.46299,0.26461 -0.18191,0.3473 -0.13218,0.46299 -0.083,0.54571 -0.13232,0.43 -0.47959,0.083 -0.66151,-0.23151 -0.38021,-0.26451 -0.7112,-0.29768 -0.56229,-0.28109 -0.66141,-0.14891 -0.44641,0.23159 -0.2481,0.44641 -0.19849,0.51271 -0.1652,0.3307 -0.39691,-0.0169 -0.59534,-0.46326 -0.13222,-0.49609 -0.0169,-0.47951 v -0.34729 l -0.1488,-0.33071 -0.38031,-0.099 -0.39688,0.0161 -0.23151,0.05 -0.3638,0.083 -0.423,0.14018 c -0.36761,0.29141 -1.0772,0.84331 -1.5499,1.21262 l -1.91512,0.2536 -1.63261,0.43781 -0.082,1.0767 2.60761,3.3876 2.42391,3.71701 1.8188,4.00382 4.57641,8.32533 6.28522,10.74002 2.62692,5.25843 1.2417,2.4664 2.22761,2.8301 2.5531,2.6398 2.13372,2.78444 2.0941,3.4865 3.32511,4.9237 1.43981,3.54003 -0.1629,2.34051 -0.5366,2.391 -1.88861,2.82602 -2.17832,1.9403 -2.09839,0.62968 -2.2946,-0.25688 -1.55261,-0.8727 z"
fill="#3333"        id="path6371" />
  </g>
</svg>
