<?xml version="1.0" encoding="UTF-8" standalone="no"?>
<!-- Created with Inkscape (http://www.inkscape.org/) -->

<svg
   width="1193.2189"
   height="1161.246"
   viewBox="0 0 315.70572 307.24729"
   version="1.1"
   id="svg5"
   inkscape:version="1.1.2 (0a00cf5339, 2022-02-04, custom)"
   sodipodi:docname="Hamburg_silhouette.svg"
   xmlns:inkscape="http://www.inkscape.org/namespaces/inkscape"
   xmlns:sodipodi="http://sodipodi.sourceforge.net/DTD/sodipodi-0.dtd"
   xmlns="http://www.w3.org/2000/svg"
   xmlns:svg="http://www.w3.org/2000/svg">
  <sodipodi:namedview
     id="namedview7"
     pagecolor="#ffffff"
     bordercolor="#666666"
     borderopacity="1.0"
     inkscape:pageshadow="2"
     inkscape:pageopacity="1"
     inkscape:pagecheckerboard="0"
     inkscape:document-units="cm"
     showgrid="false"
     inkscape:zoom="0.0916465"
     inkscape:cx="-703.7912"
     inkscape:cy="-556.48606"
     inkscape:window-width="1920"
     inkscape:window-height="1009"
     inkscape:window-x="-8"
     inkscape:window-y="-8"
     inkscape:window-maximized="1"
     inkscape:current-layer="layer1"
     units="px"
     fit-margin-left="10"
     fit-margin-top="10"
     fit-margin-right="10"
     fit-margin-bottom="10" />
  <defs
     id="defs2" />
  <g
     inkscape:label="Ebene 1"
     inkscape:groupmode="layer"
     id="layer1"
     transform="translate(-745.65677,-816.6453)">
    <path
       d="m 748.70609,979.05382 0.45079,-0.95541 0.31002,-1.26609 0.801,-2.17041 0.51679,-1.26612 0.41341,-1.05929 0.1292,-0.7752 -0.0259,-1.24021 -0.052,-0.64601 0.20669,-1.36941 0.23251,-0.8268 0.2584,-1.13689 0.20669,-0.8785 0.1809,-0.77521 0.0259,-0.6976 -0.1809,-0.5684 -0.077,-0.59431 0.077,-0.64599 0.2843,-0.36171 0.33591,-0.25839 0.8009,-0.28422 0.7493,-0.1034 0.51679,-0.052 0.23262,-0.6718 -0.38762,-1.29191 -0.25839,-0.51679 -0.36171,-0.23252 -0.2326,0.33581 -0.0259,0.2326 -0.0259,0.28422 -0.36171,0.31009 -0.56841,0.0259 -0.43929,-0.23252 -0.25839,-0.46509 -0.18082,-0.46511 -0.15509,-0.28419 -0.2067,-0.25842 -0.28421,-0.49088 -0.0259,-0.23262 0.18079,-0.54259 0.33591,-0.4392 0.38759,-0.51682 1.7312,-2.17041 0.36172,-0.49088 0.25839,-0.69771 0.43921,-0.46511 0.49099,-0.33589 0.41341,-0.052 0.43918,-0.1034 0.46511,-0.43921 0.2067,-0.46511 0.18089,-0.54259 0.077,-0.7493 -0.0259,-0.54261 -0.33589,-0.8269 -0.49101,-1.34351 -0.25829,-0.8269 -0.052,-0.64591 -0.0259,-0.51678 0.078,-0.56841 0.28419,-0.6718 0.56841,-1.44701 0.43929,-0.7234 0.25842,-0.51682 0.49088,-1.11098 0.10332,-0.43932 0.2326,-0.33589 0.8268,0.0259 0.8527,0.28419 0.8268,0.23249 0.6459,0.18092 h 0.36179 l 0.28422,-0.41341 0.12919,-0.56851 0.2584,-0.67178 0.12919,-0.7493 0.10332,-0.51671 0.2326,-0.72351 0.25829,-0.87849 0.1551,-0.69761 0.20672,-0.7235 0.052,-0.38762 0.0101,-0.36729 0.01,-0.1356 -0.17442,-0.3424 -0.3424,-0.239 -0.51678,-0.31001 -0.60071,-0.29719 -0.6395,-0.33591 -0.32301,-0.39399 -0.084,-0.20029 0.22612,-0.85911 0.28429,-0.39402 0.31001,-0.47159 0.34881,-0.5555 0.29718,-0.41981 0.58131,-0.96251 0.11629,-0.3488 0.09,-0.51678 0.058,-0.51682 0.10329,-0.61359 0.097,-0.78809 0.09,-0.43921 0.19381,-0.80751 0.20029,-0.68469 0.1873,-0.59431 0.14862,-0.68469 1.05288,-0.41342 0.47152,-0.19381 0.3166,-0.29069 0.12909,-1.0077 -0.10329,-0.54261 0.801,-0.5167 0.7751,-0.1292 h 0.9044 l 0.54261,0.0259 0.36169,0.8785 -0.2067,0.6718 -0.23259,0.8268 -0.18082,0.9819 -0.1034,1.0077 v 1.04211 l 0.1279,0.61201 0.18272,0.7034 0.1918,0.6395 0.1919,0.9044 0.055,0.41111 v 0.50239 l 0.046,0.46591 0.20101,0.42019 0.30149,0.2649 0.5846,0.2558 0.6395,0.2558 0.73081,0.28321 1.27889,0.5116 1.94581,1.01399 0.338,0.21011 0.55732,0.36541 0.5664,0.30139 0.4567,0.2558 0.36539,0.14621 0.40201,0.037 0.4019,0.01 0.3746,0.064 0.23749,0.201 0.30141,0.67601 0.1097,0.3197 0.23749,0.3928 0.24662,0.41109 0.2467,0.22841 0.43849,0.1188 0.40191,-0.027 0.31059,-0.16449 0.3106,-0.21011 0.35631,-0.30139 0.3197,-0.28321 0.23749,-0.1097 0.30152,-0.064 0.33798,0.082 0.274,0.21931 0.17362,0.25569 0.2467,0.31981 0.15529,0.274 0.23751,0.29239 0.15529,0.28311 0.073,0.31059 -0.018,0.29242 -0.15531,0.30139 -0.10959,0.27411 -0.2924,0.5298 -0.055,0.13711 -0.2192,0.29228 -0.3015,0.15532 -0.36539,0.073 -0.4019,0.036 -0.32891,0.073 -0.42931,0.11872 -0.40198,0.201 -0.23752,0.20098 -0.2649,0.24662 -0.33801,0.30149 -0.28318,0.1279 -0.33801,0.082 -0.14621,0.201 0.055,0.6577 0.3928,0.87702 0.20101,0.34708 0.31969,0.56642 0.4385,0.54809 0.49332,0.61212 0.34718,0.43849 0.76732,0.9683 0.41109,0.43849 0.31059,0.4476 0.20101,0.40201 0.21011,0.28321 0.274,0.11869 0.30149,0.064 0.34711,0.12779 0.94099,0.78571 0.21921,0.23749 0.22842,0.35632 0.22839,0.338 0.3288,0.14608 0.31059,0.027 0.3198,0.055 0.26491,0.1919 0.30141,0.3106 0.34719,0.35629 0.1279,0.17351 0.41111,0.47498 0.35618,0.45681 0.69432,0.88612 0.3837,0.41108 0.5116,0.45681 0.36539,0.38359 0.49332,0.4568 0.74899,0.78561 0.402,0.43852 0.45681,0.48419 0.4658,0.18269 0.34719,0.091 0.338,0.10049 0.37452,0.15531 0.4477,0.21008 0.5115,0.27411 0.7765,0.48422 0.4568,0.31059 0.37439,0.037 0.40201,-0.055 0.42939,-0.19187 0.3746,-0.17352 0.5207,-0.22839 0.45673,-0.055 0.48419,-0.13701 0.49329,-0.2558 0.46591,-0.30149 0.44759,-0.201 0.67601,-0.53891 0.3837,-0.28321 0.42022,-0.1188 0.3928,-0.0101 0.3928,-0.13708 0.2376,-0.17352 0.19179,-0.34718 0.037,-0.48411 -0.055,-0.3015 -0.2192,-0.3928 -0.19191,-0.5116 0.046,-0.33801 0.34722,-0.76732 0.12779,-0.28318 0.29242,-0.3198 0.3197,-0.14611 0.47498,-0.137 0.34721,-0.17359 0.11869,-0.28321 -0.073,-0.29229 -0.2101,-0.27411 -0.1736,-0.42021 -0.01,-0.3928 0.13711,-0.2467 0.29231,-0.22828 0.3197,-0.13711 0.46591,-0.037 0.66688,0.018 0.30142,0.046 0.34718,-0.082 0.26491,-0.28321 0.11879,-0.28318 0.082,-0.36542 0.24662,-0.28318 0.7765,-0.21921 0.3746,-0.1827 0.22831,-0.1462 0.3015,-0.1827 0.41108,-0.10049 0.41111,-0.018 0.99571,0.082 0.7765,-0.17362 0.4476,-0.28318 0.48421,-0.28322 0.46588,-0.31969 0.37452,-0.33801 0.31981,-0.37449 0.15517,-0.74912 -0.064,-0.29239 -0.091,-0.29231 -0.10969,-0.6394 0.055,-0.4477 0.31059,-0.61201 0.7674,-1.0871 0.34711,-0.44759 0.14621,-0.28321 0.17359,-0.49329 0.064,-0.44771 0.10959,-0.47501 0.2924,-0.41108 0.3288,-0.33801 0.30152,-0.23751 0.41108,-0.2558 0.50242,-0.21919 0.5755,-0.2649 0.43849,-0.201 0.35632,-0.14621 0.30138,-0.22839 0.13711,-0.3197 0.14611,-0.7125 0.055,-0.5938 0.046,-0.60291 v -0.5756 l 0.055,-0.56632 0.2101,-0.5116 0.29239,-0.3837 1.20579,-1.4433 1.73573,-1.7175 1.2241,-1.12361 0.93181,-0.68509 0.9592,-0.5938 1.5712,-1.03231 0.7583,-0.4019 0.8313,-0.22841 0.41111,-0.26488 -0.082,-0.74912 -0.5846,-0.42018 -0.49329,-0.77653 0.036,-0.41108 0.19188,-0.6943 0.2649,-0.54811 0.80391,-0.9044 0.3928,-0.3197 0.63029,-0.3837 0.52071,-0.50242 0.4659,-0.5756 0.40201,-0.4567 0.47501,-0.35629 0.48419,-0.15531 0.338,-0.037 0.29232,-0.21011 0.037,-0.36539 0.027,-0.6304 0.10051,-0.62122 0.1097,-0.94999 0.10959,-0.4568 0.28321,-0.46591 0.5115,-0.475 0.5938,-0.42019 0.2558,-0.29231 0.1279,-0.46591 0.018,-0.5116 -0.1736,-0.68519 -0.16438,-1.12361 0.1461,-0.48411 0.33798,-0.2376 0.46591,-0.17349 0.90429,-0.35631 0.48432,-0.21918 0.6303,-0.36553 0.18269,-0.3928 0.046,-0.81299 v -0.60269 l 0.037,-0.5025 -0.046,-0.55722 -0.21021,-0.42939 -0.21011,-0.4476 -0.091,-0.48411 0.1461,-0.43849 0.1736,-0.5573 0.0101,-0.43852 v -0.5846 l 0.064,-0.7126 0.2466,-0.47498 0.23759,-0.31062 0.31062,-0.5116 0.064,-0.42019 0.091,-0.5298 0.30138,-0.3928 0.26491,-0.21932 0.2558,-0.046 0.27411,0.10049 0.2101,0.1827 0.3197,0.15531 0.3197,0.01 0.48421,-0.073 0.3837,-0.10959 0.3197,-0.14621 0.2649,-0.20101 0.1188,-0.2649 -0.0101,-0.4476 0.073,-0.2649 0.1097,-0.2558 0.2558,-0.10959 0.42021,0.037 0.24659,0.20101 0.3015,0.137 0.4659,-0.046 0.3745,-0.21921 0.29231,-0.21008 0.34721,-0.3198 0.22839,-0.091 0.3106,0.16441 0.2101,0.2649 0.1827,0.29239 0.42931,0.46591 0.61209,0.2649 0.42932,0.17351 0.40198,0.15529 0.37452,0.10051 0.5847,0.046 h 0.5846 l 0.73999,-0.10048 0.4385,0.055 0.44762,0.10972 0.73078,0.29228 1.00492,0.23752 0.4749,-0.082 0.42939,-0.064 0.6394,-0.037 0.78571,0.064 0.5207,0.01 0.5755,-0.018 0.61201,-0.11882 0.4477,-0.10959 0.42021,-0.037 0.3197,0.027 0.54808,0.201 0.49332,0.24659 0.53899,0.39281 0.59391,0.4568 0.26479,0.15531 0.41111,0.137 0.52081,0.091 0.347,-0.10969 0.31981,-0.16442 0.36539,-0.091 0.37449,0.055 0.43852,0.15529 0.4385,0.2009 0.69429,0.22841 0.55722,0.16449 0.2558,0.23752 0.43849,0.21918 0.4019,0.082 0.31981,0.0101 0.4019,-0.082 0.35629,-0.18269 0.3197,-0.17349 0.29231,-0.037 0.26498,0.17359 0.21921,0.26491 0.18269,0.2741 0.29242,0.20101 0.3837,0.036 0.80389,-0.31972 0.35631,-0.26499 0.42019,-0.30141 0.44762,-0.0101 0.6304,0.62122 0.3288,0.2558 0.32891,0.33798 0.75819,0.30152 0.36539,-0.2558 0.31062,-0.3837 0.7034,-0.42932 0.3746,0.16442 0.2558,0.19179 0.7399,0.3015 0.35629,-0.027 1.38852,-0.1918 0.5116,0.1827 0.201,0.19179 0.3288,0.1918 0.4659,0.1188 0.5116,-0.036 0.40201,-0.1188 0.36539,-0.2558 0.1279,-0.201 0.055,-0.3836 0.018,-0.3837 -0.11869,-0.5847 -0.082,-0.48409 -0.091,-0.51162 -0.0101,-0.6395 0.0101,-0.4476 -0.046,-0.48419 -0.055,-0.3928 -0.037,-0.4567 -0.0101,-0.47511 0.201,-0.3836 0.2648,-0.34721 0.3289,-0.33798 0.31062,-0.34711 0.3106,-0.27411 0.48429,-0.55719 0.055,-0.3289 0.23749,-0.9592 0.073,-0.5298 0.055,-0.5207 v -0.48422 l -0.055,-0.66691 -0.091,-0.55719 -0.1279,-0.5847 -0.091,-0.46591 -0.10959,-0.67598 0.018,-0.57553 0.10961,-0.62119 0.037,-0.61201 0.055,-0.63039 -0.036,-0.4567 -0.10049,-0.3746 -0.1827,-0.47501 -0.2101,-0.49329 -0.082,-0.50242 0.1279,-0.5207 0.1827,-0.49329 0.18269,-0.5116 0.1736,-0.47501 0.17362,-0.5755 0.082,-0.37459 0.10049,-0.4567 0.10052,-0.62122 0.046,-0.59378 0.0101,-0.5847 0.10051,-0.65771 0.24659,-0.50242 0.33801,-0.55729 0.27408,-0.36539 0.35621,-0.43852 0.26501,-0.3197 0.55719,-0.67599 0.30152,-0.35631 0.23749,-0.27411 0.31059,-0.3197 0.34711,-0.274 0.45681,-0.2467 0.3837,-0.01 0.32879,0.23752 0.46591,0.19179 0.5755,0.01 0.5025,-0.10051 0.53901,-0.20098 0.51149,-0.10962 0.58471,-0.082 1.0323,-0.0101 0.5298,-0.018 0.9683,-0.027 1.27889,-0.027 0.74912,-0.01 0.84961,0.018 1.14189,0.036 1.37941,-0.027 0.87699,-0.064 1.52562,-0.064 1.32461,-0.01 1.46159,-0.037 1.05971,-0.055 1.6169,-0.11869 1.89101,-0.082 0.5024,-0.027 0.7765,-0.027 0.66691,0.34711 0.31059,0.37449 0.54812,0.59381 0.48419,0.3837 0.4659,0.49339 0.6394,0.56632 0.201,0.1918 0.53901,0.52078 0.35618,0.17362 0.59381,0.036 0.7583,-0.10049 0.7856,-0.16441 1.24241,-0.22839 0.73081,-0.082 1.0323,-0.137 0.42931,-0.15531 0.62119,-0.16439 0.99571,-0.15531 0.9592,-0.064 0.55729,-0.073 0.34711,-0.3197 0.10052,-0.36539 -0.49332,-1.08712 -0.3837,-0.8952 -0.1279,-0.48421 -0.137,-0.50239 -0.1279,-0.70351 -0.055,-0.63029 0.064,-0.29231 -0.29239,-0.5116 -1.53472,-0.10049 -0.26487,-0.027 -0.32891,-0.1918 -0.4567,-0.42018 -0.18272,-0.34722 -0.018,-0.82209 0.14621,-0.16462 0.3106,-0.16428 0.5207,-0.046 0.51149,-0.01 0.5664,-0.046 0.41111,-0.24652 0.2101,-0.3107 0.046,-0.3928 -0.037,-0.35629 0.018,-0.3288 0.14621,-0.35631 0.17349,-0.37449 0.15531,-0.41112 0.13711,-0.3837 0.30138,-0.7765 0.018,-0.5937 v -0.42029 l 0.18269,-0.5389 0.30149,-0.52991 0.26491,-0.27401 0.41111,-0.14621 0.2649,-0.15528 0.274,-0.33801 0.21019,-0.3471 0.23752,-0.4294 0.21008,-0.37449 0.18272,-0.33801 0.2558,-0.40201 0.44759,-0.31059 0.46591,-0.1279 h 0.42929 l 0.40201,-0.073 0.3837,-0.47501 -0.23752,-0.53901 -0.17928,-0.50858 -0.013,-0.33592 0.14211,-0.3488 0.24551,-0.37471 0.2713,-0.33589 0.2584,-0.39399 0.26479,-0.6976 -0.22609,-0.323 -0.33591,-0.16802 -0.58129,-0.13559 -0.58791,-0.22609 -0.52959,-0.2132 -0.53621,-0.21961 -0.6718,-0.24551 -0.57492,-0.17438 -0.6459,-0.28422 -0.058,-0.46509 0.2907,-0.41981 0.2971,-0.4005 0.23911,-0.4522 0.3229,-0.5297 0.32951,-0.43921 0.013,-0.54909 -0.18089,-0.16151 -0.4844,-0.1615 -0.49739,-0.20021 -0.31012,-0.31649 -0.078,-0.4135 0.27781,-0.4586 0.4521,-0.4069 0.4586,-0.084 0.45871,0.071 0.4005,0.16798 0.30358,0.052 0.51671,-0.38111 0.36179,-0.4328 0.28422,-0.40701 0.17439,-0.62008 0.097,-0.37471 1.00769,-1.85391 0.71049,-1.40172 0.6395,-1.11749 0.34243,-0.92369 0.36819,-0.1356 0.36169,-0.013 0.478,0.17441 0.44572,0.1551 1.3049,0.239 0.50379,0.09 0.54912,0.052 0.63299,0.058 0.562,0.058 0.51671,0.052 0.36809,0.10342 0.38762,0.10978 0.29718,0.1873 0.40042,0.32951 0.36179,0.32941 0.239,0.31009 0.2907,0.35521 0.20669,0.33589 0.20021,0.2649 0.2326,0.1356 0.36171,0.045 0.35529,-0.019 0.3294,0.013 0.3682,0.09 0.18092,0.1615 0.084,0.239 0.032,0.31009 0.0259,0.20672 0.039,0.2454 0.16151,0.2067 0.2455,0.1034 0.3101,0.019 0.41341,-0.01 0.41341,-0.01 0.47149,0.01 0.3488,0.071 0.32301,0.10329 0.2196,0.11628 0.36179,0.23252 0.3488,0.091 0.33592,-0.039 0.30999,-0.0259 h 0.33589 l 0.22611,0.0101 0.5103,0.01 0.33589,-0.1615 0.25202,-0.21958 0.18079,-0.28422 0.24551,-0.3166 0.323,-0.31649 0.41339,-0.23249 0.2454,0.019 0.16801,0.12268 0.23249,0.16791 0.2326,0.19381 0.15502,0.29718 0.14859,0.2971 0.077,0.23252 0.039,0.31009 0.078,0.28422 0.16142,0.25839 0.18738,0.14211 0.38111,0.071 0.3488,0.01 0.33592,-0.039 0.18089,-0.20029 0.10981,-0.36823 0.15499,-0.4069 0.40701,-1.0981 0.20018,-0.5233 0.27782,-0.4263 0.2971,-0.43921 0.323,-0.38118 0.3488,-0.46501 0.4522,-0.84619 0.22609,-0.40701 0.3488,-0.38759 0.45861,-0.41982 0.4522,-0.31009 0.4005,-0.24551 0.3229,-0.1938 0.33591,-0.239 0.67178,-0.5619 0.29721,-0.2648 0.4844,-0.41341 0.47162,-0.3488 0.44569,-0.31009 0.4005,-0.25832 0.40051,-0.25839 0.25191,-0.1357 0.71048,-0.54259 0.16801,-0.22611 0.3165,-0.052 0.31009,0.1356 0.27771,0.1615 0.38759,0.013 0.38762,-0.2454 0.323,-0.4199 0.717,-1.1498 0.3294,-0.43932 0.46509,-0.47149 0.5103,-0.44569 0.88501,-0.5039 0.57492,-0.2454 0.60068,-0.28432 1.80222,-0.78158 0.99481,-0.59421 1.27249,-0.70411 0.6137,-0.27781 0.49091,-0.24548 0.323,-0.239 0.18079,-0.34232 0.032,-0.5814 -0.045,-2.0283 0.039,-0.55549 0.21958,-0.63302 0.27131,-0.31009 0.3747,-0.394 0.27771,-0.31652 0.3747,-0.21968 0.3682,-0.058 0.31001,0.01 0.4199,0.0101 0.41338,0.065 0.37471,0.1292 0.42629,0.22611 0.47803,0.16791 0.38769,0.12279 0.38111,0.15499 0.40688,0.22612 0.29072,0.28419 0.53618,0.323 0.40683,0.22611 0.4717,0.28419 0.2971,0.2907 0.30999,0.2648 0.25831,0.31652 0.2068,0.4005 0.11618,0.27779 0.1098,0.3488 0.1034,0.27781 0.27771,0.239 0.38121,0.1614 0.33589,0.1034 0.36171,0.22608 0.2584,0.34232 0.2971,0.35529 0.28419,0.20672 0.31012,0.039 0.43278,-0.052 0.42632,0.01 0.33589,0.1679 0.15499,0.28422 0.013,0.25199 0.058,0.1873 0.084,0.1615 0.25188,0.10329 0.35531,-0.01 0.30362,0.01 0.23249,0.1615 0.20029,0.1873 0.3294,-0.0101 0.2648,-0.18729 0.1615,-0.14219 0.31012,-0.16791 0.25839,-0.078 h 0.33589 l 0.35521,0.097 0.25201,0.155 0.2067,0.239 0.097,0.23899 0.032,0.25192 -0.045,0.2649 -0.1162,0.36819 -0.1228,0.34229 -0.16142,0.36182 -0.13568,0.47149 -0.045,0.3488 -0.071,0.47162 -0.058,0.43279 -0.071,0.3552 -0.084,0.45871 -0.097,0.3552 -0.078,0.21969 -0.10339,0.4005 -0.077,0.22601 -0.065,0.41351 v 0.3746 l 0.039,0.2584 0.032,0.5684 -0.032,0.32949 -0.12911,0.4069 -0.4458,0.94962 -0.28419,0.7428 -0.3488,0.801 -0.2584,0.60719 -0.30361,0.56841 -0.36171,0.73001 -0.35528,0.89139 -0.25842,0.65892 -0.39399,0.78798 -0.69761,1.66662 -0.2649,0.66529 -0.3229,0.8785 -0.1874,0.47162 -0.17439,0.43919 -0.22611,0.16801 -0.21961,0.039 -0.36169,-0.032 -0.52321,-0.1615 -0.40698,-0.2131 -0.4522,-0.20029 -0.43281,-0.27771 -0.3488,-0.2907 -0.6072,-0.60071 -0.1098,-0.18738 -0.1873,-0.37462 -0.14862,-0.31009 -0.3811,-0.19381 -0.28419,0.045 -0.28419,0.1615 -0.19381,0.19381 -0.31009,0.25188 -0.37463,0.09 -0.30358,0.039 -0.36182,0.0259 -0.39399,0.065 -0.32301,0.065 -0.38759,0.052 -0.33591,0.14859 -0.12909,0.239 -0.052,0.35531 0.019,0.33589 0.17438,0.3165 0.36172,0.34239 0.25188,0.28422 0.1098,0.1873 -0.013,0.11629 -0.0259,0.077 -0.15499,0.19378 -0.38119,0.28421 -0.34232,0.2132 -0.36819,0.21961 -0.4974,0.30358 -0.43921,0.239 -0.60719,0.32941 -0.60722,0.31009 -0.65889,0.43281 -0.34881,0.22611 -0.32951,0.2648 -0.44569,0.25839 -0.2907,0.1356 -0.47149,0.36182 -0.15502,0.35528 0.0259,0.21961 0.097,0.26479 0.19381,0.3165 0.22608,0.29721 0.71052,0.6459 0.41989,0.36812 0.14211,0.19378 0.065,0.16801 0.019,0.26479 -0.0259,0.24551 -0.14851,0.4521 -0.084,0.27781 -0.14211,0.51679 0.0101,0.23899 0.032,0.239 0.1034,0.44572 0.077,0.32309 0.058,0.28421 v 0.2907 l -0.045,0.38111 -0.10329,0.33589 -0.11631,0.33591 -0.077,0.22598 -0.11632,0.41993 -0.065,0.36819 -0.052,0.36169 0.0259,0.28429 -0.065,0.93012 0.0101,0.17439 -0.032,0.3941 -0.013,0.4586 v 0.40701 l 0.045,0.3488 -0.0101,0.3165 -0.077,0.24551 -0.078,0.18079 -0.25202,0.28421 -0.1356,0.045 -0.21958,0.052 -0.23262,0.097 -0.21958,0.19381 -0.14862,0.21961 -0.084,0.25839 -0.084,0.323 -0.14211,0.30359 -0.48451,0.562 -0.10339,0.12922 -0.239,0.1873 -0.18741,0.13568 -0.21309,0.18733 -0.1292,0.239 -0.0101,0.26479 0.045,0.25189 0.084,0.65892 -0.0101,0.43278 -0.039,0.23262 -0.045,0.38108 -0.058,0.30361 -0.065,0.2907 -0.17449,0.3488 -0.1356,0.18082 -0.25202,0.20669 -0.29059,0.1874 -0.27781,0.16791 -0.96891,0.77518 -0.43929,0.2971 -0.38759,0.28422 -0.51671,0.25839 -0.39409,0.16801 -0.20022,0.013 -0.3294,-0.1229 -0.2843,-0.239 -0.4328,-0.14211 -0.28419,-0.0259 -0.39402,0.013 -0.30359,0.019 -0.27781,0.11631 -0.058,0.078 -0.013,0.1873 0.097,0.5038 0.12269,0.3166 0.11631,0.32941 0.1356,0.43918 0.14211,0.49102 0.11629,0.3488 0.15502,0.23249 0.31009,0.071 0.26479,-0.01 0.2843,0.032 0.2713,0.22611 0.2131,0.28419 0.18092,0.25202 0.33589,0.15499 0.43921,0.065 0.43929,0.032 0.49742,0.039 0.2648,0.091 0.28419,0.17441 0.2972,0.11621 0.478,0.091 0.3682,0.052 0.37459,-0.013 0.37471,-0.0259 0.4005,0.078 0.28422,0.12922 0.20669,0.43278 0.065,0.27782 0.065,0.36168 0.077,0.34881 0.078,0.30361 0.14208,0.35531 -0.072,1.10228 0.073,0.42032 0.274,0.60291 0.34711,0.3837 0.56639,0.18269 0.52991,-0.16452 0.42019,-0.31059 0.23751,-0.3288 0.34709,-0.16449 h 0.49331 l 0.36539,0.18269 0.34722,0.21932 0.29228,0.36539 0.23752,0.3837 0.23749,0.4019 0.2558,0.40201 0.2558,0.29229 0.3837,0.2558 0.47501,0.1461 0.5116,0.055 0.4568,-0.018 0.27401,-0.14621 0.34708,-0.1827 0.29242,-0.201 0.51149,-0.21921 h 0.36542 l 0.32888,0.21921 0.21931,0.3837 0.16439,0.29229 0.1279,0.42031 0.037,0.3106 -0.23752,0.4019 -0.23749,0.27419 -0.16438,0.29231 0.073,0.3837 0.27408,0.40191 0.31062,0.3837 0.40188,0.3837 0.3289,0.23749 0.3837,0.34711 0.40191,0.21931 0.4568,0.091 0.45681,-0.055 0.42021,-0.091 0.36539,-0.073 0.42021,-0.073 0.49329,0.036 0.3106,0.055 0.62121,0.201 0.32888,0.2558 0.36542,0.32891 0.54809,1.11451 0.1461,0.36528 0.201,0.38381 0.29232,0.43841 0.16449,0.4567 v 0.38381 l -0.14621,0.3288 -0.1827,0.32887 -0.16438,0.23742 -0.073,0.40211 0.20098,0.5298 0.31062,0.2557 0.60288,0.10959 0.38373,0.018 0.54808,0.27421 0.34711,0.2557 0.32891,0.091 0.89519,0.055 0.78571,0.31059 0.36539,0.3107 0.16441,0.29232 v 0.3289 l -0.10962,0.2739 -0.21928,0.31059 -0.14611,0.14621 -0.2582,0.35219 -0.045,0.24551 0.045,0.11631 0.1615,0.14859 0.20031,0.097 0.14849,0.071 0.10991,0.20669 0.065,0.21321 0.019,0.2713 -0.0101,0.38748 0.0101,0.31661 0.019,0.30361 0.1034,0.3552 0.18079,0.38759 0.20031,0.40701 0.27128,0.41981 0.16791,0.3424 0.20672,0.3423 0.091,0.5426 -0.16801,0.51679 -0.2067,0.43932 -0.30998,0.50379 -0.29721,0.54261 -0.2454,0.55549 -0.19381,0.54261 -0.37471,0.54259 -0.38759,0.47802 -0.37459,0.4264 -0.27131,0.43919 -0.46511,0.60719 -0.43929,0.38762 -0.41341,0.4522 -0.23249,0.46511 0.4005,0.28419 0.5297,0.15499 0.58129,0.039 0.7235,0.19371 0.5814,0.49101 0.71051,0.801 0.43929,0.2067 0.51671,0.039 0.55549,-0.23249 0.51682,-0.19381 0.63299,-0.09 0.58142,0.1679 0.5038,0.1292 1.08529,-0.013 0.3488,0.21961 0.28422,0.052 0.42638,-0.2584 0.47802,-0.36171 0.58129,0.1937 1.7958,0.71062 1.0335,0.5814 1.3307,0.62011 0.8785,0.38748 0.5943,0.28429 0.065,0.24541 -0.2455,0.2972 -0.323,0.27131 -0.465,0.4005 -0.2584,0.23249 -0.3359,0.27141 -0.3618,0.14211 -0.2842,-0.013 -0.1679,0.078 -0.1551,0.18093 -0.026,0.23249 0.078,0.323 0.09,0.20669 0.065,0.62011 -0.039,0.38759 -0.09,0.2196 0.039,0.31012 0.1809,0.4522 0.2842,0.3229 0.1938,0.43929 0.026,0.3488 -0.168,0.36171 -0.2972,0.29711 -0.3746,0.32289 -0.5039,0.2843 -0.465,0.33589 -0.3488,0.2454 -0.4005,0.32311 -0.25845,0.25832 -0.27128,0.32308 -0.32287,0.28422 -0.29721,0.013 -0.36171,-0.19381 -0.21961,-0.20669 -0.31009,-0.21961 -0.63299,-0.065 -0.78801,0.25842 -0.1809,0.18079 -0.11631,0.28429 v 0.20672 0.33589 l 0.0259,0.3229 -0.065,0.55549 -0.078,0.20672 -0.16791,0.2454 -0.4522,0.24549 -0.43918,0.1679 -0.5039,0.27131 -0.2971,0.27141 -0.31012,0.323 -0.19378,0.1809 -0.46501,0.3746 -0.41352,0.36179 -0.63299,0.58132 -0.30998,0.28429 -0.95613,0.8268 -0.36169,0.30999 -0.76221,0.51681 -0.37471,0.24551 -0.32298,0.36168 -0.2713,0.33592 -0.2971,0.2713 -0.28422,0.33589 -0.29718,0.2584 -0.28421,0.18092 -0.1292,0.16788 0.013,0.4005 0.039,0.323 0.20672,0.54261 0.2326,0.49091 0.1937,0.38759 0.11629,0.2971 0.16801,0.36172 0.18079,0.3747 0.58142,0.28419 0.89138,0.14211 0.1809,0.43929 0.33592,0.5167 0.1162,0.54261 -0.18081,1.02069 -0.013,0.51671 0.077,0.4264 0.09,0.60719 0.077,0.41342 0.31009,1.266 0.28422,0.9819 0.09,0.4005 0.11632,0.40051 0.013,0.45209 -0.0259,0.4522 -0.21952,0.76221 -0.3101,0.50391 -0.7751,0.90429 -0.31009,0.4264 -0.2196,0.4004 -0.51682,0.60711 -0.013,0.23271 0.065,0.90419 0.11628,0.42651 0.18082,0.6201 0.60719,1.51149 0.86562,1.6795 0.37467,0.89141 0.67181,1.09811 0.60722,0.7752 0.76219,0.98179 0.38761,0.59431 -0.12922,0.38762 -0.34888,0.51668 -0.41341,0.43931 -0.58129,0.4263 -0.34881,-0.10329 -0.23259,-0.4005 -0.52973,-0.801 -0.38748,-0.478 -0.54261,-0.20672 -1.64082,0.23252 -1.48569,0.31009 -1.05932,0.18089 -1.21438,0.11621 -1.13692,0.077 -1.8604,0.25842 -1.66651,0.27128 -2.1317,0.29721 -1.3565,0.18082 -1.21441,0.078 -0.54258,-0.1421 -0.49091,-0.33592 -0.2326,-0.28419 -0.077,-0.55549 0.052,-0.21961 0.2455,-0.49101 0.1033,-0.38749 -0.013,-0.36182 -0.16787,-0.23249 -0.41352,-0.15499 h -0.33589 l -0.42641,0.16791 -0.2455,0.33588 -0.18079,0.9302 -0.16802,0.38762 -0.30998,0.78798 -0.18093,0.65892 -0.11628,0.38759 -0.19381,0.4005 -0.25828,0.34881 -0.43932,0.38759 -0.478,0.37462 -0.4263,0.32298 -0.89141,0.83971 -0.65889,0.49101 -0.27131,0.30999 -0.18089,0.36171 -0.09,0.32301 -0.052,0.71059 -0.09,0.59431 0.052,0.81389 0.0259,0.55549 0.013,0.63302 -0.09,0.62011 -0.20669,0.71059 -0.21982,0.62011 -0.09,0.50379 -0.013,0.4264 0.039,0.51671 v 0.4005 l -0.2454,0.43929 -0.2196,0.18092 -0.4522,0.33579 -0.19381,0.323 -0.2971,0.62011 -0.1292,0.68479 -0.11631,0.67181 v 0.43921 l 0.15502,0.49088 0.32298,0.36182 0.5039,0.14208 0.6201,0.23252 1.29192,0.64601 0.6459,0.3488 0.6718,0.33589 0.6847,0.33589 0.58139,0.20672 0.65892,0.2454 0.2584,0.24548 0.013,0.3488 -0.1292,0.24551 -0.1034,0.36171 0.1292,0.5555 0.18092,0.2713 0.19378,0.33589 0.09,0.31012 -0.1033,0.49088 -0.14211,0.31012 -0.12919,0.32298 -0.065,0.60722 0.039,0.2971 -0.027,0.32258 -0.24551,0.25842 -0.1679,0.09 -0.31009,0.2196 -0.34812,0.3751 -0.47799,0.5297 -0.16802,0.36171 -0.09,0.3101 -0.1809,0.3746 -0.3229,0.4005 -0.323,0.323 -0.43932,0.4263 -0.36168,0.33591 -1.16272,1.1886 -0.31009,0.41341 -0.41341,0.65879 -0.19378,0.5039 -0.11621,0.60722 0.09,0.5684 0.7493,0.9819 0.3488,0.2067 0.4005,0.41341 0.21961,0.43929 0.013,0.52959 -0.14219,0.41341 -0.2195,0.32301 -0.18089,0.36179 -0.052,0.38751 0.11621,0.43929 0.51681,0.63302 0.25839,0.20669 0.20669,0.23259 0.32301,1.08522 v 0.3746 l 0.013,0.3488 0.1033,0.5556 0.1938,0.25829 0.36169,0.11631 0.4264,-0.013 0.51682,-0.28422 0.3746,-0.3488 0.47799,-0.31009 0.46509,-0.2067 0.38761,-0.052 0.478,0.12919 0.69761,0.24551 0.78811,0.09 1.11099,0.065 0.49102,0.0259 0.51668,0.052 0.1421,0.11631 0.11632,0.3101 0.013,0.465 -0.039,0.4522 -0.013,0.3101 -0.052,0.31001 -0.38759,0.16801 -0.23252,0.013 -0.23259,0.013 -0.28419,0.065 -0.16801,0.16801 -0.11621,0.21958 -0.052,0.2971 -0.039,0.38765 -0.15499,0.478 -0.27131,0.4393 -0.24551,0.3358 -0.2971,0.3876 -0.18089,0.2326 -0.039,0.2454 -0.013,0.3359 0.09,0.4134 0.19381,0.2197 0.1162,0.4134 -0.14211,0.3617 -0.2454,0.3617 -0.31009,0.3101 -0.21961,0.3876 -0.09,0.5037 -0.039,0.5555 v 0.5426 0.5169 l -0.013,0.6201 0.039,0.6977 0.052,0.6071 0.24551,0.6072 0.31001,0.465 0.43929,0.3876 0.49091,0.4909 0.63299,0.4393 0.5297,0.2842 0.4264,0.2972 0.58132,0.3358 0.64598,0.4522 2.00243,0.9431 0.83979,0.5555 0.98181,0.6718 0.6331,0.5168 0.5942,0.5038 0.49099,0.4522 0.5038,0.4522 1.35652,0.9947 0.6589,0.3101 0.4909,0.5426 0.38759,0.4522 0.37471,0.3359 0.41341,0.065 0.23249,-0.052 0.20669,-0.3747 0.11632,-0.5813 0.065,-0.3618 0.32301,-0.3359 0.4263,-0.1808 0.47799,-0.052 0.5814,-0.09 0.6976,-0.039 0.68469,-0.1033 0.72351,-0.052 0.68472,-0.091 0.60719,-0.2196 0.5297,-0.4521 0.8785,-0.9561 1.03352,-0.956 0.93019,-0.7622 0.83972,-0.8527 0.55549,-0.6072 0.25839,-0.1033 0.31002,0.2196 0.323,0.4909 0.27125,0.7106 0.24551,0.8914 0.31,0.6072 0.168,0.5038 -0.09,0.6589 -0.09,0.5039 0.155,0.5297 0.2067,0.4909 0.2584,0.3488 0.4909,0.2196 0.3488,0.077 0.3747,0.1551 0.2713,0.2195 0.2584,0.31 0.6459,0.7364 0.09,0.6072 -0.026,0.7494 -0.1292,1.0851 0.2713,0.2713 0.4651,0.3231 0.4651,0.2583 0.323,0.2196 0.4392,0.2326 0.4005,0.155 0.2326,0.2196 0.1033,0.3747 -0.039,0.3877 -0.2325,0.4649 -0.4005,0.4652 v 0.2843 l -0.026,0.4134 -0.1938,0.4134 -0.2196,0.1421 -0.3488,0.1163 -1.3178,0.4909 -0.09,0.6072 -0.077,0.5684 0.026,0.4651 0.052,0.3876 0.5426,0.2196 0.4134,0.026 0.5297,0.6589 0.2067,0.3618 0.1938,0.2067 0.2455,0.4909 0.1162,0.2584 -0.052,0.31 -0.026,0.2584 0.2585,0.4005 0.5942,0.026 0.4651,0.013 0.5685,0.052 0.5942,0.078 0.5815,0.1033 0.3099,-0.039 0.336,-0.3617 0.2842,-0.478 0.4005,-0.2713 0.6071,-0.026 0.659,0.1421 0.6976,0.1679 0.5426,0.1421 0.323,0.2972 0.09,0.4263 -0.013,0.5297 -0.2325,0.6847 -0.1163,0.5426 -0.2067,0.801 -0.3617,1.8991 -0.168,1.0464 0.4005,0.2843 0.4651,-0.013 h 0.4005 l 0.2584,0.1422 0.1292,0.4263 0.013,0.478 0.013,0.4263 -0.013,0.5168 0.013,0.4522 v 0.491 0.5942 l 0.142,1.1885 v 0.4135 l 0.2068,0.323 0.3229,0.2712 0.4264,0.2196 0.5684,0.3102 0.9044,0.3229 0.6976,0.2843 0.7364,0.2455 0.9302,0.4134 0.2454,0.1162 0.4393,0.2843 0.4521,0.4263 0.3876,0.633 0.323,0.5556 0.4263,0.3875 0.5297,0.1938 0.5943,-0.026 0.4263,-0.1809 0.4005,-0.2325 0.4134,-0.1163 0.4134,0.2196 0.4005,0.2326 0.3876,0.2196 0.4392,0.2196 v 0.4651 l -0.026,0.4005 0.013,0.3746 0.1809,0.4522 0.2713,0.4263 0.5426,0.1938 0.6847,-0.1679 0.4651,-0.1938 0.4522,-0.09 0.2196,0.155 0.077,0.323 0.1034,0.4263 0.1679,0.3359 0.1163,0.155 0.2196,0.2067 0.1292,0.3488 -0.013,0.3489 -0.065,0.2454 -0.1421,0.5814 -0.09,0.4651 -0.077,0.5426 -0.1441,0.7094 0.047,0.3976 0.5379,0.2806 0.3741,0.07 0.6782,0.1404 0.6081,0.2806 0.4677,0.304 0.4209,0.2806 0.2807,0.2573 0.1638,0.4209 -0.047,0.3041 -0.4444,0.4911 -0.6781,1.5434 0.2805,0.3275 0.4678,0.1169 0.2105,0.093 0.608,0.2573 1.3564,0.8419 0.8887,0.5612 0.304,0.2573 0.8185,0.5846 0.8653,0.6315 0.725,0.3509 0.6782,0.3506 0.4209,0.2808 0.3508,0.3039 0.4443,0.5614 0.3508,0.491 0.5379,0.8887 0.5145,0.304 0.6314,0.2572 0.4911,0.234 0.3976,0.4443 0.3742,0.5613 0.304,0.6314 0.2572,0.4677 0.8419,0.4444 0.6315,0.2104 0.5612,0.2105 0.5847,0.4911 0.2105,0.3274 -0.1637,0.5379 -0.2573,0.3274 -0.8653,0.6782 -0.5612,0.3742 -0.2573,0.2572 -0.2105,0.1871 0.117,0.4911 0.3508,0.304 0.2104,0.07 0.3274,0.2339 0.3508,0.3274 0.2339,0.5378 0.2338,0.5379 0.3275,0.7484 0.4209,0.5379 0.5379,0.5378 0.2806,0.2339 0.6081,0.304 0.7249,-0.093 0.538,-0.1637 0.6782,0.093 0.4209,0.1403 0.4444,0.1403 0.5379,0.023 0.3975,-0.1169 0.3742,-0.5145 0.2105,-0.725 0.1403,-0.8419 0.3742,-2.4321 0.1871,-0.8887 0.3508,-2.1515 0.187,-0.725 0.3508,-0.1169 0.725,-0.047 0.6782,0.047 0.5847,0.1169 0.5846,0.2339 0.6314,0.2806 0.5379,0.421 0.5847,0.2572 0.4911,0.1637 0.5378,0.1871 0.4678,0.2806 0.2338,0.3274 -0.2104,0.6549 -0.3275,0.4911 -0.4443,0.6548 -1.3096,2.1515 -1.8709,2.8063 -0.7483,0.959 -0.421,0.5845 -0.047,0.3743 0.5613,0.4442 0.7016,0.421 0.4911,0.3274 0.4209,0.4209 v 0.6082 l -0.2105,0.6313 -0.1403,0.421 -0.1169,0.5379 -0.9822,0.1637 -2.0814,0.023 -1.8475,0.3274 -0.3508,0.2573 0.023,0.4442 -0.012,0.3273 c -0.2846,0.043 -0.5693,0.087 -0.8539,0.1299 l -0.9407,0.4016 -0.7097,0.2681 -0.396,0.1838 -0.4448,0.3495 -0.9054,0.8313 -0.6258,0.5322 -0.6257,0.5488 -0.4942,0.3828 -0.5598,0.4988 -0.8407,0.5498 -1.6313,1.1821 -0.7589,0.3676 -1.5493,1.0494 -1.2208,0.6013 -1.0399,0.3855 -1.139,0.4024 -0.8749,0.3185 -2.3277,0.8217 -0.9578,0.2693 -0.7924,0.2685 -0.7759,0.2849 -0.7759,0.2684 -0.8581,0.3681 -1.0388,0.6004 -1.3685,0.8335 -0.9872,1.0301 -1.1851,1.1138 -0.6413,0.7473 -0.6078,0.8298 -1.0979,2.0394 -0.4245,1.1266 -0.5546,1.5572 -0.7664,2.2031 -0.5059,1.3585 -0.4413,1.0605 -0.5386,1.4579 -0.4242,1.1596 -0.7212,1.31 -0.7066,0.913 -0.7404,0.7643 -1.4999,0.9996 -1.8151,0.8027 -1.0575,0.1871 -1.8186,0.075 -2.349,-0.154 -1.5721,-0.2237 -1.4069,-0.2576 -1.8042,-0.3384 -1.42401,-0.39 -2.06952,-0.5025 -1.68855,-0.372 -1.10972,-0.3583 -0.9601,-0.1939 -0.8105,-0.046 -0.8931,-0.012 -0.67789,0.02 -0.87572,0.1367 -0.6608,0.152 -1.1728,0.2538 -1.2886,0.2543 -1.45342,0.371 -1.173,0.2373 -1.37179,0.1555 -0.97531,0.071 -0.92621,-0.045 -1.6718,-0.3225 -1.20941,-0.4571 -1.17571,-0.325 -0.8949,-0.3759 -0.8958,-0.5744 -0.5972,-0.394 -0.68069,-0.5423 -0.79762,-0.7899 -1.7771,-1.5623 -0.83109,-0.8723 -0.86471,-0.9714 -1.3801,-1.5311 -1.08292,-1.6319 -0.73459,-1.4351 -0.5688,-1.3366 -0.6531,-1.667 -0.61881,-1.4026 -0.60039,-1.0389 -0.83231,-1.1038 -0.89831,-1.1036 -1.34729,-1.5974 -0.8976,-0.9548 -0.97992,-0.855 -0.99438,-0.4582 -0.74552,-0.2609 -0.71229,-0.2446 -1.73731,-0.2064 -1.372,0.1059 -1.4545,0.156 -1.24101,-0.1427 -1.07651,-0.3421 -2.2033,-0.7994 -1.37531,-0.5555 -1.045,-0.6563 -0.71472,-0.7407 -0.6495,-0.9229 -0.63379,-1.1049 -0.9358,-1.9963 -0.50121,-1.0228 -0.53549,-1.3038 -0.46911,-1.238 -0.6536,-1.7496 -0.56801,-1.1713 -0.7679,-1.4846 -0.63299,-0.9229 -0.86651,-1.3518 -0.79791,-0.8394 -1.4668,-2.3576 -1.11509,-1.4497 -0.79841,-0.9552 -0.73211,-0.9225 -0.947,-0.8883 -0.929,-0.6073 -1.50811,-0.6706 -1.0427,-0.1768 -1.68802,-0.2563 -1.14229,-0.259 -1.09389,-0.4907 -1.1121,-0.8544 -0.97981,-0.8386 -0.78031,-0.6411 -0.9801,-0.8882 -0.96272,-0.7394 -0.78089,-0.7403 -0.78089,-0.7569 -0.51592,-0.6589 -0.864,-0.8391 -0.59809,-0.5593 -0.69411,0.086 -0.11549,0.05 -0.31242,0.3654 -0.37608,0.8617 -0.29491,0.5803 -0.4454,0.2006 h -0.13232 l -0.61119,0.1518 -0.11459,0.2321 -0.047,0.5459 -0.064,0.3972 -0.18079,0.2324 -0.7094,0.3342 -0.2308,0.15 -0.1647,0.1331 -0.2943,0.6794 -0.22849,0.613 -0.1143,0.2982 -0.031,0.3475 0.085,0.413 0.13348,0.2308 0.16632,0.1976 0.18269,0.1645 0.166,0.1315 0.1827,0.1645 0.051,0.3635 -0.16351,0.3646 -0.19709,0.2821 -0.19682,0.3317 -0.18019,0.3482 -0.19661,0.3647 -0.13078,0.3149 -0.11451,0.2486 -0.032,0.1821 v 0.2315 l 0.9116,0.4254 1.10998,0.4245 0.53023,0.1959 0.51369,0.2124 0.28159,0.1144 0.13351,0.2309 -0.047,0.4632 -0.2295,0.4146 -0.26221,0.4808 -0.19658,0.3648 -0.2294,0.4476 -0.16351,0.3646 -0.13121,0.2322 -0.34578,0.2993 -0.28102,0.018 -0.47998,-0.08 -0.16521,0.034 -0.29681,0.1668 -0.49509,0.2174 -0.39671,0.019 -0.4466,-0.014 -0.8767,-0.045 h -0.3307 -0.13229 l -0.36481,-0.2132 -0.1165,-0.1483 -0.11689,-0.2309 -0.31552,-0.263 -0.33038,0.068 -0.16452,0.1828 -0.16399,0.2819 -0.16351,0.3646 -0.32899,0.3489 -0.13142,0.1991 -0.21349,0.2987 -0.21331,0.3317 -0.19759,0.1829 -0.33041,0.068 h -0.29758 l -0.52972,-0.097 -0.87739,-0.2107 -0.66321,-0.344 -0.53009,-0.1958 -0.51332,-0.1298 -0.28189,-0.1474 -0.23371,-0.4619 -0.051,-0.2643 -0.10062,-0.2807 -0.16719,-0.363 -0.28261,-0.2963 -0.33089,-0.031 -0.19772,0.1333 -0.2966,0.2164 -0.362,0.3821 -0.29538,0.448 -0.29552,0.4479 -0.4599,0.6306 -0.3289,0.382 -0.1479,0.1826 -0.26329,0.2659 -0.3623,0.2994 -0.36232,0.316 -0.27919,0.3983 -0.082,0.1492 -0.031,0.364 0.3493,0.4117 0.41471,0.2625 0.44799,0.312 0.56391,0.328 0.54719,0.3115 0.61341,0.3112 0.58,0.2452 0.49731,0.2456 0.43119,0.2459 0.4146,0.246 0.4317,0.3617 0.48242,0.5765 0.33319,0.5109 0.31681,0.5111 0.58269,0.8075 -0.44249,0.8124 -0.099,0.083 -0.7909,0.5992 -0.3457,0.3324 -0.4444,0.4156 -0.41151,0.3989 -0.32911,0.3324 -0.3618,0.4152 -0.31239,0.3653 -0.22971,0.3484 -0.41209,0.2832 -0.39651,0.068 -0.39661,0.052 -0.19749,0.1994 -0.13051,0.3644 -0.44509,0.2834 -0.4622,0.1841 -0.512,0.1183 h -0.34732 l -0.4631,-0.031 -0.595,0.069 -0.37978,0.1011 -0.36362,0.051 -0.28138,-0.048 -0.24882,-0.1642 -0.13308,-0.1647 -0.11631,-0.099 -0.36391,-0.015 -0.3302,0.1008 -0.3628,0.2002 -0.3342,0.3161 -0.5379,0.5481 -0.24659,0.2989 -0.32851,0.4646 -0.5262,0.5979 -0.31272,0.2992 -0.46098,0.4157 -0.5756,0.6477 -0.2476,0.1005 -0.36341,0.068 -0.39751,-0.1303 -0.2653,-0.131 -0.33149,-0.1638 -0.24871,-0.131 -0.26509,-0.098 -0.298,-0.081 -0.3968,0.035 -0.1483,0.1 -0.34502,0.4647 -0.1297,0.5298 -0.1792,0.5466 -0.11268,0.6124 -0.11301,0.5629 -0.096,0.6785 -0.096,0.6123 -0.065,0.298 -0.44407,0.4982 -0.49581,0.052 -0.47979,-0.047 -0.44702,-0.097 -0.2481,-0.015 -0.16579,-0.082 -0.32972,0.2001 -0.27948,0.3321 -0.27911,0.4148 -0.2126,0.4806 -0.14671,0.4472 -0.08,0.5461 -0.36201,0.3821 -0.28011,0.1998 -0.39529,0.3162 -0.2966,0.233 -0.2636,0.1997 -0.082,0.1001 -0.21312,0.3648 -0.031,0.3474 v 0.3638 l -0.063,0.5294 -0.41072,0.5644 -0.52811,0.2175 -0.46238,0.1347 -0.79341,0.053 -0.49689,-0.1465 -0.31541,-0.2464 -0.2508,-0.561 -0.13571,-0.6939 -0.036,-0.5952 v -0.7937 l -0.037,-0.7606 v -0.5622 -0.5458 l -0.068,-0.3469 -0.3174,-0.6599 -0.085,-0.3634 -0.036,-0.5455 -0.24972,-0.3295 -0.2155,-0.098 -0.3805,-0.048 h -0.43 l -0.54579,-0.014 -0.5462,-0.097 -0.26491,-0.081 -0.46511,-0.4111 -0.284,-0.5774 -0.1006,-0.2641 -0.21651,-0.3131 -0.29879,-0.23 -0.29811,-0.098 -0.33089,-0.032 -0.43011,-0.031 -0.7444,-0.046 -0.6454,-0.096 -0.3977,-0.18 -0.33211,-0.2795 -0.33207,-0.2795 -0.13463,-0.4623 -0.018,-0.3968 -0.1683,-0.5945 -0.61341,-0.3277 -0.63,-0.3111 -0.89469,-0.3595 -0.66281,-0.2613 -0.51351,-0.1794 -0.57978,-0.2121 -0.4971,-0.196 -0.4141,-0.1468 -0.4472,-0.1466 -0.54671,-0.1958 -0.39741,-0.097 -0.54689,-0.2453 -0.4472,-0.1467 -0.46342,-0.08 -0.46318,-0.031 -0.42921,0.151 -0.26271,0.3816 -0.16399,0.2819 -0.048,0.3641 0.46429,0.2623 0.2984,0.1473 0.58031,0.3114 0.2322,0.1477 0.23378,0.4619 -0.08,0.5957 -0.21201,0.613 -0.52411,1.0278 -0.34399,0.6631 -0.2622,0.4975 -0.4258,0.8288 -0.1796,0.464 -0.2803,0.1667 -0.5787,0.019 h -0.59531 l -0.56211,0.036 h -0.59529 l -1.00881,-0.028 -0.6287,-0.063 -0.6617,-0.046 -0.54592,-0.03 -0.41349,-0.015 -0.19849,-0.016 -0.34642,0.1836 -0.1469,0.381 -0.065,0.2154 -0.23071,0.1664 -0.4462,0.068 -0.49599,0.019 -0.31372,0.084 -0.57809,0.1516 -0.59341,0.3833 -0.62619,0.4496 -0.95462,0.9307 -0.34509,0.4316 -0.39471,0.4485 -0.4608,0.4487 -0.41119,0.4485 -0.29581,0.3818 -0.21349,0.2987 -0.1479,0.1992 -0.31271,0.2992 -0.4626,0.085 -0.54581,-0.014 -0.6122,-0.08 -0.679,-0.1786 -0.49681,-0.1298 -0.41378,-0.081 -1.34171,-0.4564 -0.18251,-0.1149 -0.084,-0.3633 0.014,-0.4301 0.1134,-0.4802 0.19518,-0.6623 0.17762,-0.8773 0.27839,-0.5637 0.3769,-0.6963 0.3116,-0.5142 0.27911,-0.4314 0.27919,-0.3817 0.37831,-0.4152 0.3784,-0.4154 0.3456,-0.3489 0.42839,-0.3164 0.44472,-0.3494 0.29659,-0.233 0.13129,-0.1991 -0.018,-0.3306 -0.051,-0.2974 0.0151,-0.3143 0.098,-0.3643 0.031,-0.4466 0.014,-0.4631 -0.035,-0.314 -0.53438,-1.0723 -0.13411,-0.3631 -0.1342,-0.3797 0.014,-0.5458 0.22911,-0.4972 0.24611,-0.3981 0.36158,-0.4483 0.41082,-0.5312 0.3287,-0.415 0.41179,-0.3162 0.49401,-0.4324 0.64011,-0.9953 0.34398,-0.6632 0.34481,-0.4978 0.14751,-0.2653 -0.13582,-0.7269 -0.1185,-0.5452 -0.2186,-0.743 -0.16759,-0.4622 -0.20111,-0.5448 -0.7357,-1.65 -0.43159,-0.3287 -0.36452,-0.1304 -0.1673,-0.3961 0.08,-0.5461 0.2126,-0.4806 0.12991,-0.4967 v -0.6946 l -0.1692,-0.7764 -0.58471,-1.2208 -0.3162,-0.4119 -0.3651,-0.2462 -0.44731,-0.1797 -0.46368,-0.1301 -0.43072,-0.1632 -0.3324,-0.3291 -0.25019,-0.4453 -0.16761,-0.4457 -0.21789,-0.5942 -0.16811,-0.5614 -0.23321,-0.3461 -0.43259,-0.5436 -0.53161,-0.477 -0.36539,-0.3289 -0.38261,-0.4611 -0.4817,-0.4442 -0.34801,-0.1471 -0.20098,-0.5117 -0.051,-0.3139 -0.43101,-0.2129 -0.43008,-0.031 h -0.3307 l -0.381,-0.1304 -0.24972,-0.3295 -0.16769,-0.4788 -0.25011,-0.4121 -0.54589,-0.047 -0.3457,0.3324 -0.24501,0.6131 -0.063,0.6949 0.11819,0.4955 0.44852,0.4112 0.3815,0.2462 0.036,0.5786 -0.41259,0.1674 -0.41331,0.018 -0.69551,-0.195 -0.3982,-0.2792 -0.28369,-0.5112 -0.18399,-0.4291 -0.1007,-0.2971 -0.56192,0.069 -0.31301,0.2331 -0.32848,0.4646 -0.27871,0.481 -0.37719,0.6468 -0.7061,1.0122 -0.54512,0.1184 -0.098,0.3477 0.018,0.2976 v 0.3969 l -0.21262,0.4971 -0.57809,0.1351 -0.71091,0.02 -0.23109,0.1003 -0.4278,0.4321 -1.67871,1.6453 -1.85982,1.7951 -1.21719,1.3289 -0.8395,0.7814 -0.60989,0.3999 -0.29742,0.051 -0.54549,0.052 -0.26501,-0.098 -0.2494,-0.2634 -0.23339,-0.3957 -0.28411,-0.5939 -0.7117,-0.1288 -0.6254,0.6149 -0.0159,0.1654 -0.049,0.1822 0.067,0.2312 0.20309,0.9416 -0.013,0.6615 -0.0151,0.2646 -0.098,0.2321 -0.21402,0.1994 -0.16518,0.034 -0.26461,-0.015 -0.34801,-0.1471 -0.1329,-0.1152 -0.2155,-0.1147 -0.2812,-0.015 -0.26429,0.067 -0.29711,0.1007 -0.13189,0.1 -0.21371,0.2491 -0.1312,0.2156 -0.22969,0.3815 -0.1307,0.3313 -0.13071,0.315 -0.08,0.6453 -0.065,0.3145 -0.11469,0.2154 -0.079,0.8604 0.2159,0.1808 0.31498,0.1639 0.2158,0.1642 0.19981,0.2801 0.018,0.2646 -0.048,0.2813 0.052,0.3966 0.117,0.2641 0.28192,0.1639 0.2151,0.032 0.23189,0.065 0.25072,0.5444 0.11819,0.4955 0.1171,0.2806 0.10099,0.3633 0.019,0.4629 -0.1138,0.3975 -0.065,0.1828 -0.1066,0.1907 -0.2059,0.1581 -0.3883,0.076 -0.23961,0.034 -0.31451,-0.065 -0.24048,-0.1559 -0.21622,-0.2387 -0.20018,-0.3711 -0.068,-0.3635 -0.035,-0.3553 -0.54811,-0.4852 -0.20731,-0.123 -0.076,-0.2642 0.0151,-0.3639 0.023,-0.3474 -0.2667,-0.4369 -0.3484,-0.2298 -0.4063,-0.246 -0.41531,-0.3783 -0.61519,-0.675 -0.3333,-0.5276 -0.83291,-1.2444 -0.5738,-0.6586 -0.60651,-0.6006 -0.43299,-0.618 -0.34142,-0.4862 -0.42497,-0.6759 -0.37481,-0.5439 -0.84151,-1.2857 -0.9819,-1.2768 -0.6826,-0.931 -0.98211,-1.3181 -0.99899,-1.3924 -0.79092,-1.0958 -0.38219,-0.3702 -0.39,-0.2875 -0.40701,-0.3783 -0.62249,-0.4848 -0.88831,-0.7398 -1.45281,-1.1835 -1.24511,-0.9861 -1.60211,-1.2903 -1.14578,-0.9617 -1.3621,-1.2501 -1.31152,-1.0271 -0.98039,-0.9792 -0.59751,-0.4353 -0.3978,-0.1883 -0.54621,-0.1048 h -0.82691 l -0.62018,-0.03 -0.54592,-0.022 -0.323,-0.1142 -0.20849,-0.3627 -0.076,-0.3551 0.1374,-0.6458 0.055,-0.5707 -0.15151,-0.545 -0.068,-0.4048 -0.077,-0.5123 -0.13369,-0.2722 -0.24839,-0.081 -0.20672,0.01 -0.6857,0.1192 -0.16549,-0.032 -0.17421,-0.1232 -0.1007,-0.3054 -0.043,-0.2892 v -0.4216 l 0.013,-0.7195 -0.34801,-0.1636 -0.48799,-0.022 -0.47139,-0.022 -0.23212,-0.1229 -0.234,-0.5115 -0.035,-0.3636 0.037,-0.8188 0.039,-0.3888 0.081,-0.3311 0.0151,-0.397 0.063,-0.6204 0.12192,-0.4471 0.08,-0.5544 -0.093,-0.446 -0.12469,-0.1234 -0.27311,-0.065 -0.21608,-0.2139 -0.10872,-0.2475 0.014,-0.521 0.10652,-0.2072 0.12258,-0.2983 0.10541,-0.4139 0.16809,-1.1254 0.014,-0.5127 0.046,-0.7113 0.054,-0.7278 0.014,-0.4135 0.047,-0.5377 -0.063,-1.149 v -0.6614 l 0.11372,-0.414 0.1052,-0.4718 0.089,-0.3395 0.081,-0.4138 0.046,-0.7195 -0.01,-0.3473 -0.052,-0.4627 -0.01,-0.3803 0.056,-0.298 0.17209,-0.3233 0.1475,-0.2653 0.3687,-0.6881 0.049,-0.1904 0.04,-0.2813 -0.018,-0.4051 -0.018,-0.405 v -0.339 l 0.04,-0.2235 0.09,-0.2567 0.09,-0.2898 0.10581,-0.3478 0.023,-0.364 -0.059,-0.2229 -0.19093,-0.1479 -0.10779,-0.066 h -0.12398 l -0.13221,0.025 -0.18151,0.084 -0.21429,0.1416 -0.18952,0.125 -0.2889,0.1089 -0.37208,-0.01 -0.21521,-0.04 -0.28991,-0.1061 -1.05979,-0.309 -0.43022,-0.039 -0.21529,-0.065 -0.45529,-0.1218 -0.3728,-0.1387 -0.28131,-0.04 -0.3306,0.026 -0.289,0.076 -0.7841,0.2849 -0.4373,0.2006 -1.24611,0.4851 -0.69361,0.1936 -0.30538,0.1007 -1.13171,0.2288 -0.4875,0.052 -0.068,-0.3552 0.19453,-0.803 0.17049,-0.6375 0.16939,-0.8607 0.089,-0.3808 0.23471,-1.0182 0.1695,-0.8607 0.097,-0.4304 0.14679,-0.4059 0.064,-0.3476 -0.0259,-0.2562 -0.12512,-0.2061 -0.1578,-0.148 -0.2403,-0.1063 -0.2563,0.01 -0.16489,0.083 -0.2136,0.2739 -0.37952,0.1755 -0.21508,-0.015 -0.1824,-0.098 -0.092,-0.2311 v -0.2894 l 0.057,-0.24 0.28681,-0.5389 0.0241,-0.1737 -0.26551,-0.1972 -0.28959,-0.032 -0.34743,-0.04 -0.28969,-0.057 -0.2654,-0.1723 -0.58921,-0.4271 -0.52308,-0.4522 -0.47271,-0.2788 -0.72879,-0.2527 -0.57992,-0.2122 -0.44749,-0.221 -0.37351,-0.2876 -0.36521,-0.2793 -0.3646,-0.1718 -0.431,-0.2046 -0.22408,-0.1808 -0.39931,-0.4859 -0.71451,-0.6993 -0.28199,-0.1723 -0.522,-0.2206 -0.28192,-0.1723 -0.2745,-0.3211 -0.11729,-0.3136 -0.0259,-0.3554 0.18812,-0.4144 0.2771,-0.82 0.3415,-1.1757 0.30869,-1.1343 0.2759,-1.0514 0.14309,-1.1749 0.17082,-0.5631 0.17949,-0.497 0.22932,-0.4476 0.17139,-0.4556 0.15489,-0.4472 0.1605,-1.0013 0.097,-0.5131 0.1719,-0.3481 0.19682,-0.34 0.19648,-0.3895 0.19701,-0.2987 0.23889,-0.1748 0.33891,-0.018 0.45569,0.1797 0.33153,0.1637 0.64659,0.3441 0.6382,0.3194 0.6884,0.4348 0.7049,0.4266 0.46429,0.254 0.41971,0.2533 0.33121,0.081 0.30009,-0.1411 v -0.2399 l -0.1007,-0.2889 -0.2335,-0.4039 -0.21679,-0.371 -0.23461,-0.6439 -0.28768,-1.3297 -0.1515,-0.5533 -0.16971,-0.8838 -0.28461,-0.7015 -0.22328,-0.015 -0.27261,0.059 -0.264,0.1253 -0.70252,0.061 -0.17418,-0.1315 -0.20092,-0.4868 -0.018,-0.2893 0.01,-0.4466 0.01,-0.4051 -0.0259,-0.3141 -0.27549,-0.5361 -0.23251,-0.1973 -0.32309,-0.1306 -0.35631,-0.1637 -0.2408,-0.1973 -0.5656,-0.6917 -0.0259,-0.1818 0.0241,-0.2482 0.23508,-0.9437 0.056,-0.2897 0.04,-0.3144 -0.027,-0.3802 -0.076,-0.3304 -0.12581,-0.3466 -0.14991,-0.2308 -0.175,-0.2802 -0.15798,-0.1729 -0.21662,-0.32969 -0.25058,-0.5279 -0.076,-0.27249 -0.051,-0.3636 -0.01,-0.42161 -0.11761,-0.36319 -0.076,-0.24771 -0.067,-0.25601 -0.1506,-0.35478 -0.12579,-0.37142 -0.19251,-0.47869 -0.22569,-0.50321 -0.084,-0.24771 -0.12581,-0.3715 -0.093,-0.41299 -0.034,-0.28091 0.057,-0.22349 0.1977,-0.14161 0.1977,-0.14978 0.14808,-0.14131 0.27882,-0.48091 0.20558,-0.23249 0.3628,-0.20849 0.45432,-0.093 0.37161,-0.093 0.29678,-0.16682 0.24731,-0.1583 0.181,-0.1828 0.12279,-0.24868 0.29652,-1.91972 0.33679,-2.12659 0.2218,-1.97711 0.0159,-0.05 0.19699,-1.96041 0.0119,-0.90959 0.013,-0.63672 -0.97701,-0.27639 -0.81068,-0.087 -0.84381,-0.079 -1.17402,0.014 -0.78568,-0.029 -0.85223,-0.1115 -0.64569,-0.16222 -0.51329,-0.14639 -1.0677,-0.2345 -0.78592,-0.087 -0.819,-0.087 -0.66191,-0.08 -0.68638,-0.03 -0.5624,-0.039 -1.35711,-0.21658 -0.9766,-0.18542 -0.59601,-0.13759 -0.63711,-0.1044 -0.54629,-0.1048 -0.7614,-0.12862 -0.81071,-0.095 -0.91829,-0.095 -0.64551,-0.11258 -1.2654,-0.10131 -0.69511,-0.096 -0.67871,-0.13721 -0.61238,-0.121 -0.40543,-0.039 z"
fill="#3333"        id="path6347" />
  </g>
</svg>
