<?xml version="1.0" encoding="UTF-8" standalone="no"?>
<!-- Created with Inkscape (http://www.inkscape.org/) -->

<svg
   width="2084.2314"
   height="1613.0347"
   viewBox="0 0 551.45273 426.78342"
   version="1.1"
   id="svg5"
   inkscape:version="1.1.2 (0a00cf5339, 2022-02-04, custom)"
   sodipodi:docname="Saarland_silhouette.svg"
   xmlns:inkscape="http://www.inkscape.org/namespaces/inkscape"
   xmlns:sodipodi="http://sodipodi.sourceforge.net/DTD/sodipodi-0.dtd"
   xmlns="http://www.w3.org/2000/svg"
   xmlns:svg="http://www.w3.org/2000/svg">
  <sodipodi:namedview
     id="namedview7"
     pagecolor="#ffffff"
     bordercolor="#666666"
     borderopacity="1.0"
     inkscape:pageshadow="2"
     inkscape:pageopacity="1"
     inkscape:pagecheckerboard="0"
     inkscape:document-units="cm"
     showgrid="false"
     inkscape:zoom="0.0916465"
     inkscape:cx="496.47286"
     inkscape:cy="720.15843"
     inkscape:window-width="1920"
     inkscape:window-height="1009"
     inkscape:window-x="-8"
     inkscape:window-y="-8"
     inkscape:window-maximized="1"
     inkscape:current-layer="layer1"
     units="px"
     fit-margin-left="10"
     fit-margin-top="10"
     fit-margin-right="10"
     fit-margin-bottom="10" />
  <defs
     id="defs2" />
  <g
     inkscape:label="Ebene 1"
     inkscape:groupmode="layer"
     id="layer1"
     transform="translate(-428.62963,-479.72226)">
    <path
       d="m 444.51823,552.3582 -0.43339,0.7402 -0.23151,0.4571 -0.2667,0.4691 -0.38285,0.5748 -0.40667,0.5399 -0.55827,0.6342 -0.53472,0.599 -0.48843,0.5637 -0.51117,0.6807 -0.45324,0.5869 -0.56964,0.6694 -0.74349,0.9625 -0.69718,0.9155 -1.10516,1.1397 -0.90779,0.8698 -0.91996,0.753 -0.48895,0.4584 -0.70962,0.7519 -0.59267,0.7279 -1.46235,2.2055 -0.32465,0.598 -0.20558,0.9598 0.0389,0.8183 0.086,0.9234 0.32068,1.0157 0.79613,2.5452 0.77153,2.3465 1.36419,3.9105 0.93928,3.1525 0.67839,2.3938 0.39238,1.3544 0.65432,2.2419 0.4146,1.0854 0.063,0.8533 -0.15769,1.217 -0.16881,1.3221 -0.22251,2.2579 -0.0106,1.2863 0.0185,1.3446 0.20479,1.2853 0.30903,0.9807 0.33205,0.9455 0.1569,1.0399 0.027,0.7716 -0.11165,1.0413 -0.13573,0.9244 -0.0778,0.8072 v 2.1866 l -0.0751,1.4036 0.18176,1.3321 0.13812,1.8819 -0.073,1.8245 0.26485,1.5422 0.14314,0.5723 0.2966,0.8521 0.3294,0.4077 0.25956,0.4664 0.35454,0.7583 0.31856,0.5831 0.32914,0.3258 0.48128,0.4069 0.43657,0.7462 0.77285,0.2184 0.66596,-0.073 0.62971,-0.3423 0.48868,-0.4936 0.47811,-0.2946 0.43206,-0.1191 0.71359,0.09 0.4572,0.2199 0.85487,0.2414 0.72549,0.1367 0.63341,0.3711 0.6911,0.2421 0.81888,0.078 h 0.64321 l 1.28588,-0.053 0.771,-0.1674 1.34144,-0.6381 0.79401,-0.2495 0.71253,-0.1438 0.89985,-0.086 0.65432,-0.1085 0.65299,-0.3774 0.68713,-0.553 0.71067,-0.5297 0.51223,-0.4936 0.55881,-0.4939 0.81544,-0.6238 0.62892,-0.5176 1.14009,-1.1632 0.55775,-0.7277 0.47625,-0.6572 0.61542,-0.8334 0.5461,-0.7393 0.38444,-0.2591 0.51462,0.01 0.47996,0.1261 0.48075,0.2432 0.44503,0.1615 0.5379,-0.014 0.44291,-0.2945 0.3138,-0.3874 0.31432,-0.2705 0.30348,-0.1067 0.42095,-0.014 0.98558,0.6851 0.49398,0.5939 0.42386,0.5827 0.41275,0.6877 0.20162,0.572 0.1307,0.4321 -0.0212,0.304 0.096,0.479 0.21246,0.4317 0.34158,0.4659 0.47017,0.5123 0.45852,0.5004 0.3646,0.4309 0.49371,0.5355 0.59823,0.3596 0.58499,0.067 0.45535,-0.1425 0.37227,-0.3527 0.44397,-0.084 0.42149,0.068 0.76279,0.5809 0.44583,0.3017 0.51593,0.2781 0.79667,0.3119 0.43365,0.1965 0.49292,0.3601 0.36407,0.3257 0.38788,0.419 0.63368,0.4646 0.64426,0.219 0.64373,0.1254 0.67813,-0.015 0.66543,-0.2138 0.72338,-0.3544 0.52467,-0.2949 0.60616,-0.3655 0.55933,-0.3886 0.56065,-0.1665 0.5387,0.2079 0.44635,0.3836 0.44556,0.2784 0.6096,0.3011 0.56462,0.6754 0.40058,0.606 0.45932,0.676 0.36513,0.501 0.77576,0.803 0.74031,0.7681 0.62283,0.6283 0.62309,0.6635 0.61119,0.6518 0.91705,1.0128 0.97526,0.954 0.77549,0.7562 0.56357,0.4767 0.76253,0.499 0.67972,0.2773 0.80724,0.1012 0.91308,0.1709 1.59227,0.4365 1.03003,0.2054 0.85407,0.066 1.01786,0.1236 0.69162,0.3824 0.95092,0.7671 1.20994,1.0815 1.19724,0.9412 0.59929,0.5817 0.69374,0.7683 0.67098,0.9088 0.60008,0.7454 0.79984,0.9666 1.26947,1.3267 0.54028,0.5002 0.44609,0.3369 0.48049,0.2315 0.57441,0.3128 0.43418,0.3019 0.64532,0.4178 0.65697,0.4411 0.68051,0.4644 0.7149,0.359 1.39225,0.1334 0.93557,0.042 0.77179,0.01 0.7837,0.055 0.59716,0.1374 0.34052,0.2672 0.45853,0.5239 0.37624,0.4074 0.4572,0.2551 0.37438,0.021 0.4318,-0.1425 0.50298,0.021 0.57494,0.4181 0.36592,0.6998 0.34264,0.6999 0.82471,1.2588 0.42307,0.3955 0.82179,0.6741 0.44583,0.3018 0.38761,0.3373 0.59929,0.6284 0.59928,0.57 0.36513,0.5478 0.24844,0.5834 0.0648,1.3327 0.29581,0.7002 0.30665,0.513 0.44636,0.4421 0.49265,0.2899 0.37439,0.021 0.45641,0.1381 0.43471,0.3954 0.1307,0.4203 -0.17251,0.5154 -0.80566,0.3314 -0.52519,0.1662 -0.37307,0.2358 -0.30242,0.3055 -0.5715,0.3302 -0.63156,-0.032 -0.49186,-0.1729 -0.53817,-0.079 -0.51409,0.084 -0.68765,0.4828 -0.46567,0.4466 -0.46514,0.4818 -0.96467,1.1974 -0.78052,0.6119 -0.62918,0.4708 -0.5596,0.3419 -0.39529,0.4112 -0.26644,0.5509 -0.18441,0.5505 -0.12594,0.5385 -0.032,0.5381 0.0971,0.6426 0.2368,0.5835 0.29713,0.9457 0.086,0.8064 0.0159,0.6781 0.10822,0.6894 0.24923,0.6536 0.25956,0.4898 0.5162,0.3716 0.58553,0.1608 0.39688,-0.095 0.47889,-0.166 0.40905,-0.025 0.56198,0.196 0.30559,0.2908 0.38762,0.2904 0.62151,0.3711 0.56277,0.2896 0.51461,0.068 0.3048,0.1271 0.38709,0.2904 0.0841,0.479 -0.13759,0.5503 -0.1143,0.5151 0.0609,0.5142 0.10901,0.7361 0.1434,0.5606 0.29448,0.513 0.34132,0.3959 0.5633,0.3949 0.62098,0.3008 0.52731,0.1728 1.1348,0.1932 0.62072,0.149 0.48181,0.477 0.35507,0.8403 0.24791,0.5599 0.34132,0.4194 0.2831,0.4663 0.37598,0.3606 0.63262,0.2308 0.54927,-0.014 0.59611,-0.038 0.64321,-0.027 0.88741,-0.1915 0.97023,-0.1334 0.40878,-0.061 0.72391,-0.2375 0.60722,-0.1901 0.36195,-0.037 0.47942,-0.014 0.37518,0.1268 0.29343,0.2909 0.27173,0.4897 0.21246,0.4785 0.4019,0.8983 0.34078,0.3257 0.10584,0.081 0.73792,0.2185 0.68977,0.02 0.4326,0.01 0.51462,0.033 0.5506,0.2078 0.45878,0.559 0.12013,0.584 -0.0431,0.8071 -0.28893,0.6797 -0.24183,0.7378 -0.032,0.6316 0.0159,0.5846 -0.0212,0.6432 -0.31248,0.6563 -0.20796,0.5039 -0.26485,0.8316 0.0106,0.9119 -0.086,1.5558 -0.055,0.8071 -0.0212,0.2924 -0.27463,1.2057 -0.0212,0.4562 0.20135,0.4901 0.46858,0.1848 0.46725,-0.096 0.57177,-0.2483 0.47837,-0.2012 0.47783,-0.2947 0.5252,-0.2481 0.45509,-0.1777 0.61833,-0.2603 0.59558,-0.2017 0.46699,-0.1309 0.58473,0.032 0.51541,0.1611 0.52811,0.395 0.46964,0.3836 0.37624,0.4191 0.24765,0.4548 0.2376,0.7121 0.31856,0.5948 0.32993,0.4894 0.2376,0.794 -0.6821,1.5819 -0.32438,0.6214 -0.53261,1.0199 -0.41751,0.7154 -0.30189,0.4458 -0.20823,0.4688 -0.19685,0.3751 -0.38444,0.2708 -0.63051,0.1903 -0.4437,0.1425 -0.39556,0.4346 -0.24209,0.6677 0.0609,0.6194 -0.0106,0.4795 -0.24289,0.5507 -0.34925,0.3058 -0.34899,0.3525 -0.28945,0.5744 -0.13706,0.6555 v 0.6431 l 0.0106,0.9238 -0.0788,0.5265 -0.24421,0.2351 -0.35031,0.1421 -0.84217,-0.1011 -0.36486,-0.4426 -0.17833,-0.6071 -0.0852,-0.6544 -0.0159,-0.6197 -0.0849,-0.5609 -0.21273,-0.4432 -0.48181,-0.4537 -0.47069,-0.6291 -0.48207,-0.5589 -0.55193,-0.4767 -0.56197,-0.1376 -0.70221,-0.1017 -0.70274,-0.1719 -0.65669,-0.3944 -0.458,-0.3953 -0.46911,-0.29 -0.57362,-0.1726 -0.71358,-0.02 -0.72417,0.097 -0.4437,0.1776 -1.00304,0.5545 -0.60511,0.5292 -0.46619,0.2946 -0.43101,0.4231 -0.34819,0.4812 -0.091,0.4214 0.0489,0.4908 0.20161,0.6071 0.29634,0.7937 -0.0299,1.0525 -0.0669,0.585 -0.0212,0.5848 0.0971,0.5841 0.28417,0.747 0.49556,0.8979 0.50668,0.8394 0.42466,0.6995 0.45826,0.4421 0.55192,0.4767 0.62177,0.4764 0.73952,0.4874 0.64452,0.3243 0.41037,0.2201 0.32862,0.2674 0.25929,0.3962 0.16589,0.467 0.5432,1.0146 0.23521,0.2795 0.23574,0.3846 0.0498,0.5962 -0.0918,0.363 -0.21934,0.5389 -0.0106,0.3157 0.29501,0.5365 0.44609,0.3019 0.56251,0.3129 0.50377,0.1612 0.53763,-0.096 0.40667,-0.4698 0.31353,-0.4224 0.4654,-0.4585 0.6186,-0.2953 0.3392,0.033 0.35242,0.3373 0.33021,0.5129 0.45799,0.3953 0.82021,0.4286 0.43498,0.3838 0.35242,0.3607 0.43498,0.5357 1.06971,1.0472 0.30639,0.548 0.13124,0.4905 -0.0106,0.4561 -0.35877,0.7501 -0.38312,0.5748 -0.62707,0.8685 -0.38311,0.5983 -0.38286,0.5982 -0.24289,0.5391 -0.27807,0.5276 -0.20717,0.6441 -0.045,0.4329 0.0265,0.5728 0.20214,0.7006 0.77735,1.107 0.35348,0.5596 0.29448,0.4428 0.47017,0.4538 0.44582,0.3135 0.57468,0.3713 1.60656,0.9275 0.57494,0.3597 0.22278,0.1392 1.0922,0.9535 0.39952,0.419 0.41222,0.606 0.33047,0.6064 0.21299,0.5134 0.6612,1.2713 0.25929,0.4314 0.41249,0.6411 0.3765,0.4892 0.32941,0.4077 0.7403,0.7447 0.41143,0.3955 0.30533,0.2791 0.47043,0.5473 0.37889,0.957 0.42412,0.6293 0.43472,0.4305 0.45773,0.3602 0.38629,0.068 0.36142,-0.1889 0.61754,-0.4824 0.64162,-0.2722 0.68977,-0.038 1.2282,0.087 0.73845,0.3355 0.72761,0.5694 0.48207,0.5004 0.70618,0.9437 1.12792,1.0819 1.14988,0.8245 0.85593,0.4284 1.2544,0.6954 0.59954,0.6051 0.56436,0.617 1.16602,1.7482 0.44794,0.6994 0.76465,0.9316 0.44636,0.4189 0.52811,0.3832 0.51726,0.5821 0.70379,0.441 0.48022,0.1262 0.52679,0.1376 0.39899,0.2671 0.2241,0.4081 0.20162,0.5837 0.13282,0.8179 0.0381,0.526 0.20346,0.9929 0.24792,0.4899 0.27173,0.5131 0.39952,0.419 0.50297,0.079 0.77074,-0.2143 0.54769,-0.447 0.45429,-0.3648 0.50086,-0.3182 0.51382,-0.1545 0.66754,0.2189 0.46964,0.3601 0.70353,0.4409 1.14883,0.4972 0.59796,0.3829 0.36353,0.2087 0.2466,0.1742 0.3175,0.3843 0.0601,0.3154 -0.195,0.7493 -0.57918,1.102 -0.2786,0.4106 -0.19606,0.5506 -0.068,0.4681 0.05,0.6896 0.10716,0.3854 0.23706,0.6536 0.18971,0.5487 0.0781,1.6132 -0.14896,0.6322 -0.14949,0.5152 -0.24236,0.6444 -0.34713,0.7617 -0.54478,0.9382 -0.26723,0.3404 -0.38338,0.5515 -0.40667,0.5165 -0.45297,0.6103 -0.3593,0.6448 -0.34793,0.5864 -0.10054,0.9477 0.29951,1.4718 0.35639,1.1208 0.61463,1.3183 0.47122,0.711 0.56304,0.3714 0.65564,0.1487 h 0.7366 l 0.60722,-0.155 0.60696,-0.2602 0.50086,-0.365 0.53631,-0.3417 0.54822,-0.2483 0.36195,-0.1421 0.56092,-0.061 0.49159,0.079 0.48128,0.3952 0.4699,0.4654 0.37598,0.3489 0.59849,0.4064 0.57467,0.3479 0.60987,0.3829 0.3519,0.2087 0.50482,0.4068 0.44715,0.6059 0.5416,0.7339 0.45853,0.5239 0.50456,0.3133 0.65591,0.254 0.25796,0.1507 0.5887,0.7806 0.0132,0.5963 -0.19658,0.4569 -0.73211,0.9041 -0.33681,0.5045 -0.43022,0.4931 -0.36036,0.3878 -0.43048,0.4581 -0.19658,0.4688 -0.1614,0.4568 0.0381,0.6078 0.0968,0.5842 0.35401,0.6531 0.58844,0.7922 0.42333,0.4774 0.39979,0.4306 0.24765,0.4665 0.086,0.8298 0.0106,0.9238 0.0529,1.2742 0.14605,1.0751 0.35481,0.8168 0.24765,0.4782 0.0392,0.8417 -0.16061,0.6088 -0.2667,0.4808 -0.52229,0.8094 -0.31168,0.7733 -0.18309,0.8545 0.0106,1.5317 0.25056,0.9927 0.2974,1.0627 0.31988,0.852 0.57706,0.8156 0.44847,0.8163 0.31776,0.4311 0.576,0.6052 0.65749,0.5464 0.73819,0.312 0.57256,-0.073 0.89853,-0.402 0.34978,-0.2122 0.62971,-0.3539 0.61887,-0.155 0.70167,0.01 0.91202,-0.016 0.88821,-0.063 0.68845,-0.3308 0.78185,-0.2962 0.71226,-0.2374 0.66437,-0.3892 0.65273,-0.4241 0.82735,-0.5771 0.59452,-0.3771 0.76862,-0.6352 0.73634,-0.1089 0.72575,0.1952 0.65776,0.5581 0.42333,0.4773 0.48446,1.0266 0.2622,1.0043 0.29766,1.1094 0.61648,1.7042 0.47228,0.9331 0.46038,0.863 1.09987,2.497 0.41302,0.758 0.2712,0.4898 0.0619,0.6428 -0.2884,0.7498 -1.1258,1.7595 -1.22,1.4794 -2.17382,2.6534 -0.87181,1.0684 -0.89429,1.2088 -1.52163,2.0655 -0.55747,0.7511 -0.48843,0.6105 -0.46461,0.6337 -0.25479,0.4924 -0.17172,0.7141 0.0971,0.6543 0.46064,0.9098 0.5424,0.9211 0.53049,0.8627 0.63685,1.1077 0.37862,0.8868 0.40217,0.9101 0.42598,1.0503 0.38126,1.4364 0.16669,0.6072 0.70644,0.9904 0.83291,0.5455 0.66861,0.4177 0.78581,0.4756 0.68104,0.5461 0.43524,0.5592 0.34264,0.7232 0.20082,0.3967 0.56489,0.7339 0.96361,0.9774 1.17528,1.1635 1.36288,1.3497 1.04484,0.8251 0.56171,0.067 0.5842,-0.096 0.64162,-0.2721 0.74798,-0.097 0.88794,-0.133 0.75857,-0.2961 0.44291,-0.2945 0.47837,-0.2479 0.70009,-0.3075 0.70035,-0.2139 0.50298,0.021 1.56898,0.4015 0.83238,0.4519 0.60934,0.266 0.9951,0.2523 h 0.79508 l 1.08691,-0.1223 0.52546,-0.1429 1.76319,-0.5232 0.68871,-0.2256 0.54849,-0.2248 0.78158,-0.3781 0.42016,-0.1774 0.67654,-0.3425 0.60669,-0.2368 0.72417,-0.2024 0.71252,-0.1672 0.7591,-0.1908 0.75935,-0.1324 0.71306,-0.027 0.60854,0.091 0.58579,0.2193 0.87895,0.3932 1.02103,0.7667 0.58605,0.2778 0.48049,0.1964 0.5633,0.4415 0.24712,0.3029 0.47069,0.6291 0.58738,0.5116 0.57441,0.3245 1.1356,0.2751 0.7022,0.1251 0.9832,0.194 0.43365,0.1849 0.78476,0.2885 0.65643,0.3124 0.42281,0.3721 0.3646,0.4426 0.42386,0.5592 0.517,0.5236 0.76226,0.464 0.69189,0.3824 0.71517,0.3707 1.84812,0.1078 0.6784,0.032 0.52625,0.044 0.97182,0.2524 0.8554,0.3817 0.98664,0.8487 0.90355,0.6855 1.13877,0.9064 0.75063,0.429 0.66807,0.3358 1.0078,0.4277 0.85461,0.2296 0.70168,0.02 0.6776,-0.1086 0.74665,-0.3544 1.25731,-1.1288 0.76941,-0.5066 0.65299,-0.354 0.65326,-0.3306 0.86334,-0.3785 0.68792,-0.4126 0.40719,-0.3879 0.25559,-0.3638 0.11351,-0.7138 -0.36698,-0.8869 -0.24818,-0.5133 -0.26088,-0.7587 -0.18971,-0.5253 -0.12012,-0.6542 -0.0389,-0.7014 0.063,-1.4737 0.0669,-0.5616 0.1135,-0.667 0.0429,-0.7369 -0.0378,-0.6547 -0.21854,-1.6476 -0.14367,-0.6658 0.0106,-0.6315 0.10266,-0.4799 0.34898,-0.3876 0.50166,-0.2481 1.02791,-0.1922 1.01653,-0.2037 0.88741,-0.2149 0.60669,-0.3071 0.57177,-0.2249 0.85302,-0.1094 h 0.60775 l 0.60828,-0.026 0.32623,-0.2472 0.33655,-0.4927 0.16034,-0.7141 0.34581,-0.9723 0.19474,-0.8428 -0.0106,-1.0407 -0.0521,-0.9704 -0.22516,-0.6069 -0.35375,-0.6296 -0.29634,-0.7704 -0.19261,-1.1099 -0.30824,-0.8755 -0.35322,-0.4426 -1.11734,-1.3625 -0.72999,-0.9904 -0.48287,-0.7693 -0.50694,-0.7927 -0.3302,-0.5128 -0.24871,-0.6419 -0.031,-1.5668 0.09,-0.7254 0.27755,-0.6328 0.3474,-0.6916 0.0431,-0.7018 -0.25083,-1.0862 -0.43736,-0.8982 -0.54081,-0.6522 -0.83449,-0.8729 -0.61146,-0.6985 -1.14009,-1.1403 -0.576,-0.6637 -0.47122,-0.6993 -0.40164,-0.7464 -0.5641,-0.6403 -0.50482,-0.4185 -1.24276,-0.6369 -0.31803,-0.4311 -0.1778,-0.4903 0.091,-0.5032 0.35984,-0.5163 0.37227,-0.4111 0.74586,-0.5065 0.50139,-0.3065 0.7112,-0.3894 0.73528,-0.2959 0.73475,-0.4012 0.6178,-0.3656 0.60537,-0.5408 0.68765,-0.4945 1.08321,-0.8473 0.47758,-0.3765 0.62891,-0.4826 0.5588,-0.5289 0.5006,-0.4585 0.45376,-0.4467 0.58261,-0.4355 0.50139,-0.2713 0.72443,-0.097 0.4916,0.068 0.60854,0.1372 0.91388,0.3698 0.74031,0.7096 0.63421,0.5697 0.61013,0.4413 0.78661,0.6511 0.57547,0.4766 0.35402,0.6413 0.21325,0.5837 0.30718,0.6416 0.66967,0.6047 0.6686,0.4293 1.09035,0.5793 0.50403,0.2899 0.70353,0.3824 0.82074,0.4637 0.83212,0.3583 1.1483,0.4855 0.87868,0.3581 1.55972,0.9161 0.69242,0.4994 0.66755,0.2189 0.73686,0.031 0.53631,-0.33 0.44212,-0.4349 0.37201,-0.4345 0.62865,-0.576 0.51171,-0.5521 0.60537,-0.576 0.50059,-0.4351 0.54795,-0.3535 0.59505,-0.2602 0.64215,-0.202 1.72902,-0.2891 1.1571,-0.1344 0.771,-0.1324 0.9334,-0.4023 0.7226,-0.4829 1.0827,-0.9642 0.6286,-0.5644 0.5234,-0.5988 0.3132,-0.5044 0.2665,-0.5275 0.1254,-0.6205 v -0.5611 l 0.011,-0.4445 0.08,-0.3746 0.2331,-0.1999 0.3971,-0.1072 0.5025,0.021 0.4797,-0.014 0.5961,-0.038 0.5138,-0.1779 0.2683,-0.1065 0.2802,-0.037 0.3397,0.045 0.4691,0.3251 0.5511,0.2896 0.6205,0.1957 0.889,0.066 0.889,0.031 0.9935,-0.063 1.2272,-0.1464 0.4325,-0.025 0.48,0.1614 0.3778,0.6763 0.039,0.83 0.019,1.2277 0.016,0.6198 0.2027,0.7707 0.4826,0.6525 0.5876,0.5584 0.576,0.5934 1.27,1.4437 0.6821,0.8853 0.5887,0.7688 0.9065,1.2702 0.4945,0.6992 0.4593,0.5707 0.798,0.6742 0.9271,0.6503 1.2446,0.9994 0.4937,0.5472 0.3988,0.2085 0.6083,0.079 0.514,-0.1311 0.5358,-0.3769 0.3958,-0.3761 0.372,-0.4228 0.8972,-0.6242 0.5252,-0.2715 0.6999,-0.3542 0.4656,-0.3648 0.5475,-0.4471 0.7681,-0.7521 0.4423,-0.3647 0.3734,-0.224 0.4085,-0.1307 0.4678,0.021 0.4802,0.1029 0.5387,0.2545 0.3167,0.209 1.0221,0.8836 0.8099,0.6509 0.6572,0.441 0.7861,0.534 1.642,1.056 2.0426,1.6504 1.6338,1.6991 0.894,1.0363 0.5408,0.6054 0.5882,0.6753 0.5175,0.699 0.3667,0.7816 0.2715,0.5717 0.3175,0.3024 0.4683,0.1614 0.7842,0.1014 0.8885,0.01 0.7948,-0.016 0.7723,0.031 0.5499,0.068 0.4706,0.5823 0.1662,0.5371 0.1701,1.3322 0.086,0.8298 0.2143,0.6888 0.4117,0.5359 0.3988,0.2085 0.5379,0.032 0.4431,-0.2244 0.453,-0.5869 0.3247,-0.6096 0.3945,-0.5866 0.5,-0.5404 0.617,-0.5877 0.5594,-0.4237 0.431,-0.3061 0.3968,-0.1423 0.5035,0.091 0.2234,0.2327 0.1778,0.4903 0.1664,0.6189 0.1542,0.4552 0.2829,0.4664 0.364,0.2905 0.3398,0.092 0.3855,-0.084 0.5363,-0.295 0.4895,-0.3415 0.5133,-0.213 0.4323,-0.084 0.5842,-0.05 0.5379,-0.096 0.6186,-0.1434 0.4678,-0.037 0.4916,0.1145 0.2122,0.3731 -0.1718,0.761 -0.2656,0.5742 -0.2659,0.6211 -0.055,0.7486 0.076,1.169 0.029,1.0639 0.029,1.1809 -0.1085,1.7077 -0.5061,1.6629 -0.4173,0.7739 -0.5337,0.8562 -0.5106,0.7859 -0.5556,1.1371 -0.2876,0.9485 -0.1305,2.0002 -0.042,0.889 0.1088,0.7478 0.3558,1.0272 0.6004,0.7922 0.8697,0.9078 0.6948,0.9788 0.2489,0.7004 0.016,0.8067 -0.067,0.5733 -0.2304,0.691 -0.3583,0.8671 -0.1592,0.9128 0.1352,1.3792 0.1669,0.5604 0.3191,0.7 0.4127,0.6879 0.3885,0.5477 0.6238,0.8154 0.6009,0.9091 1.1073,1.6433 0.7639,0.8147 0.5302,0.7926 0.2947,0.513 0.2257,0.7122 0.2268,0.8992 0.2627,1.0979 0.4851,1.202 0.3908,0.9803 0.4969,1.1785 0.1933,1.2503 -0.1085,1.7194 -0.1535,2.0589 -0.166,1.9068 -0.3265,2.5624 -0.3085,1.4632 -0.2171,0.9833 0.03,1.2978 0.086,0.7479 0.1202,0.6542 0.1914,0.8644 0.3199,0.8637 0.7195,1.2593 0.4361,0.6877 0.2588,0.3262 0.5995,0.6285 0.505,0.4535 0.6225,0.5465 0.7508,0.4874 0.7845,0.23 0.7959,0.1481 0.7363,-0.062 0.7129,-0.085 0.9573,-0.3087 1.4233,-0.6736 0.7467,-0.3311 0.8748,-0.472 0.5821,-0.494 0.3364,-0.5395 0.1491,-0.6205 v -0.7835 l -0.085,-0.6543 -0.088,-1.2391 0.1837,-0.6791 0.3482,-0.5162 0.3611,-0.2941 0.4184,-0.5049 0.1847,-0.4803 0.3012,-0.5862 0.4882,-0.5871 0.489,-0.4233 1.0948,-0.8941 0.4432,-0.2361 0.4784,-0.2011 0.6886,-0.2606 0.4902,-0.1779 0.8057,-0.2378 0.6657,-0.167 0.5953,-0.2017 0.5487,-0.1781 0.5951,-0.2602 0.6531,-0.3423 1.2233,-0.9065 0.3128,-0.5862 0.033,-0.468 -0.061,-0.5608 -0.2375,-0.7355 -0.2478,-0.4549 -0.3544,-0.7231 -0.33,-0.5247 -0.8361,-1.2002 -0.3302,-0.5597 -0.3414,-0.4778 -0.3776,-0.6763 -0.3184,-0.548 -0.3295,-0.4193 -0.4001,-0.5243 -0.2009,-0.4199 0.091,-0.6085 0.2789,-0.3522 0.3846,-0.2474 0.3262,-0.2472 0.1503,-0.3398 -0.06,-0.3856 -0.2122,-0.3381 -0.6103,-0.4647 -0.4465,-0.4304 -0.506,-0.6524 -0.2495,-0.8056 -0.1201,-0.6425 0.068,-0.4914 0.2548,-0.4924 0.4074,-0.3879 0.3372,-0.3758 0.1262,-0.4918 v -0.5846 l 0.045,-0.4212 0.2554,-0.3755 0.408,-0.2475 0.409,-0.061 0.5968,0.1023 0.4464,0.407 0.5514,0.3598 0.5857,0.2193 0.7251,0.02 0.6192,-0.097 0.7823,-0.2377 0.6423,-0.1786 0.6065,-0.307 0.4537,-0.4583 0.3601,-0.4928 0.5354,-0.5055 0.5829,-0.3654 0.6652,-0.2488 0.6777,-0.097 0.6782,-0.015 1.2635,0.1341 0.6213,0.3126 0.5398,0.395 0.5986,0.453 0.7505,0.4173 0.5272,0.2079 0.4454,0.2316 0.4231,0.4306 0.3064,0.4662 -0.1147,0.4449 -0.3836,0.4813 -0.5003,0.5053 -0.6172,0.5175 -0.4309,0.353 -0.5248,0.2832 -0.6171,0.5292 -0.7219,0.6116 -0.454,0.4349 -0.3721,0.4111 -0.2787,0.399 -0.2314,0.4922 -0.1725,0.5855 -0.1254,0.6672 -0.099,1.3218 -0.055,0.7837 0.049,0.4909 0.2494,0.7823 0.3881,0.4306 h 0.7951 l 0.6418,-0.2604 0.5716,-0.2834 0.4083,-0.1891 0.6423,-0.1669 0.795,-0.027 0.8653,0.01 1.2042,-0.041 0.7478,-0.144 0.817,-0.2964 0.6534,-0.2955 0.5363,-0.3067 0.467,-0.166 0.4785,-0.1778 0.9933,-0.1335 0.538,0.021 0.5736,0.1375 0.2818,0.2326 0.3064,0.4779 0.3649,0.5009 0.3656,0.6297 0.1782,0.5487 0.061,0.6077 0.084,0.3621 0.2012,0.5019 0.3662,0.7465 0.2132,0.5602 0.1314,0.5607 0.038,0.6078 -0.056,0.5265 0.1781,0.5604 0.3654,0.5828 0.5402,0.4651 0.5284,0.4651 0.4237,0.5475 0.3646,0.4192 0.5864,0.3595 0.8306,0.078 0.3862,0.068 0.5387,0.1611 0.3641,0.3256 0.388,0.4424 0.3646,0.4192 0.4692,0.3017 0.7376,0.1834 0.597,0.1374 0.702,0.078 1.0886,0.2285 0.7263,0.2771 0.5284,0.4417 0.4813,0.3718 0.4579,0.3836 0.4117,0.4891 0.4353,0.5474 0.4004,0.571 0.4831,0.7343 0.6095,0.301 0.6429,-0.05 0.3372,-0.3759 0.1031,-0.4448 0.01,-0.4678 v -0.3742 l 0.2312,-0.539 0.325,-0.4927 0.4276,-1.0078 0.1846,-0.5037 0.4746,-0.9728 0.2435,-0.4339 0.3603,-0.4344 0.3376,-0.294 0.3496,-0.2707 0.6077,-0.05 0.3293,0.3609 0.5629,0.3246 0.6083,0.055 0.8058,-0.2027 0.6768,-0.284 0.5369,-0.2015 0.6543,-0.097 0.4097,0.08 0.4094,0.021 0.4662,-0.3063 0.4069,-0.458 0.5361,-0.3885 0.6424,-0.1436 0.8187,0.043 0.5143,-0.038 0.6075,-0.1082 0.5144,-0.026 0.528,0.3598 0.2838,0.6417 0.3886,0.5594 0.5161,0.3132 0.5621,0.1843 0.5507,0.2077 0.3524,0.3374 0.3071,0.6182 0.1197,0.5607 0.3074,0.6884 0.3999,0.4658 0.6224,0.5348 0.8936,1.0012 0.2484,0.5835 0.1676,0.7943 0.073,0.5609 -0.043,0.8655 -0.091,0.5149 -0.137,0.6789 0.026,0.5378 0.1426,0.4553 0.3998,0.4541 0.4337,0.2083 0.327,-0.083 0.3617,-0.1655 0.3607,-0.3525 0.3488,-0.411 0.1844,-0.5388 0.079,-0.5032 0.2773,-0.6679 0.3835,-0.493 0.2551,-0.4222 0.1266,-0.4099 v -0.2923 l 0.066,-0.8306 0.1964,-0.4803 0.279,-0.3405 0.3491,-0.3408 0.4319,-0.1542 0.5021,-0.1545 0.5366,-0.2599 0.3847,-0.2241 0.5608,-0.096 0.2337,-0.036 1.683,-0.172 0.5021,-0.1428 0.6658,-0.1437 0.7362,-0.085 h 0.8887 l 1.1224,-0.029 0.6896,-0.05 0.7244,-0.1204 0.8297,-0.1093 0.5142,-0.084 0.8524,-0.2148 0.7235,-0.3076 0.5016,-0.248 0.5831,-0.342 0.548,-0.295 0.4545,-0.2946 0.3266,-0.177 0.385,-0.1656 0.7352,-0.3193 0.4672,-0.096 0.6193,-0.1083 0.5488,-0.1664 0.6064,-0.3188 0.6768,-0.2839 0.5139,-0.1195 0.339,-0.037 0.3393,0.045 0.8685,0.6505 0.341,0.3959 0.3877,0.3489 0.6451,0.4177 0.6683,0.3592 0.8674,0.4284 0.9025,0.4165 0.9607,0.3811 1.8278,0.7511 0.7502,0.3587 0.6563,0.3008 0.715,0.3473 0.5508,0.2545 0.6793,0.2188 0.5845,-0.026 0.3495,-0.2589 0.2326,-0.2701 0.2447,-0.1649 0.4789,-0.1076 0.7134,0.02 0.397,-0.1072 0.2918,-0.1067 0.4552,-0.1659 0.2106,0.023 0.4332,0.1147 0.6096,0.3127 0.4694,0.3368 0.54,0.43 0.6445,0.2658 h 0.608 l 0.3618,-0.1421 0.3372,-0.3759 0.2901,-0.4574 0.2321,-0.352 0.3853,-0.1305 0.5153,0.1612 0.3056,0.3259 0.1443,0.8061 -0.056,0.5031 -0.1706,0.9596 -0.091,0.4448 -0.2071,0.6793 -0.1963,0.5154 -0.091,0.4799 0.061,0.4674 0.1652,0.3032 0.4224,0.2786 0.4219,0.1967 0.6555,0.1371 1.1352,0.2049 0.8196,0.2064 0.6676,0.2305 0.5508,0.2429 0.5389,0.2078 0.4325,-0.037 0.4787,-0.1427 0.4895,-0.3298 0.4777,-0.3415 0.4547,-0.2712 0.3963,-0.2592 0.3255,-0.3875 0.1499,-0.4333 0.1385,-0.3632 0.207,-0.7026 0.255,-0.4456 0.2669,-0.4223 0.3488,-0.411 0.3373,-0.3524 0.3021,-0.3874 0.3837,-0.4463 0.3251,-0.4694 0.1848,-0.4685 0.1374,-0.5855 0.01,-0.5612 v -0.4444 l 0.1834,-0.7376 0.2319,-0.3987 0.3725,-0.3409 0.4427,-0.3295 0.536,-0.3886 0.4195,-0.2944 0.8726,-0.893 0.2436,-0.3988 0.1153,-0.3163 0.079,-0.5149 0.091,-0.5617 0.056,-0.468 0.1615,-0.4334 0.2182,-0.808 0.1129,-0.819 0.1726,-0.5622 0.2427,-0.5741 0.4413,-0.6219 0.5116,-0.5872 0.5471,-0.5172 1.1175,-1.0228 1.0369,-0.7769 1.0373,-0.6716 0.8623,-0.6007 0.8273,-0.5887 0.6063,-0.3889 0.4432,-0.2243 0.5246,-0.3183 0.5482,-0.26 0.6191,-0.1317 1.4377,-0.1123 h 0.5497 l 1.1105,-0.064 0.7837,0.043 0.5965,0.032 0.4914,0.068 0.3396,0.1035 0.3751,0.1736 0.3406,0.314 0.6692,0.5346 0.6212,0.301 0.5733,0.067 0.6314,-0.015 0.8183,-0.039 0.5023,-0.096 0.7829,-0.1208 1.2739,-0.1232 0.7018,0.032 h 0.5612 l 0.6197,-0.015 0.5845,-0.026 0.7599,-0.039 0.5372,-0.1313 0.4434,-0.2009 0.4892,-0.3883 0.2781,-0.5042 0.1137,-0.6671 -0.05,-0.6195 -0.1549,-0.5956 -0.1316,-0.5957 -0.062,-0.6779 -0.122,-1.0283 -0.2969,-0.9224 -0.1079,-0.5373 -0.014,-0.456 0.02,-0.5964 0.079,-0.6202 0.2518,-1.0887 0.2777,-0.5977 0.3688,-1.1937 v 0 l -0.3278,-0.1386 -0.3068,-0.5599 -0.1899,-0.5837 -0.1189,-0.397 -0.2358,-0.3964 -0.4923,-0.2313 -0.8425,-0.1129 h -0.8185 l -1.2863,-0.017 -0.5382,-0.068 -0.6803,-0.4176 -0.7279,-0.6045 -0.6106,-0.5115 -0.3525,-0.349 -0.6149,-1.3768 -0.283,-0.4897 -0.4491,-0.9566 -0.1436,-0.6541 -0.2141,-0.7473 -0.1661,-0.4903 -0.1891,-0.3966 -0.497,-1.1903 -0.5417,-0.7691 -0.5401,-0.4651 -0.5392,-0.2545 -0.5391,-0.2313 -0.5624,-0.231 -0.6096,-0.3244 -0.587,-0.4883 -0.3299,-0.4894 -0.2133,-0.5603 -0.1943,-1.4723 -0.051,-0.9118 0.1593,-0.8661 0.2548,-0.5158 0.4174,-0.727 0.4182,-0.54 0.2077,-0.5623 0.1148,-0.4449 -0.3081,-0.817 -1.0082,-0.5329 -0.3515,-0.1386 -0.8672,-0.3699 -0.5393,-0.3013 -0.7739,-0.4406 -0.6098,-0.3244 -0.7034,-0.3707 -0.4916,-0.091 -0.889,-0.066 -0.8427,-0.1596 -0.8425,-0.1361 -0.4919,-0.1379 -0.4225,-0.3253 -0.5885,-0.7688 -0.729,-0.8384 -0.2817,-0.2091 -0.4226,-0.3253 -0.3527,-0.3959 -0.3296,-0.4427 -0.9091,-1.4803 -0.317,-0.5771 -0.5506,-0.9731 -0.2003,-0.3628 -0.4324,-0.5105 -0.3823,-0.395 -0.4154,-0.3948 -0.5648,-0.5264 -0.531,-0.3777 -0.4981,-0.411 -0.4658,-0.5434 -0.2843,-0.627 -0.1186,-0.6112 0.028,-1.0585 -0.069,-0.5289 -0.2664,-0.3459 -0.1659,-0.115 -0.4303,-0.081 -0.3801,0.052 -0.2804,0.1502 -0.2969,0.1503 -0.4452,0.2668 -0.5112,0.2836 -0.4296,0.068 -0.2978,-0.032 -0.4312,-0.246 -0.3157,-0.296 -0.2993,-0.3459 -0.1506,-0.3465 0.015,-0.2977 0.1805,-0.282 0.3127,-0.2827 0.6596,-0.4001 0.5767,-0.3998 0.3296,-0.2496 0.5263,-0.5649 0.1806,-0.2655 0.015,-0.3638 -0.1339,-0.3301 -0.3818,-0.2958 -0.7317,-0.8232 -0.1345,-0.4789 -0.02,-0.6779 0.097,-0.3808 0.2128,-0.4475 0.5104,-0.4491 0.3951,-0.3657 0.2631,-0.299 0.2468,-0.2658 0.2633,-0.2493 0.3291,-0.3324 0.1473,-0.3149 0.031,-0.4632 -0.034,-0.2479 -0.1184,-0.5286 -0.1046,-1.0909 0.1454,-0.6952 0.1132,-0.5298 0.048,-0.4136 v -0.4134 l -0.2674,-0.5775 -0.4158,-0.461 -0.4481,-0.345 -0.9289,-0.5742 -0.7299,-0.4594 -0.5307,-0.3116 -0.5308,-0.3281 -0.6305,-0.4269 -0.6643,-0.5755 -0.4987,-0.5267 -0.6984,-0.7738 -0.5658,-0.7248 -0.1687,-0.6606 0.1966,-0.3813 0.2796,-0.2991 0.4281,-0.3824 0.3951,-0.3492 0.4118,-0.3494 0.4112,-0.4485 0.081,-0.3807 -0.051,-0.3305 -0.2662,-0.3129 -0.3653,-0.2958 -0.5476,-0.3777 -0.2494,-0.2799 -0.1015,-0.4625 -0.1016,-0.4625 -0.2023,-0.7928 0.1963,-0.4474 0.3126,-0.3159 0.4456,-0.2006 0.5285,-0.1183 0.7593,-0.2683 0.4119,-0.3328 0.5597,-0.4988 0.3954,-0.3162 0.5107,-0.3829 0.6594,-0.4333 0.3955,-0.283 0.4777,-0.3662 0.3456,-0.3489 0.4278,-0.4321 0.6903,-0.8634 0.1956,-0.5797 v -0.6284 l -0.2012,-0.5612 -0.1347,-0.4789 -0.1683,-0.5945 -0.051,-0.2974 v -0.463 l 0.2122,-0.5633 0.164,-0.282 0.2298,-0.3484 0.2125,-0.4971 0.031,-0.3309 0.015,-0.4135 0.048,-0.364 0.1801,-0.3647 0.395,-0.3823 0.3449,-0.4648 0.1138,-0.3974 0.08,-0.4965 0.1146,-0.2651 0.4279,-0.3825 0.3467,-0.1505 0.6445,-0.086 0.3471,-0.035 0.3649,0.2297 0.017,0.016 0.1498,0.2143 0.1178,0.4293 0.1855,0.7102 0.3007,0.6104 0.532,0.5596 0.4985,0.4936 0.7317,0.8398 0.5153,0.5597 0.6315,0.5922 0.6148,0.6254 0.5324,0.6257 0.3988,0.4115 0.4485,0.3946 0.5296,0.08 0.743,-0.2352 0.1962,-0.4474 0.4224,-1.5235 0.2941,-0.7291 0.4093,-0.8454 0.1285,-0.7613 0.063,-0.5625 0.1293,-0.596 0.1796,-0.4639 0.1306,-0.3479 -0.019,-0.5456 -0.3668,-0.6101 -0.2502,-0.4287 -0.035,-0.4629 0.114,-0.3478 0.4611,-0.4157 0.5929,-0.4659 0.577,-0.3667 0.446,-0.1179 0.6106,-0.2511 0.5117,-0.1844 0.4949,-0.2505 0.6264,-0.4 0.4782,-0.2835 0.5105,-0.4159 0.494,-0.4324 0.477,-0.515 0.2952,-0.4976 0.8351,-1.6908 0.2293,-0.4311 0.3608,-0.6136 0.3446,-0.5474 0.2461,-0.3817 0.1803,-0.3316 0.2294,-0.431 0.2288,-0.547 0.1464,-0.4967 0.08,-0.513 -0.086,-0.6115 -0.2174,-0.4785 -0.2823,-0.2466 -0.3646,-0.1471 -0.6616,-0.03 -0.5623,-0.014 -0.3978,-0.1799 -0.5306,-0.2951 -0.4314,-0.2955 -0.8131,-0.5582 -0.7476,-0.7074 -0.2833,-0.4451 0.015,-0.4135 0.3453,-0.4151 0.4279,-0.4155 0.4939,-0.449 0.7903,-0.6984 0.4775,-0.4158 1.3032,-0.6514 0.5282,-0.1845 0.5626,0.063 0.5469,0.2454 0.7286,0.1948 0.5954,0.014 0.6767,-0.2514 0.5441,-0.3334 0.4945,-0.3167 0.3628,-0.2167 0.3629,-0.1837 h 0.6945 l 0.3311,0.081 0.2495,0.2964 0.4494,0.5766 0.6811,0.6416 0.5817,0.5759 0.93,0.8057 0.846,0.525 0.7783,0.2277 0.5626,0.063 0.461,-0.3991 0.1128,-0.6125 -0.052,-0.4131 -0.1517,-0.578 0.08,-0.4965 0.1801,-0.3813 0.2299,-0.3318 0.4446,-0.366 0.6443,-0.1355 0.2823,0.2466 0.4486,0.4112 0.3824,0.4281 0.3664,0.5274 0.6131,0.245 0.5952,-0.02 0.6589,-0.5324 0.5092,-0.6805 1.5266,-2.2731 1.6092,-2.3396 1.4107,-2.3055 0.8855,-1.5258 0.3112,-0.6134 -0.084,-0.3137 -0.3814,-0.2297 -0.3973,-0.081 -0.2318,-0.048 -0.4641,-0.2127 -0.6313,-0.6087 -0.4655,-0.4939 -0.3335,-0.5606 -0.2013,-0.5778 -0.1026,-0.6775 -0.1547,-1.1899 0.062,-0.8106 0.1287,-0.7117 0.1288,-0.7117 0.129,-0.6786 -0.086,-0.6446 -0.1521,-0.6606 v -0.6946 l 0.1787,-0.6458 0.8546,-1.0626 0.3611,-0.564 0.328,-0.5473 0.5439,-0.3665 0.3466,-0.134 0.3967,-0.035 0.4305,0.1301 0.6629,0.2613 0.7618,0.2278 0.6285,0.03 0.3793,-0.1838 0.014,-0.5293 -0.25,-0.3956 -0.432,-0.3947 -0.1511,-0.4623 0.229,-0.5138 0.3782,-0.4318 0.4117,-0.3493 0.5767,-0.4163 0.4939,-0.4654 0.2128,-0.4311 0.029,-0.9261 -0.1691,-0.7599 -0.052,-0.4297 -0.1011,-0.3633 -0.2163,-0.2801 -0.2823,-0.2301 -0.464,-0.2292 -0.7448,-0.1286 -0.6784,-0.063 -0.4795,0.019 -0.6281,0.069 -0.6601,0.2679 -0.5769,0.3832 -0.4281,0.3824 -0.5765,0.4495 -0.5285,0.1348 -0.6951,-0.1124 -0.4814,-0.3613 -0.3827,-0.4777 -0.3659,-0.4281 -0.2502,-0.4453 -0.036,-0.5787 0.2958,-0.3818 0.7929,-0.1693 0.876,-0.1035 0.5449,-0.1515 0.8586,-0.2689 0.33,-0.1503 0.5908,-0.9125 0.3271,-0.7293 0.3443,-0.6135 0.3287,-0.4317 0.3454,-0.3489 0.5434,-0.4657 0.5271,-0.4326 0.4773,-0.4654 0.378,-0.4649 0.2954,-0.4477 0.2621,-0.5142 v -0.7935 l 0.1124,-0.6788 0.4441,-0.4817 0.4613,-0.3825 0.2627,-0.3652 0.1453,-0.7117 v -0.645 l 0.03,-0.6452 0.1789,-0.6127 0.3783,-0.4152 0.4449,-0.3165 0.7425,-0.3344 0.9237,-0.484 0.5599,-0.4658 0.1794,-0.5135 0.1622,-0.6293 0.2613,-0.6792 0.213,-0.398 0.1465,-0.4968 0.047,-0.4632 -0.2334,-0.3628 -0.4146,-0.2625 -0.8627,-0.558 -0.05,-0.1486 -0.051,-0.2973 0.048,-0.331 0.4608,-0.4323 0.294,-0.7456 v -0.3471 l -0.2173,-0.4785 -0.3995,-0.5107 -0.465,-0.4111 -0.1843,-0.4621 -0.1182,-0.4956 -0.068,-0.2973 -0.1352,-0.6113 -0.1007,-0.2806 -0.5469,-0.2288 -0.4463,0.035 -0.5611,0.2177 -0.5444,0.2673 -0.7101,0.202 -0.364,-0.031 -0.5141,-0.295 -0.2668,-0.4453 -0.1677,-0.4788 -0.1182,-0.4955 0.048,-0.3805 0.2787,-0.4975 0.3956,-0.2666 0.6442,-0.152 0.7109,-0.037 0.6282,-0.036 0.6778,-0.037 0.5616,-0.1351 0.7097,-0.2681 0.5917,-0.7471 0.1474,-0.2817 -0.1195,-0.7601 -0.2505,-0.4949 -0.4155,-0.4114 -0.4487,-0.4608 -0.4148,-0.279 -0.5974,-0.4105 -0.4977,-0.3283 -0.3322,-0.3125 -0.6649,-0.6913 -0.3163,-0.4285 -0.1847,-0.5612 -0.069,-0.5619 0.1791,-0.5633 0.4109,-0.5145 0.5439,-0.3501 0.7255,-0.4499 0.6596,-0.3672 0.5606,-0.3335 0.6431,-0.367 0.3291,-0.3324 0.1635,-0.3812 0.014,-0.4962 0.029,-0.7606 -0.052,-0.4795 -0.1528,-0.8096 -0.3329,-0.4282 -0.4146,-0.2295 -0.5633,-0.2287 -0.6949,-0.063 -0.5617,0.1018 -0.677,0.2018 -0.6432,0.3505 -0.6419,0.6151 -0.6253,0.6314 -0.626,0.4826 -0.6919,0.5328 -0.7255,0.4334 -1.0226,0.5342 -0.7262,0.3013 -0.6933,0.2349 -1.1068,0.2371 -0.76,0.1525 -0.479,0.1016 -0.8261,0.1529 -1.1398,0.2371 -0.4791,0.1181 -0.759,0.3181 -0.6103,0.3502 -0.7259,0.3508 -0.7109,0.037 -0.3976,-0.147 -0.3662,-0.4943 -0.1521,-0.6607 -0.02,-0.6447 0.08,-0.4635 0.095,-0.7779 0.013,-0.7771 0.064,-0.4799 0.1616,-0.7616 0.5235,-1.1435 0.3112,-0.6135 0.014,-0.6119 -0.085,-0.38 -0.3816,-0.2791 -0.5462,-0.096 -0.4797,-0.014 -0.7114,-0.079 -0.9432,-0.1277 -0.7114,-0.063 -1.3402,-0.1587 -0.7275,0.053 -0.5616,0.102 -0.4639,-0.1797 -0.1846,-0.5448 -0.036,-0.5786 0.081,-0.4469 0.1791,-0.5796 0.2124,-0.5137 0.047,-0.6121 -0.1356,-0.6442 -0.498,-0.411 -1.1589,-0.2589 -2.267,-0.303 -0.811,-0.1448 -2.0671,0.01 -1.3222,0.1388 -1.5196,0.3879 -1.0731,0.3526 -1.0556,0.5509 -1.0414,0.071 -0.5472,-0.2949 -0.5477,-0.3776 -0.9109,-0.3097 h -0.7276 -0.6946 l -0.7118,-0.1288 -0.5135,-0.1959 -0.4644,-0.2623 -0.6635,-0.4101 -0.4143,-0.1964 -0.5305,-0.262 -0.6958,-0.2611 -0.7121,-0.195 -0.7117,-0.1453 -0.6791,-0.2281 -0.4808,-0.2457 -0.3814,-0.2131 -1.2096,-0.4736 -0.5466,-0.1792 -0.6953,-0.1619 -0.7285,-0.1949 -0.646,-0.2118 -0.3648,-0.1801 -0.1671,-0.3795 -0.052,-0.4297 0.081,-0.3642 0.1473,-0.3149 0.1636,-0.3481 -0.053,-0.595 -0.3662,-0.4943 -0.7121,-0.2115 h -0.4961 l -0.3961,0.1674 -0.2466,0.2988 -0.5778,0.2013 -0.5127,-0.03 -0.547,-0.2784 -0.6953,-0.1289 h -0.4299 l -0.6283,0.019 -0.4962,-0.014 -0.6295,-0.2284 -0.2332,-0.3626 0.015,-0.2978 0.098,-0.2981 0.2626,-0.3982 0.197,-0.2986 0.033,-0.1159 -0.1013,-0.413 -0.1835,-0.3298 -0.068,-0.3635 0.081,-0.3476 0.2461,-0.3981 0.3947,-0.4485 0.9064,-0.6328 0.9561,-0.6166 0.445,-0.2998 0.4117,-0.3493 0.4769,-0.5316 0.047,-0.4798 -0.5493,-0.7084 -0.2158,-0.1808 -0.4982,-0.411 -0.5659,-0.7413 -0.068,-0.38 0.1631,-0.4639 0.2127,-0.4475 0.3449,-0.4812 0.2957,-0.3984 0.097,-0.4139 -0.085,-0.4295 -0.2666,-0.4121 -0.2661,-0.3129 -0.3496,-0.4613 -0.8829,-1.302 -0.1845,-0.5283 -0.1185,-0.5617 -0.2512,-0.6436 -0.2508,-0.5446 -0.069,-0.5453 0.093,-1.2408 0.045,-0.8436 -0.02,-0.6447 -0.1683,-0.6111 -0.2665,-0.379 -0.7464,-0.476 -0.5633,-0.2122 -0.5469,-0.2121 -0.4473,-0.1964 -0.6783,-0.046 -0.728,-0.063 -0.5956,-0.063 -0.6299,-0.2945 -0.4647,-0.345 -0.2326,-0.2304 -0.5506,-0.9895 -0.3003,-0.5277 -0.5479,-0.4437 -0.5306,-0.2951 -0.4973,-0.2291 -0.3157,-0.3291 -0.2675,-0.5775 -0.1838,-0.3959 -0.4326,-0.5271 -0.4637,-0.1465 h -0.6285 l -0.4958,0.052 -0.6285,-0.03 -0.4636,-0.1134 -0.6121,-0.047 -0.5451,0.1184 -0.4783,0.267 -0.7269,0.1359 -0.6449,0.02 -0.4305,-0.1467 -0.4495,-0.5931 -0.2504,-0.4948 -0.4649,-0.3781 -0.4973,-0.2125 -0.514,-0.2786 -0.3165,-0.4614 -0.1522,-0.6938 -0.1184,-0.5617 -0.2344,-0.5446 -0.7656,-1.0049 -0.4821,-0.5103 -0.2337,-0.4618 -0.2172,-0.4289 -0.3167,-0.5111 -0.2336,-0.4288 -0.2014,-0.5943 v -0.5623 l 0.3457,-0.3159 0.4944,-0.3331 0.2626,-0.4314 0.1129,-0.5628 0.1291,-0.6455 0.2951,-0.514 0.1968,-0.3319 0.2288,-0.5467 v -0.3968 l -0.088,-0.476 -0.4694,-0.3485 -0.2933,-0.2207 -0.3406,-0.3023 -0.4577,-0.3134 -0.4218,-0.1734 -0.457,-0.1849 -0.5049,-0.4067 -0.3757,-0.3373 -0.4581,-0.407 -0.3651,-0.5243 -0.1323,-0.7361 0.1501,-0.3866 0.419,-0.3996 0.478,-0.2947 0.6645,-0.436 0.6648,-0.3306 0.8976,-0.5657 0.4543,-0.3414 0.4432,-0.236 0.6067,-0.2603 0.5491,-0.1079 0.6193,-0.097 0.6074,-0.1083 0.7476,-0.1674 0.5015,-0.2597 0.5354,-0.5054 0.4308,-0.3763 0.4194,-0.3061 0.583,-0.342 0.771,-0.1558 0.7018,0.032 0.6788,0.1136 0.6314,0.01 0.5257,-0.1077 0.6533,-0.3073 0.3266,-0.1536 0.6286,-0.576 0.5365,-0.2716 0.537,-0.1781 0.6191,-0.1434 0.7352,-0.2959 0.6294,-0.4124 0.4429,-0.2828 0.8297,-0.1093 0.7714,-0.062 0.6313,-0.05 0.4438,-0.1074 0.2212,-0.1999 0.1502,-0.3515 0.032,-0.5849 -0.1915,-0.8877 -0.096,-0.5725 0.3362,-0.5746 0.4077,-0.3294 0.3844,-0.2826 0.419,-0.4113 0.3836,-0.4813 0.3257,-0.329 0.4663,-0.2831 0.385,-0.1889 0.4082,-0.1891 0.4432,-0.2711 1.2016,-0.5556 0.7694,-0.4597 0.5483,-0.2834 0.7696,-0.4364 0.3026,-0.2588 0.1738,-0.3282 0.032,-0.5147 -0.1071,-0.3971 -0.1893,-0.455 -0.061,-0.6078 0.1963,-0.5038 0.2554,-0.3871 0.3373,-0.3525 0.4191,-0.3762 0.3025,-0.3172 0.3956,-0.3995 0.3017,-0.4692 0.1266,-0.3982 0.01,-0.4444 -0.2494,-0.7705 -0.3875,-0.3255 -0.4228,-0.3721 -0.5284,-0.4652 -0.3051,-0.1972 -0.5165,-0.4067 -0.3998,-0.4541 -0.2834,-0.5716 -0.2484,-0.5718 -0.2596,-0.4663 -0.166,-0.4788 -0.1073,-0.4087 -0.2133,-0.5835 -0.2605,-0.6535 -0.4352,-0.5125 -0.5967,-0.067 -0.21,0.095 -0.291,0.2704 -0.35,0.1654 -0.5388,-0.1962 -0.4226,-0.337 -0.399,-0.2786 -0.6317,-0.055 -0.3855,0.06 -0.5842,0.1081 -0.7714,0.062 -0.5147,-0.044 -0.7028,-0.2304 -0.6445,-0.2776 -0.3276,-0.045 -0.8538,-0.043 -0.6671,-0.1252 -0.2476,-0.4082 0.2438,-0.3637 0.4198,-0.2241 0.3267,-0.1537 0.3724,-0.3526 -0.1215,-0.9232 -0.095,-0.2333 -0.1305,-0.3736 0.057,-0.2342 0.208,-0.5038 0.2785,-0.4341 0.321,-1.2995 0.1253,-0.6671 0.09,-0.6788 0.032,-0.5495 -0.05,-0.6313 0.076,-1.2165 v -0.082 l 0.3126,-0.6331 0.2776,-0.5976 0.3486,-0.4579 0.4192,-0.3527 0.2916,-0.1418 0.4193,-0.3296 0.2669,-0.4338 -0.025,-0.4208 -0.119,-0.397 -0.2242,-0.4316 -0.3874,-0.3021 -0.5388,-0.1844 -0.4686,-0.1848 -0.3645,-0.3958 -0.025,-0.374 0.1965,-0.4571 0.2907,-0.3289 0.2673,-0.3286 0.033,-0.386 -0.3409,-0.3608 -0.293,-0.1389 -0.3864,-0.1151 -0.3523,-0.3022 -0.06,-0.3037 0.021,-0.386 0.081,-0.2695 0.2443,-0.2467 0.2665,-0.5041 0.068,-0.4446 -0.026,-0.4676 -0.037,-0.4208 0.1849,-0.4453 0.2442,-0.2818 0.3029,-0.2121 0.3381,-0.2237 0.3375,-0.3057 0.3831,-0.5749 0.4301,-0.505 0.2192,-0.609 -0.061,-0.4207 -0.2245,-0.4784 -0.2826,-0.396 -0.1546,-0.5255 0.056,-0.4797 0.1624,-0.2698 0.4539,-0.4348 0.7696,-0.4365 0.8737,-0.6591 0.3029,-0.2353 0.2447,-0.1651 0.3968,-0.1538 0.502,-0.1662 0.3491,-0.3409 0.057,-0.3159 -0.06,-0.3505 -0.1422,-0.3853 0.033,-0.4445 0.2905,-0.3639 0.4314,-0.2594 0.5018,-0.2013 0.643,-0.038 0.4913,0.044 0.5506,0.2195 0.4454,0.2083 0.3767,0.5008 0.1073,0.4322 0.014,0.4909 -0.08,0.3864 -0.2204,0.3636 -0.1855,0.3166 -0.1268,0.363 0.014,0.3509 0.2465,0.2092 0.3163,0.1037 0.4323,-0.072 0.6885,-0.284 0.6179,-0.3655 0.5829,-0.3537 0.4656,-0.4234 0.3014,-0.5276 0.1604,-0.6907 0.2897,-0.5159 0.2441,-0.317 0.1156,-0.2577 0.057,-0.398 -0.06,-0.3621 -0.1536,-0.3267 -0.3061,-0.4194 -0.2602,-0.6068 -0.2009,-0.4317 -0.3175,-0.361 -0.4922,-0.2079 -0.468,-0.068 -0.5509,-0.2545 -0.3871,-0.2436 -0.2706,-0.3378 -0.3431,-0.8169 -0.2712,-0.4548 -0.3175,-0.3608 -0.2939,-0.3259 -0.224,-0.3615 -0.1309,-0.467 0.033,-0.503 0.22,-0.4103 0.3372,-0.3876 0.5822,-0.5056 0.4425,-0.3647 0.3712,-0.6099 0.069,-0.3161 -0.014,-0.3624 -0.3055,-0.2908 -0.6906,-0.1487 -0.2574,-0.022 -0.5143,0.026 -0.4793,0.038 -0.5025,0.061 -0.5258,0.073 -0.5144,0.014 -0.5376,0.061 -0.6313,0.027 -0.3736,0.1187 -0.7001,0.3075 -0.303,0.2003 -0.4084,0.1891 -0.4906,0.096 -0.644,-0.1839 -0.4583,-0.4421 -0.3759,-0.3606 -0.3641,-0.3257 -0.6681,-0.3241 -0.3866,-0.1501 -0.515,-0.091 -0.5497,-0.021 -0.8654,-0.031 -0.6668,-0.067 -0.5967,-0.067 -0.5041,-0.2547 -0.2473,-0.3496 -0.1301,-0.3034 -0.037,-0.374 0.033,-0.3744 0.1701,-1.0883 0.088,-1.2282 -0.01,-1.2394 -0.3104,-1.3081 -0.1941,-1.4139 0.066,-0.8774 0.01,-0.842 -0.214,-0.7239 -0.5102,-1.4824 -0.2043,-1.1216 -0.014,-0.5261 0.1146,-0.4801 0.2084,-0.422 0.3476,-0.6331 0.1384,-0.3749 0.1239,-0.9828 -0.1444,-0.8178 -0.2716,-0.5132 -0.376,-0.4074 -0.3639,-0.2905 -0.3068,-0.5598 -0.1776,-0.4434 -0.2593,-0.408 -0.5051,-0.4653 -0.5508,-0.2428 -0.5735,-0.1141 -0.3401,-0.1971 -0.3526,-0.3724 -0.1071,-0.362 0.092,-0.3396 0.2324,-0.2934 0.2317,-0.4572 0.068,-0.4564 -0.039,-0.8885 -0.1778,-0.4902 -0.1895,-0.4902 -0.3297,-0.4661 -0.4701,-0.4771 -0.3874,-0.2787 -0.3754,-0.2788 -0.3879,-0.4073 -0.3883,-0.4893 -0.271,-0.4196 -0.1671,-0.6773 -0.1915,-0.8995 -0.015,-0.7015 0.09,-0.6786 0.2548,-0.4924 0.4647,-0.622 0.5929,-0.6929 0.36,-0.5045 0.301,-0.6096 0.1488,-0.6555 0.032,-0.6082 0.1835,-0.7259 0.1967,-0.4103 0.244,-0.3169 0.2791,-0.3288 0.3827,-0.6333 v -0.3625 l -0.4229,-0.3954 -0.4339,-0.2318 -0.4683,-0.138 -0.3862,-0.045 -0.6895,0.097 -0.3966,0.1657 -0.3492,0.3291 -0.3952,0.4814 -0.3249,0.5161 -0.3008,0.6446 2e-4,0.035 -0.1496,0.4918 -0.09,0.7488 -0.044,0.5966 -0.1958,0.6207 -0.336,0.6331 -0.4652,0.5051 -0.8962,0.8346 -0.5479,0.3418 -0.6173,0.5059 -0.3021,0.3757 -0.2199,0.4922 -0.4187,0.423 -0.4205,0.1073 -0.5379,-0.021 -0.5734,-0.079 -0.8076,-0.1246 -1.4034,-0.052 -0.7833,0.039 -0.7241,0.1439 -0.4203,0.1541 -0.5124,0.4351 -0.2439,0.3287 -0.115,0.3981 v 0.3742 l 0.3057,0.3376 0.2713,0.478 0.049,0.4558 -0.4293,0.6804 -0.3373,0.3641 -0.5821,0.494 -0.2216,0.1531 -0.5365,0.2716 -0.4788,0.1193 -0.4558,0.049 -0.3861,-0.033 -0.5737,-0.1725 -0.4099,-0.1149 -0.7129,0.085 -0.3731,0.189 -0.3614,0.259 -0.2674,0.3053 -0.6045,0.7046 -0.3147,0.2237 -0.2794,0.2236 -0.292,0.095 -0.4322,0.084 -0.5493,0.061 -0.5027,0.014 -0.5611,0.015 -0.7369,-0.031 -0.7484,-0.01 -1.1812,-0.053 -0.8544,-0.1479 -0.8196,-0.2181 -0.5744,-0.2777 -0.8104,-0.7211 -0.4591,-0.6409 -0.1192,-0.4554 0.068,-0.433 0.2084,-0.4219 0.4855,-1.1016 0.115,-0.4333 0.079,-0.5499 0.057,-0.2927 0.1381,-0.4567 0.1848,-0.4569 0.3002,-0.7732 -0.2015,-0.5486 -0.2002,-0.3031 -0.3057,-0.3259 -0.4223,-0.2785 -0.3989,-0.2904 -0.235,-0.1976 -0.7615,-0.3003 -0.2808,-0.034 -0.5264,-0.044 -1.0525,-0.018 -0.5258,0.073 -0.4321,0.1074 -0.7829,0.1091 -0.6431,0.015 -0.7262,-0.2536 -0.5388,-0.1728 -0.4091,0.025 -0.339,0.037 -0.5243,0.3768 -0.4785,0.1776 -0.3624,0.037 -0.5852,-0.1141 -0.4448,-0.091 -0.3977,-0.033 -0.2805,0.025 -0.2684,0.1182 -0.3729,0.2591 -0.3611,0.259 -0.4787,0.1778 -0.269,-0.01 -0.2699,-0.2092 -0.2358,-0.373 -0.1531,-0.2565 -0.2123,-0.3497 -0.1897,-0.5136 -0.5334,-1.459 -0.5427,-0.9913 -0.5421,-0.8743 -0.752,-0.6979 -0.9383,-0.58 -1.0324,-0.6965 -0.7029,-0.2655 -0.5503,-0.1493 -0.4918,-0.1496 -0.6102,-0.4296 -0.2591,-0.3729 -0.1535,-0.2916 -0.1077,-0.5139 0.056,-0.5031 0.1734,-0.3984 0.3016,-0.5043 0.2085,-0.3986 0.4386,-1.1598 0.3346,-0.9371 0.207,-0.6793 0.1729,-0.5153 0.196,-0.5622 0.056,-0.5265 v -0.6665 l -0.085,-0.5609 -0.2755,-1.3667 -0.2605,-0.6302 -0.3777,-0.6997 -0.5405,-0.5469 -0.9259,-0.4281 -0.8896,-0.1944 -0.6319,-0.09 -0.6669,-0.079 -0.5611,0.014 -0.6425,0.1433 -0.5844,0.061 -0.9119,0.028 -0.6908,-0.1837 -0.4808,-0.2664 -0.5742,-0.2662 -0.3864,-0.1034 -0.6083,-0.055 -0.6673,-0.1606 -0.8666,-0.253 -0.7254,-0.078 -0.4442,0.026 -0.7711,0.1207 -0.6772,0.2021 -0.7815,0.3898 -0.606,0.4239 -0.5581,0.6576 -0.4755,0.7858 -0.3003,0.7264 -0.1609,0.6089 -0.1502,0.3515 -0.1739,0.2932 -0.4658,0.3999 -0.5372,0.1663 -0.7127,0.1088 -0.5378,0.014 -0.6896,0.062 -0.5261,0.014 -0.5608,0.108 -1.414,0.1824 -1.11,0.1692 -0.631,0.062 -0.6194,0.097 -0.83,0.039 -0.8069,-0.01 -0.8067,0.016 -0.7252,-0.055 -0.7491,-0.1483 -0.5625,-0.231 -0.446,-0.337 -0.4923,-0.2548 -0.3638,-0.2555 -0.5621,-0.1726 h -0.5145 -0.5379 l -0.5736,-0.1375 -0.3402,-0.2205 -0.3635,-0.2087 -0.4453,-0.1965 -0.4915,-0.068 -0.5848,-0.032 -0.5852,-0.114 -0.3869,-0.2086 -0.2826,-0.3844 -0.1422,-0.3852 -0.144,-0.7711 -0.1191,-0.4203 -0.2385,-0.9343 -0.166,-0.4669 -0.095,-0.2451 -0.2477,-0.4548 -0.4572,-0.2199 -0.479,0.049 -0.2563,0.2001 -0.4422,0.4583 -0.3496,0.2355 -0.7943,0.1559 -0.527,-0.1377 -0.4219,-0.1967 -0.5969,-0.114 -0.5728,0.038 -0.4084,0.1774 -0.396,0.3177 -0.2208,0.2818 -0.2322,0.3168 -0.093,0.1875 -0.1275,0.2228 -0.1977,0.2348 -0.2205,0.3285 -0.3028,0.2588 -0.5376,0.038 -0.3285,-0.2088 -0.2128,-0.4901 -0.2126,-0.3965 -0.2704,-0.3261 -0.5633,-0.4065 -0.4113,-0.3955 -0.1197,-0.5607 -0.037,-0.374 -0.013,-0.2806 0.01,-0.5028 -0.096,-0.479 -0.1184,-0.3268 -0.3669,-0.8752 -0.425,-0.8281 -0.5796,-1.3418 -0.3312,-0.8051 -0.3072,-0.6184 -0.5651,-0.7572 -0.9765,-1.1996 -0.8111,-0.8847 -1.1652,-1.526 -0.6958,-1.1776 -0.5678,-1.3536 -0.697,-1.4231 -0.6135,-1.1314 -0.8003,-1.0133 -1.3046,-1.3734 -1.0705,-1.2692 -1.0103,-0.9656 -1.092,-0.9418 -0.8321,-0.3466 -0.6323,-0.184 -0.714,-0.1368 -0.8898,-0.2295 -0.481,-0.3366 -0.5282,-0.3951 -0.3045,-0.1154 -0.4564,-0.08 -0.8552,-0.2881 -1.2296,-0.3798 -0.8432,-0.3466 -0.9255,-0.3112 -0.8435,-0.3349 -1.1372,-0.5908 -1.0211,-0.7433 -1.3141,-0.9173 -0.5977,-0.3244 -0.5985,-0.3479 -0.6448,-0.2774 -0.5027,-0.1145 -0.4445,0.1075 -0.3379,0.177 -0.4421,0.4699 -0.7432,0.9392 -1.1378,1.7011 -1.0339,1.3732 -1.1751,1.2102 -1.3036,1.2108 -0.8845,0.8931 -0.5709,0.3419 -0.5377,0.061 -0.4686,-0.1497 -1.2544,-0.6721 -1.0085,-0.6264 -0.6335,-0.3945 -0.7731,-0.2885 h -0.4445 l -0.6186,0.2019 -0.5715,0.377 -0.3487,0.3642 -0.2548,0.4807 -0.3133,0.4926 -0.4077,0.3879 -0.5707,0.3771 -0.3855,0.1304 -0.3847,0.271 -0.2561,0.235 -0.3019,0.3874 -0.1736,0.3516 -0.1037,0.3748 -0.2307,0.5857 -0.1622,0.3516 -0.1971,0.27 -0.3731,0.2123 -0.4672,0.1894 -0.3845,0.2123 -0.2558,0.2702 -0.2212,0.2819 -0.1384,0.3513 -0.2786,0.4341 -0.5006,0.4 -0.5617,-0.032 -0.3863,-0.1618 -0.2712,-0.3846 -0.084,-0.4088 0.1725,-0.5738 0.2672,-0.3522 0.4538,-0.47 0.2783,-0.469 0.2308,-0.6093 0.033,-0.5028 -0.062,-0.6897 -0.039,-0.8301 -0.016,-0.7132 0.1383,-0.4216 0.2437,-0.3403 0.3609,-0.3643 0.4654,-0.4466 0.4898,-0.3181 0.3966,-0.2242 0.3595,-0.5278 0.1495,-0.5271 -0.038,-0.6663 -0.39,-0.8166 -0.1995,-0.1393 -0.6194,0.05 -0.4429,0.2828 -0.4315,0.236 -0.3389,0.072 -0.584,0.1432 -0.572,0.1549 -0.5022,0.1545 -0.5953,0.2017 -0.5138,0.143 -0.3972,0.095 -0.8181,0.086 -0.6318,-0.1138 -0.155,-0.6072 0.044,-0.5148 -0.154,-0.3968 -0.4686,-0.1965 -0.7951,0.027 -0.5598,0.2717 -0.3723,0.3994 -0.5236,0.5404 -0.6411,0.4125 -0.8745,0.5071 -0.5942,0.4122 -0.6178,0.4006 -0.9443,0.5776 -0.6893,0.1554 -0.7474,0.1791 -0.5133,0.2481 -0.5712,0.3303 -0.5961,0.061 -0.5731,-0.056 -0.7014,0.039 -0.5596,0.377 -0.3482,0.5279 -0.3355,0.7266 -0.7552,0.9977 -0.4656,0.4115 -0.5371,0.1781 -0.5144,-0.01 -0.2712,-0.4313 -0.2717,-0.5833 -0.2606,-0.6886 -0.1082,-0.5607 -0.4072,-1.9976 -0.011,-1.0289 0.1357,-1.0063 0.044,-0.5849 -0.2379,-0.8173 -0.6797,-0.2656 -0.9358,-0.089 -0.7596,0.074 -1.0393,0.3091 -0.9676,0.566 -1.4557,1.2 -1.269,1.1404 -0.581,0.7396 -0.4043,1.031 0.061,0.5376 0.2942,0.3376 0.4109,0.3137 0.5157,0.3015 0.5868,0.3479 0.5054,0.5471 0.1188,0.3619 -0.019,0.7484 -0.1016,0.7957 -0.395,0.493 -0.3966,0.2125 -0.5575,0.6809 -0.2426,0.656 -0.032,0.6784 0.2378,0.8407 0.5062,0.6407 0.5522,0.5234 0.1653,0.3734 -0.1034,0.363 -0.4419,0.4582 -0.3617,0.2474 -0.6315,-0.1139 -0.6565,-0.2657 -0.5506,-0.2428 -0.363,-0.1151 -0.3863,-0.1034 -0.5373,0.143 -0.2673,0.3872 -0.1021,0.5968 0.2712,0.4547 0.2823,0.3845 0.1545,0.4904 -0.011,0.5145 -0.2196,0.5039 -0.5948,0.3421 -0.6434,-0.1021 -0.5287,-0.4651 -0.5048,-0.4419 -0.658,-0.6516 -0.5411,-0.6521 -0.4932,-0.4068 -0.7617,-0.3237 -1.275,-0.1106 -1.3092,0.088 -1.2393,0.053 -1.0393,0.3091 -0.8626,0.5188 -1.0144,0.613 -0.7228,0.4012 -0.98215,0.052 -0.99378,0.017 -1.00595,-0.042 -0.9017,-0.2879 -0.49292,-0.3834 -0.42307,-0.4072 -0.62125,-0.3244 -0.81835,0.027 -0.53685,0.2248 -0.46487,0.5636 -0.31221,0.7381 -0.2204,0.3519 -0.35031,0.1187 -0.51408,0.061 -0.52626,-0.033 -0.77179,0.027 -0.54928,0.073 -0.45509,0.1659 -0.3257,0.3407 -0.0799,0.3279 0.10742,0.4671 0.35269,0.4076 0.5162,0.3248 0.43604,0.6527 0.11906,0.4438 -0.0802,0.4564 -0.40799,0.2592 -0.52573,0.084 -0.57335,-0.044 -0.66675,-0.043 -0.60749,0.073 -0.60748,0.1433 -0.40826,0.1775 -0.40719,0.4112 -0.28946,0.6095 -0.12594,0.5502 -0.0439,0.4796 -0.0799,0.4448 -0.12595,0.5034 -0.13837,0.4333 -0.19685,0.3635 -0.38471,0.2591 -0.42122,0.014 -0.6903,-0.172 -0.49292,-0.3483 -0.44662,-0.4773 -0.21299,-0.5017 -0.0849,-0.5726 -0.05,-0.5844 -0.0601,-0.3972 -0.14262,-0.4788 -0.25982,-0.5132 -0.55165,-0.3831 -0.67893,-0.1838 -0.56197,-0.044 -0.81783,0.086 -0.77021,0.2962 -0.52494,0.2364 -1.01416,0.6949 -1.17739,0.7658 -0.85038,0.5772 -0.46514,0.505 -0.41804,0.5869 -0.59267,0.7863 -0.54557,0.7745 -0.76571,1.2549 -0.78899,1.2317 -0.38312,0.5866 -0.30109,0.5626 -0.23151,0.5041 -0.30057,0.6563 -0.60299,1.067 -0.30004,0.8668 -0.3937,0.7269 -0.33549,0.6915 -0.34978,0.2474 -0.40984,-0.1149 -0.54002,-0.4534 -0.29369,-0.2207 -0.52678,-0.1027 -0.43128,0.2009 -0.31379,0.3758 0.0238,0.2688 0.20135,0.5019 0.27067,0.4313 0.24818,0.5249 0.12012,0.6308 -0.15981,0.7493 -0.29051,0.4341 -0.60299,0.9851 -0.44159,0.5869 -0.39582,0.2943 -0.46699,0.2011 -0.33761,0.2939 -0.17357,0.3517 -0.22092,0.2817 -0.29131,0.1299 -0.33946,-0.057 -0.56304,-0.3246 -0.50509,-0.4769 -0.42333,-0.4774 -0.37598,-0.3841 -0.35242,-0.3372 -0.52838,-0.36 -0.46911,-0.2899 -0.50377,-0.2666 -0.62124,-0.2893 -0.49186,-0.1494 -0.40905,0.049 -0.36168,0.2005 -0.31512,0.1302 -0.5379,-0.079 -0.5514,-0.3014 -0.61039,-0.4998 -0.38841,-0.4658 -0.37651,-0.4659 -0.66939,-0.6514 -0.4699,-0.3953 -0.52811,-0.4651 -0.42175,-0.1266 -0.51515,-0.056 -0.46699,0.072 -0.47837,0.2246 -0.51303,0.2831 -0.6178,0.3773 -0.5252,0.2715 -0.86281,0.4486 -0.68792,0.3425 -0.70035,0.3193 -0.51356,0.1896 -0.36169,0.2122 -0.22066,0.27 -0.20823,0.4686 -0.12753,0.2697 -0.31379,0.3524 -0.79349,0.2729 -0.39661,0.2241 -0.38418,0.3526 -0.33708,0.3994 -0.42942,0.6218 -0.62548,1.2192 -0.38285,0.5983 -0.44159,0.5751 -0.53552,0.5171 -0.66437,0.4243 -0.41963,0.2944 -0.5932,0.6694 -0.42889,0.6802 -0.59108,1.1022 -0.48683,0.8677 -0.98796,1.1859 -0.88424,0.9281 -1.0467,1.1277 -0.88477,0.7995 -0.86175,0.6591 -0.5252,0.178 -0.5842,0.1432 -0.78158,0.4365 -0.69903,0.518 -0.58367,0.225 -0.49028,0.1077 -0.59743,-0.1608 -0.48022,-0.1613 -0.3392,-0.022 -0.57229,0.108 -0.46646,0.2596 -0.52335,0.4937 -0.53525,0.5873 -0.67205,1.0146 -0.92049,1.0628 -1.12633,1.3037 -1.0541,0.8982 -1.09671,0.6256 -1.32689,0.8252 -1.05516,0.6336 -1.05675,0.3441 -0.8927,0.095 -1.69466,0.058 -1.23244,-0.043 -0.81862,-0.062 -0.76147,-0.2029 -0.52282,-0.3365 -0.32491,-0.5027 -0.32491,-0.5028 -0.29925,-0.321 -0.48815,-0.031 -0.37148,0.1342 -0.59373,0.2592 -0.72549,0.3922 -0.41301,0.1758 -0.75089,0.3178 -0.69215,0.4085 -0.48605,0.3746 -0.53551,0.4491 -0.67549,0.516 -0.67601,0.3424 -1.01521,0.3109 -0.694,0.1687 -1.0078,0.1704 -1.10729,0.1543 -0.8591,0.1531 -0.91652,0.2939 -0.8988,0.5088 -0.8554,0.8559 -0.78581,1.5583 -0.62971,1.4914 -0.4064,1.449 -0.3429,0.8368 -0.45059,0.7794 -0.5416,0.9205 -0.3183,0.8284 -0.36751,0.9857 -0.37756,0.5311 -0.42783,0.4072 -0.5035,0.2092 -0.4543,0.052 -0.27252,0.026 -0.48789,0.019 -0.56992,0.1186 -0.26379,0.2493 -0.1471,0.3398 -0.11219,0.6537 -0.2204,0.613 -0.17991,0.4391 -0.254,0.489 -0.34529,0.3904 -0.33787,0.1587 -0.48789,0.019 -0.33126,-0.1389 -0.32438,-0.3126 -0.28311,-0.4782 -0.14261,-0.421 -0.27728,-0.8999 -0.1524,-0.6689 -0.0619,-0.8927 -0.0185,-0.6283 -0.19235,-0.4373 -0.55113,-1.097 -0.29342,-0.8005 -0.11907,-0.7105 -0.0185,-0.6035 0.10451,-0.5297 -0.0106,-0.4878 -0.22543,-0.4288 -0.34819,-0.1885 -0.55404,-0.022 -0.46275,0.077 -0.41249,0.1839 -0.52758,0.292 -0.60246,0.2676 -0.72602,0.2764 -0.99034,0.3769 -0.72708,0.1442 -0.5117,0.1844 -0.36275,0.2251 -0.59346,0.3419 -0.57759,0.2592 -0.71781,0.3095 -0.92393,0.4097 -0.36301,0.1588 -0.32967,0.2333 -0.33814,0.1835 -0.66887,0.1521 -0.43021,-0.023 -0.60458,-0.1872 -0.43947,-0.2789 -0.53922,-0.3529 -0.52309,-0.4604 -0.44926,-0.5683 -0.26697,-0.4618 -0.42677,-1.0314 -0.23442,-0.6024 -0.35931,-0.7424 -0.34184,-0.5771 -0.39211,-0.7339 -0.47255,-0.254 -0.31459,-0.04 -0.3056,0.059 -0.2966,0.2247 -0.18838,0.3399 -0.14605,0.5465 -0.0212,0.6698 0.11086,0.6527 0.10425,1.033 0.0691,0.5784 0.0106,1.0087 -0.0892,0.4966 -0.19553,0.5053 -0.13838,0.4802 -0.2704,0.5471 -0.20479,0.3317 -0.28761,0.4314 -0.29554,0.3901 -0.83979,0.74 -0.4863,0.3166 -0.49477,0.2836 -0.39582,0.2004 -0.52811,0.1927 -0.59611,-0.1293 -0.3982,-0.3453 -0.19288,-0.4621 -0.13494,-0.5699 -0.34158,-0.4944 -0.48048,-0.2704 -0.44741,-0.1715 -0.3728,-0.1139 -0.66199,-0.096 -0.47123,-0.014 -0.63659,-0.022 -0.42201,0.018 -0.87577,0.1449 -0.32941,0.2579 -0.30401,0.4067 -0.22939,0.3484 -0.2876,0.4314 -0.29554,0.4148 -0.2548,0.332 -0.27146,0.2907 -0.41222,0.2336 -0.42942,0.093 -0.75989,0.1775 -0.1651,0.059 -0.56092,0.2674 -0.7247,0.5906 -0.68447,0.268 -0.35561,0.06 -0.38841,0.06 -0.48709,0.143 -0.34635,0.1836 -0.27067,0.4147 v 0.4136 l 0.18389,0.3794 0.35005,0.5274 0.31617,0.4367 0.35799,0.4861 0.19208,0.3876 0.0185,0.3886 -0.072,0.4964 -0.16351,0.4225 -0.29502,0.5223 -0.27966,0.233 -0.28073,0.084 -0.26458,0.018 h -0.47122 l -0.57098,-0.014 -0.42121,-0.01 -0.41328,0.077 -0.41302,0.1343 -0.37068,0.192 -0.70644,0.4551 -0.49028,0.2129 -0.6768,0.2722 -0.0106,0.5263 0.28258,0.4429 0.28363,0.5248 0.33047,0.6532 0.37888,0.9687 0.37915,0.9686 0.204,1.0514 -0.0431,0.7603 -0.13758,0.5152 -0.23152,0.4922 -0.34845,0.4579 -0.53579,0.4353 -0.64135,0.3889 -0.64214,0.1787 -0.58447,0.038 -0.65643,-0.3358 -0.36434,-0.3607 -0.32887,-0.279 -0.47996,-0.1263 -0.63156,-0.044 -1.29858,-0.1106 -0.65458,0.038 -0.64241,0.1435 -0.56066,0.1548 -0.53684,0.1898 -0.59505,0.2485 -0.51356,0.2013 -0.53737,0.1312 -0.44423,0.014 -0.44477,-0.08 -0.38761,-0.3839 -0.29422,-0.3611 -0.32941,-0.3959 -0.48101,-0.3601 -0.703,-0.2421 -0.51647,-0.4184 -0.41117,-0.3955 -0.45825,-0.4538 -0.83397,-0.7678 -0.21167,-0.221 -0.23601,-0.4549 -0.0608,-0.4206 0.0899,-0.5968 0.046,-0.2693 0.031,-0.7602 -0.0392,-0.7598 -0.0619,-0.7247 -0.096,-0.5725 -0.18997,-0.5603 -0.31882,-0.6299 -0.4707,-0.6057 -0.37624,-0.4542 -0.75459,-1.2357 -0.81333,-1.3057 -0.84641,-0.9313 -1.29276,-1.3266 -0.71622,-0.5811 -0.62019,-0.1139 -0.52652,-0.021 -0.43313,-0.1265 -0.39952,-0.3839 -0.27173,-0.5599 -0.13044,-0.3736 -0.28231,-0.3493 -0.45614,-0.021 -0.40825,0.1891 -0.32597,0.3056 -0.27861,0.4224 -0.31353,0.4575 -0.39582,0.3645 -0.39688,0.1306 -0.35004,0.1186 -0.45535,0.1543 -0.39635,0.2475 -0.38417,0.341 -0.5125,0.4001 h -0.50298 l -0.58605,-0.2894 -0.33973,-0.1503 -0.49265,-0.2899 -0.56198,-0.1727 -0.55007,-0.056 h -0.65458 l -0.72523,-0.055 -0.55033,-0.1026 -0.57388,-0.1959 -0.57415,-0.2427 -0.75036,-0.3939 -0.43392,-0.2902 -0.46911,-0.29 -0.42122,-0.033 -0.43153,0.2009 -0.48922,0.4 -0.54689,0.5523 -0.34846,0.4694 -0.53499,0.5757 -0.5469,0.5639 -0.60537,0.5526 -0.94244,0.9167 -0.72153,0.7402 -0.70987,0.6584 -0.14949,0.5269 -0.14949,0.4919 -0.38365,0.4462 -0.31459,0.2471 -0.36143,0.2006 -0.39529,0.5047 -0.33708,0.411 -0.42016,0.1657 -0.4445,-0.033 -0.49265,-0.3366 -0.53843,-0.1026 -0.46673,0.1777 -0.24394,0.3637 -0.46461,0.6103 -0.3392,-0.01 -0.43286,-0.068 -0.45773,-0.3484 -0.42439,-0.6879 -0.0381,-0.5026 0.10292,-0.4332 0.18468,-0.5037 0.12621,-0.5735 -0.0608,-0.409 -0.15399,-0.3968 -0.1659,-0.4436 -0.0265,-0.3974 -0.073,-0.5608 -0.31803,-0.4663 -0.37518,-0.1852 -0.51541,-0.1729 -0.5498,-0.079 -0.4326,0.025 -0.79402,0.2379 -0.6768,0.2723 -0.62945,0.3888 -0.74586,0.5183 -0.48895,0.4351 -0.55907,0.4588 -0.76756,0.8574 -0.41804,0.5633 -0.41963,0.271 -0.58526,-0.079 -0.30427,-0.08 -0.40931,0.014 -0.52547,0.1078 -0.50271,0.049 -0.43339,-0.1616 -0.5162,-0.3249 -0.42281,-0.3838 -0.52864,-0.4768 -0.44582,-0.3369 -0.58632,-0.3011 -0.48075,-0.3133 -1.06812,-0.8016 -0.63474,-0.6751 -0.41222,-0.5943 -0.3773,-0.6062 -0.37756,-0.6763 -0.25982,-0.5249 -0.41302,-0.7931 -0.36513,-0.5361 -0.31776,-0.4194 -0.56357,-0.4415 -0.51673,-0.4535 -0.48154,-0.4069 -0.7628,-0.5926 -0.55113,-0.2896 -0.56277,-0.3013 -0.45693,-0.2082 -0.79587,-0.1597 -0.59717,-0.1491 -0.59717,-0.1491 -0.50191,0.1779 -0.37307,0.2474 -0.5371,0.1313 -0.4326,-0.01 -0.64373,-0.1137 -0.49054,0.1193 -0.61833,0.2955 -0.6993,0.4828 -0.55906,0.4589 -0.72206,0.5647 -0.62971,0.3656 -0.55933,0.4004 -0.45402,0.3765 -0.64056,0.5293 -0.81704,0.2963 -0.64399,-0.1721 -0.23628,-0.4784 -0.11933,-0.5021 -0.17753,-0.4318 -0.17833,-0.6073 0.11509,-0.3396 0.20664,-0.7727 -0.0132,-0.4093 -0.25876,-0.3144 -0.55034,-0.1843 -0.63129,0.073 -0.56039,0.178 -0.47943,0.014 -0.46778,-0.068 -0.4453,-0.2083 -0.4236,-0.4422 -0.52731,-0.2546 -0.52626,-0.056 -0.55034,-0.1025 -0.4109,-0.302 -0.38841,-0.5594 -0.54107,-0.6521 -0.52811,-0.395 -0.80778,-0.2182 -0.62045,-0.091 -0.42148,-0.1499 -0.23521,-0.1976 -0.3519,-0.314 -0.32809,-0.1387 -0.47942,-0.01 -0.3855,0.1306 -0.54822,0.2365 -0.37359,0.1305 -0.88689,0.3435 -0.65299,0.3656 -0.61781,0.4358 -0.5125,0.4235 -0.5588,0.4822 -0.97843,0.7999 -0.25638,0.1884 -0.69983,0.3542 -0.70088,0.085 -0.4916,-0.1028 -0.25929,-0.3261 -0.17833,-0.6423 0.055,-0.6667 -0.15399,-0.4086 -0.36407,-0.2905 -0.63262,-0.1957 -0.7485,-0.1015 -0.79561,-0.066 -0.97182,-0.2641 -0.29289,-0.1505 -0.55139,-0.3013 -0.32782,-0.1153 -0.74931,-0.1834 -0.3855,0.037 -0.60748,0.1666 -0.67681,0.2372 -0.65378,0.2604 -0.63051,0.1202 -0.6432,0.073 -0.77153,0.051 -0.7247,-0.032 -0.77258,-0.1482 -0.63289,-0.2775 -0.644,-0.2073 -0.39819,-0.092 -0.70195,-0.1018 -1.23058,-0.5318 -0.28151,-0.1975 -0.58712,-0.4881 -0.32887,-0.3375 -0.50483,-0.3951 -0.63447,-0.5464 z"
fill="#3333"        id="path6434" />
  </g>
</svg>
